<?xml version="1.0" standalone="no"?>
<!DOCTYPE svg PUBLIC "-//W3C//DTD SVG 1.1//EN" "http://www.w3.org/Graphics/SVG/1.1/DTD/svg11.dtd" >
<svg>
<metadata>
Created by FontForge 20090914 at Thu May 10 15:24:18 2012
 By www-data
SkarpaLT  (c) 2011 by Aga Silva. All rights reserved.
</metadata>
<defs>
<font id="SkarpaLT" horiz-adv-x="399" >
  <font-face 
    font-family="SkarpaLT"
    font-weight="200"
    font-stretch="normal"
    units-per-em="1024"
    panose-1="2 0 5 0 0 0 0 2 0 4"
    ascent="819"
    descent="-205"
    x-height="407"
    cap-height="860"
    bbox="-14.999 -304 1100 1042"
    underline-thickness="0"
    underline-position="-300"
    unicode-range="U+0020-U+2248"
  />
<missing-glyph horiz-adv-x="898" 
 />
    <glyph glyph-name=".notdef" horiz-adv-x="898" 
 />
    <glyph glyph-name="space" unicode=" " 
 />
    <glyph glyph-name="glyph_132" unicode="!" horiz-adv-x="203" 
d="M99 838c4 0 7.33398 -1.5 10.001 -4.5s4 -6.16699 4 -9.5v-590c0 -3.33301 -1.33301 -6.5 -4 -9.5s-5.83398 -4.5 -9.50098 -4.5s-7 1.5 -10 4.5s-4.5 6.16699 -4.5 9.5v590c0 7.33301 4 12 12 14h2zM140.001 11c0 -11.333 -4.00098 -21 -12.001 -29s-17.333 -12 -28 -12
c-11.333 0 -21.166 4 -29.499 12s-12.5 17.667 -12.5 29s4.16699 21 12.5 29s18 12 29 12s20.5 -4 28.5 -12s12 -17.667 12 -29z" />
    <glyph glyph-name="quotedbl" unicode="&#x22;" horiz-adv-x="199" 
d="M113 532c-4 0 -7.33398 1.33398 -10.001 4.00098s-4 6 -4 10c0 2.66699 0.666992 5 2 7l41 63c-8.66699 2.66699 -15.667 7.66699 -21 15s-8 15.666 -8 24.999c0 11.333 3.83301 20.833 11.5 28.5s17.167 11.5 28.5 11.5s21 -3.83301 29 -11.5s12 -17.167 12 -28.5
c0 -12.667 -4.66699 -23 -14 -31l-56 -87c-1.33301 -2.66699 -3.66602 -4.66699 -6.99902 -6h-4zM15.999 532.001c-3.33301 0 -6.50098 1.33398 -9.50098 4.00098s-4.5 6 -4.5 10c0 2.66699 1 5 3 7l41 63c-8.66699 2.66699 -15.667 7.66699 -21 15s-8 15.666 -8 24.999
c0 11.333 3.83301 20.833 11.5 28.5s17.167 11.5 28.5 11.5s20.833 -3.83301 28.5 -11.5s11.5 -17.167 11.5 -28.5c0 -12 -3.66699 -21.667 -11 -29l-2 -2l-56 -87c-1.33301 -2.66699 -3.66602 -4.66699 -6.99902 -6h-5z" />
    <glyph glyph-name="glyph_110" unicode="#" horiz-adv-x="559" 
d="M204 524c3.33301 0 6.50195 -1.50391 9.50195 -4.50391s4.5 -6.16699 4.5 -9.5v-113h112v112c0 6.66699 3 11.334 9 14.001h5c3.33301 0 6.5 -1.33301 9.5 -4s4.5 -6 4.5 -10v-112h126c4 0 7.33301 -1.5 10 -4.5s4 -6.16699 4 -9.5c0 -4 -1.33301 -7.33301 -4 -10
s-6 -4 -10 -4h-126v-140h126c4 0 7.33301 -1.5 10 -4.5s4 -6.16699 4 -9.5c0 -4 -1.33301 -7.33301 -4 -10s-6 -4 -10 -4h-126v-113c0 -3.33301 -1.5 -6.5 -4.5 -9.5s-6.16699 -4.5 -9.5 -4.5c-4 0 -7.33301 1.5 -10 4.5s-4 6.16699 -4 9.5v113h-112v-113
c0 -3.33301 -1.5 -6.5 -4.5 -9.5s-6.16699 -4.5 -9.5 -4.5c-4 0 -7.33301 1.5 -10 4.5s-4 6.16699 -4 9.5v113h-126c-0.666992 -0.666992 -1.33398 -1 -2.00098 -1c-4 0 -7.33301 1.5 -10 4.5s-4 6.5 -4 10.5c0 3.33301 1.33301 6.33301 4 9s5.66699 4.33398 9 5.00098h129
v140h-126c-0.666992 -0.666992 -1.33398 -1 -2.00098 -1c-4 0 -7.33301 1.5 -10 4.5s-4 6.5 -4 10.5c0 3.33301 1.33301 6.33301 4 9s5.66699 4.33398 9 5.00098h129v112c0 6.66699 3 11.334 9 14.001h2c0.666992 0.666992 1.66699 1 3 1zM218.002 228.996h112v140h-112
v-140z" />
    <glyph glyph-name="glyph_126" unicode="$" horiz-adv-x="601" 
d="M278 988c4 0 7.33203 -1.50195 9.99902 -4.50195s4 -6.16699 4 -9.5v-128c8 0.666992 12.667 1 14 1c16.667 0 33 -2.33301 49 -7v133c0 6.66699 3 11.334 9 14.001h5c4 0 7.33301 -1.33301 10 -4s4 -6 4 -10v-142c35.333 -15.333 64 -39.333 86 -72s33 -68.667 33 -108
v-1c0 -3.33301 -1.33301 -6.5 -4 -9.5s-6 -4.5 -10 -4.5s-7.33301 1.5 -10 4.5s-4 6.16699 -4 9.5v1c0 32 -8.33301 61.333 -25 88s-38.667 47 -66 61v-329c51.333 -16.667 93.333 -47.167 126 -91.5s49 -93.833 49 -148.5c0 -56 -16.333 -106 -49 -150
s-74.667 -74.333 -126 -91v-138c0 -3.33301 -1.33301 -6.5 -4 -9.5s-6 -4.5 -10 -4.5s-7.33301 1.5 -10 4.5s-4 6.16699 -4 9.5v131c-16 -2.66699 -32.333 -4 -49 -4h-14v-127c0 -3.33301 -1.33301 -6.5 -4 -9.5s-6 -4.5 -10 -4.5s-7.33301 1.5 -10 4.5s-4 6.16699 -4 9.5
v130c-60 10 -110 38.5 -150 85.5s-60 101.5 -60 163.5c0 4 1.33301 7.33301 4 10s6 4 10 4s7.33301 -1.33301 10 -4s4 -6 4 -10c0 -54.667 17.333 -102.667 52 -144s78 -67 130 -77v450c-44.667 9.33301 -81.5 31.833 -110.5 67.5s-43.5 76.667 -43.5 123
s14.5 87.333 43.5 123s65.833 58.167 110.5 67.5v132c0 6.66699 3.33301 11.334 10 14.001l1 0.5c0.666992 0.333008 1.33398 0.5 2.00098 0.5h1zM291.999 817.998v-334.999h21c14 -0.666992 28 -2.33398 42 -5.00098v333c-16 5.33301 -32.333 8 -49 8
c-2 0 -6.66699 -0.333008 -14 -1zM263.999 487.999v325c-36.667 -9.33301 -66.834 -29 -90.501 -59s-35.5 -64.5 -35.5 -103.5s11.833 -73.5 35.5 -103.5s53.834 -49.667 90.501 -59zM291.999 6.99902h14.001c16.667 0 33 1.66699 49 5v437
c-14 3.33301 -28.333 5.33301 -43 6c-0.666992 -0.666992 -1.33398 -1 -2.00098 -1s-1 0.333008 -1 1h-17v-448zM383 19.999c43.333 16 78.666 43.168 105.999 81.501s41 81.5 41 129.5c0 47.333 -13.667 90.166 -41 128.499s-62.666 65.5 -105.999 81.5v-421z" />
    <glyph glyph-name="glyph_83" unicode="%" horiz-adv-x="638" 
d="M141 862c14.667 0 27.6641 -6.99902 38.9971 -20.999c12.667 -15.333 20.334 -36.333 23.001 -63c2.66699 -30.667 -1.83301 -59.167 -13.5 -85.5s-26.667 -43.333 -45 -51s-35.166 -3.83398 -50.499 11.499s-24.5 38.333 -27.5 69s1.16699 59.167 12.5 85.5
s26 43.5 44 51.5c4.66699 1.33301 9.33398 2.33301 14.001 3h4zM596.997 862.001c4 0 7.33301 -1.33301 10 -4s4 -6 4 -10c0 -2.66699 -0.666992 -5.33398 -2 -8.00098l-560 -840c-2.66699 -4 -6.66699 -6 -12 -6c-4 0 -7.33301 1.33301 -10 4s-4 6 -4 10
c0 2.66699 0.666992 5.33398 2 8.00098l560 840c2 3.33301 5 5.33301 9 6h3zM127.997 806.001c-11.333 -4.66699 -20.168 -14.334 -26.501 -29.001s-8.83301 -29.334 -7.5 -44.001s6.5 -26 15.5 -34s19.167 -9.66699 30.5 -5s20.333 14.334 27 29.001
s9.33398 29.334 8.00098 44.001c-1.33301 12.667 -5.5 23 -12.5 31s-15.5 11.667 -25.5 11zM566.995 134.001c2.66699 -30.667 -1.83496 -59.168 -13.502 -85.501s-26.5 -43.166 -44.5 -50.499c-6.66699 -2.66699 -12.667 -4 -18 -4c-12 0 -23 5 -33 15
c-15.333 15.333 -24.5 38.333 -27.5 69s1.16699 59.167 12.5 85.5s26 43.5 44 51.5c4.66699 1.33301 9.33398 2.33301 14.001 3c16 1.33301 30.333 -5.66699 43 -21s20.334 -36.333 23.001 -63zM491.993 162c-11.333 -4.66699 -20.168 -14.334 -26.501 -29.001
s-8.83301 -29.334 -7.5 -44.001s6.5 -26 15.5 -34s19.167 -9.66699 30.5 -5s20.333 14.334 27 29.001s9.33398 29.334 8.00098 44.001c-1.33301 12.667 -5.5 23 -12.5 31s-15.5 11.667 -25.5 11z" />
    <glyph glyph-name="ampersand" unicode="&#x26;" horiz-adv-x="746" 
d="M459 783c28 -32.667 36.9961 -70.6641 26.9961 -113.997c-10.667 -41.333 -36 -75.666 -76 -102.999c-1.33301 -0.666992 -2.33301 -1 -3 -1h-1v-1c-17.333 -11.333 -62.666 -37 -135.999 -77l232 -295c16.667 51.333 19.334 104.666 8.00098 159.999v1
c-1.33301 8 1.33398 12.667 8.00098 14h3c2.66699 0 5.66699 -1.33301 9 -4s5.33301 -5.66699 6 -9c12.667 -64.667 7.66699 -127 -15 -187l78 -100v0c23.333 -29.333 43.666 -43 60.999 -41c15.333 1.33301 30 15.333 44 42c2 4 5.33301 6 10 6
c3.33301 0 6.5 -1.5 9.5 -4.5s4.5 -6.5 4.5 -10.5c0.666992 -2.66699 0.666992 -5.33398 0 -8.00098c-18 -33.333 -38.667 -51 -62 -53h-6c-24 0 -50.333 17.333 -79 52l-70 89c-16.667 -34.667 -38.667 -63.834 -66 -87.501s-58.666 -39.5 -93.999 -47.5
c-1.33301 -0.666992 -2.66602 -1 -3.99902 -1h-2c-19.333 -5.33301 -38.666 -8 -57.999 -8c-16 0 -32 2 -48 6c-36 8.66699 -68.833 23.167 -98.5 43.5s-55 45.5 -76 75.5s-34.5 61 -40.5 93l-1 8c-6.66699 46 1.66602 88.333 24.999 127c20.667 34 53 66.667 97 98
c22 15.333 50.333 32.666 85 51.999l-69 89c-2 1.33301 -3 3 -3 5c-22 31.333 -28.333 66 -19 104c10 41.333 35 75.333 75 102c36.667 24.667 76 37 118 37h13c48 -2.66699 86 -20 114 -52zM230.996 774.003c-36.667 -24 -58.999 -53.667 -66.999 -89
c-8 -33.333 -1.66699 -62 19 -86c1.33301 -1.33301 2.33301 -3 3 -5l66 -84c79.333 43.333 125.666 69.333 138.999 78c0.666992 1.33301 1.66699 2.33301 3 3c36 24 58.333 53.333 67 88c8 33.333 1.33301 62.333 -20 87c-22 25.333 -53.333 39 -94 41
c-41.333 2 -80 -9 -116 -33zM160.997 421.003c-42 -29.333 -72.334 -59.668 -91.001 -91.001c-21.333 -36 -28.333 -74.333 -21 -115c5.33301 -27.333 17.333 -54 36 -80s41.167 -48.167 67.5 -66.5s55.333 -31.666 87 -39.999s63.167 -7.83301 94.5 1.5h6l1 1
c33.333 8 63 23.667 89 47s46.333 52.333 61 87l-242 310c-37.333 -20.667 -66.666 -38.667 -87.999 -54z" />
    <glyph glyph-name="quotesingle" unicode="'" horiz-adv-x="98" 
d="M14 531c-3.33301 0 -6.50098 1.33398 -9.50098 4.00098s-4.5 6 -4.5 10c0 2.66699 1 5 3 7l41 63c-8.66699 2.66699 -15.667 7.66699 -21 15s-8 15.666 -8 24.999c0 11.333 3.83301 20.833 11.5 28.5s17.167 11.5 28.5 11.5s20.833 -3.83301 28.5 -11.5
s11.5 -17.167 11.5 -28.5c0 -12 -3.66699 -21.667 -11 -29l-2 -2l-56 -87c-1.33301 -2.66699 -3.66602 -4.66699 -6.99902 -6h-5z" />
    <glyph glyph-name="glyph_104" unicode="(" horiz-adv-x="200" 
d="M158 962c0 -6 -1.33398 -11.002 -4.00098 -15.002s-6 -6 -10 -6c-18 0 -33.167 -7.16699 -45.5 -21.5s-18.5 -31.166 -18.5 -50.499v-1040c0.666992 -1.33301 1 -3 1 -5c0 -19.333 6 -36.166 18 -50.499s27 -21.5 45 -21.5c4 0 7.33301 -2 10 -6s4 -9 4 -15
s-1.33301 -11 -4 -15s-5.66699 -6 -9 -6c-21.333 0 -40.666 8.5 -57.999 25.5s-28.333 38.833 -33 65.5v1c-1.33301 4 -2 8 -2 12v1066c0 2 0.666992 4.66699 2 8v5c4.66699 26.667 15.5 48.167 32.5 64.5s36.167 24.5 57.5 24.5c4 0 7.33301 -2 10 -6s4 -8.66699 4 -14z
" />
    <glyph glyph-name="glyph_105" unicode=")" horiz-adv-x="146" 
d="M31 982c21.333 0 40.499 -8.16699 57.499 -24.5s27.833 -37.833 32.5 -64.5v-4l0.5 -1.5l0.5 -1.5c0.666992 -1.33301 1 -3.33301 1 -6v-1064c0 -1.33301 -0.333008 -3.33301 -1 -6l-0.5 -1.5l-0.5 -1.5v-4c-4.66699 -25.333 -15.667 -46.666 -33 -63.999
s-36.666 -26 -57.999 -26c-3.33301 0 -6.33301 2 -9 6s-4 9 -4 15s1.33301 11 4 15s6 6 10 6c18 0 33.167 7 45.5 21s18.5 31 18.5 51v1042c0 19.333 -6.16699 36.166 -18.5 50.499s-27.5 21.5 -45.5 21.5h-2c-4 0 -7.33301 2 -10 6s-4 9 -4 15c0 12 4 18.667 12 20h4z" />
    <glyph glyph-name="glyph_85" unicode="*" horiz-adv-x="545" 
d="M241 613c4 0 7.33496 -1.49902 10.002 -4.49902s4 -6.16699 4 -9.5v-165l116 116c1.33301 2 3.66602 3.33301 6.99902 4h3c4 0 7.33301 -1.33301 10 -4s4 -6 4 -10s-1.33301 -7.33301 -4 -10l-117 -116h165c4 0 7.33301 -1.33301 10 -4s4 -6 4 -10
s-1.33301 -7.33301 -4 -10s-6 -4 -10 -4h-165l117 -116c3.33301 -3.33301 5 -7 5 -11s-1.5 -7.33301 -4.5 -10s-6.16699 -4 -9.5 -4c-4.66699 0 -8.33398 1.66699 -11.001 5l-116 116v-165c0 -3.33301 -1.33301 -6.5 -4 -9.5s-6 -4.5 -10 -4.5
c-3.33301 0 -6.5 1.33301 -9.5 4s-4.5 5.66699 -4.5 9c0 0.666992 -0.333008 1.66699 -1 3v3h1v161l-116 -117c-2.66699 -3.33301 -6.33398 -5 -11.001 -5c-4 0 -7.33301 1.33301 -10 4s-4 6 -4 10s1.66699 7.66699 5 11l116 116h-166c-4 0 -7.33301 1.33301 -10 4
s-4 6 -4 10c0 3.33301 1.33301 6.5 4 9.5s5.66699 4.5 9 4.5h167l-116 116c-3.33301 3.33301 -5 6.66602 -5 9.99902c0 7.33301 3.66699 12 11 14h3c4.66699 0 8.33398 -1.33301 11.001 -4l116 -117v166c0 7.33301 3.66699 12 11 14h3z" />
    <glyph glyph-name="glyph_119" unicode="+" horiz-adv-x="601" 
d="M298 621c4 0 7.33496 -1.50195 10.002 -4.50195s4 -6.16699 4 -9.5v-197h196c4 0 7.33301 -1.5 10 -4.5s4 -6.16699 4 -9.5c0 -4 -1.33301 -7.33301 -4 -10s-6 -4 -10 -4h-196v-197c0 -3.33301 -1.33301 -6.5 -4 -9.5s-6 -4.5 -10 -4.5s-7.33301 1.5 -10 4.5
s-4 6.16699 -4 9.5v197h-196c-0.666992 -0.666992 -1.33398 -1 -2.00098 -1c-4 0 -7.33301 1.5 -10 4.5s-4 6.5 -4 10.5c0 3.33301 1.16699 6.33301 3.5 9s5.16602 4.33398 8.49902 5.00098h200v196c0 6.66699 3 11.334 9 14.001h2c1.33301 0.666992 2.33301 1 3 1z" />
    <glyph glyph-name="comma" unicode="," horiz-adv-x="130" 
d="M26 -79c-3.33301 0 -6.50098 1.33398 -9.50098 4.00098s-4.5 6 -4.5 10c0 2.66699 1 5 3 7l41 63c-8.66699 2.66699 -15.667 7.66699 -21 15s-8 15.666 -8 24.999c0 11.333 3.83301 20.833 11.5 28.5s17.167 11.5 28.5 11.5s20.833 -3.83301 28.5 -11.5
s11.5 -17.167 11.5 -28.5c0 -12 -3.66699 -21.667 -11 -29l-2 -2l-56 -87c-1.33301 -2.66699 -3.66602 -4.66699 -6.99902 -6h-5z" />
    <glyph glyph-name="glyph_90" unicode="-" horiz-adv-x="550" 
d="M477 419c4 0 7.33301 -1.33301 10 -4s4 -6 4 -10s-1.33301 -7.33301 -4 -10s-6 -4 -10 -4h-422c-4 0 -7.33301 1.33301 -10 4s-4 6 -4 10c0 8 4 12.667 12 14h424z" />
    <glyph glyph-name="period" unicode="." horiz-adv-x="130" 
d="M106 46c0 -11.333 -4.16699 -21 -12.5 -29s-17.833 -12 -28.5 -12c-11.333 0 -21 4 -29 12s-12 17.667 -12 29s4 21 12 29s17.667 12 29 12c10.667 0 20.167 -4 28.5 -12s12.5 -17.667 12.5 -29z" />
    <glyph glyph-name="glyph_103" unicode="/" horiz-adv-x="499" 
d="M383 862c4 0 7.33301 -1.5 10 -4.5s4 -6.16699 4 -9.5c0 -2 -0.333008 -4 -1 -6l-280 -840c-2 -6.66699 -6.33301 -10 -13 -10c-4 0 -7.33301 1.5 -10 4.5s-4 6.5 -4 10.5v4l280 840c1.33301 4.66699 4.66602 8 9.99902 10h2c0.666992 0.666992 1.33398 1 2.00098 1z" />
    <glyph glyph-name="glyph_53" unicode="0" horiz-adv-x="600" 
d="M531 551c2 -22.667 3.00098 -45 3.00098 -67c0 -54 -5.66699 -107.667 -17 -161c-16 -75.333 -41 -140.166 -75 -194.499s-72.333 -91.833 -115 -112.5c-22 -10.667 -43.333 -16 -64 -16s-41 5.33301 -61 16c-40 20 -73.5 57.167 -100.5 111.5
s-43.833 120.166 -50.5 197.499c-2 22 -3 44.333 -3 67c0 54 5.66699 107.667 17 161c16 74.667 41 139.167 75 193.5s72.667 91.833 116 112.5c21.333 10 42.666 15 63.999 15h8c52 -4 96.833 -35.333 134.5 -94s60.5 -135 68.5 -229zM258.001 820
c-40 -19.333 -75.668 -54.334 -107.001 -105.001s-54.333 -109.667 -69 -177s-19 -135.666 -13 -204.999c4.66699 -51.333 14.667 -98 30 -140s34.5 -75.167 57.5 -99.5s48.833 -40.666 77.5 -48.999s58.334 -4.83301 89.001 10.5c40.667 19.333 76.5 54.333 107.5 105
s54 109.834 69 177.501s19.5 136.167 13.5 205.5c-7.33301 84 -28.333 152.667 -63 206s-76 81.666 -124 84.999c-22 1.33301 -44.667 -3.33398 -68 -14.001z" />
    <glyph glyph-name="glyph_54" unicode="1" horiz-adv-x="499" 
d="M344 872l2.00195 -0.000976562l1 -1h2c0 -0.666992 0.333008 -1 1 -1h1c1.33301 -1.33301 2.66602 -3 3.99902 -5v-1l2 -6v-847c0 -3.33301 -1.5 -6.5 -4.5 -9.5s-6.16699 -4.5 -9.5 -4.5c-4 0 -7.33301 1.5 -10 4.5s-4 6.16699 -4 9.5v822l-214 -128
c-2 -1.33301 -4.33301 -2 -7 -2c-4 0 -7.5 1.33301 -10.5 4s-4.5 6 -4.5 10c0 5.33301 2.33301 9.33301 7 12l231 138c2 2.66699 4.33301 4.33398 7 5.00098h2v1c1.33301 0 2.66602 -0.333008 3.99902 -1z" />
    <glyph glyph-name="glyph_55" unicode="2" horiz-adv-x="600" 
d="M342 874c62.667 0 113.334 -22.667 152.001 -68c36.667 -44 52.167 -97.167 46.5 -159.5s-30.5 -119.166 -74.5 -170.499v-1l-1 -1c-0.666992 -1.33301 -1.66699 -2.33301 -3 -3l-357 -447h441c4 0 7.33301 -1.5 10 -4.5s4 -6.16699 4 -9.5
c0 -4 -1.33301 -7.33301 -4 -10s-6 -4 -10 -4h-475l-1 1c-1.33301 0 -2.33301 0.333008 -3 1h-1v1h-1c-2.66699 2.66699 -4 6 -4 10c0 3.33301 0.666992 6.33301 2 9l4 4l366 456v1c0 0.666992 0.333008 1 1 1v1c1.33301 1.33301 2.33301 2.66602 3 3.99902
c0.666992 0 1.5 0.5 2.5 1.5s1.5 1.83301 1.5 2.5l1 1c41.333 46.667 64.833 98.5 70.5 155.5s-7.5 104.5 -39.5 142.5c-34.667 41.333 -82 60.666 -142 57.999s-114.833 -27 -164.5 -73s-79.5 -100.167 -89.5 -162.5s2.66699 -114.166 38 -155.499
c2.66699 -2.66699 4 -6 4 -10s-1.33301 -7.33301 -4 -10s-6 -4 -10 -4c-4.66699 0 -8.33398 2 -11.001 6c-32 38 -48 82.667 -48 134c0 13.333 1 27.333 3 42c10.667 69.333 43.334 129.666 98.001 180.999c55.333 50.667 116.666 77.334 183.999 80.001h11z" />
    <glyph glyph-name="glyph_56" unicode="3" horiz-adv-x="600" 
d="M368 866c53.333 0 93.6709 -18.002 121.004 -54.002c30 -38.667 35.667 -86.667 17 -144c-10.667 -34 -29 -66 -55 -96s-56.667 -55 -92 -75l14 -2c47.333 -8 87.166 -28.667 119.499 -62s50.833 -75 55.5 -125c0.666992 -8.66699 1 -17.667 1 -27
c0 -56.667 -18.333 -110 -55 -160c-43.333 -58.667 -99.333 -96.667 -168 -114c-21.333 -4.66699 -42 -7 -62 -7c-33.333 0 -65.333 7 -96 21c-48.667 23.333 -83 60.333 -103 111c-0.666992 1.33301 -1 3 -1 5c0 4 1.5 7.33301 4.5 10s6.16699 4 9.5 4
c7.33301 0 12 -3.33301 14 -10c16.667 -44 46 -75.833 88 -95.5s88.333 -23.167 139 -10.5c61.333 14.667 111.666 48.667 150.999 102s56.166 109.5 50.499 168.5s-31.834 103.833 -78.501 134.5s-100.334 38.334 -161.001 23.001h-3c-1.33301 0 -2.33301 -0.333008 -3 -1
h-1c-1.33301 -0.666992 -2.33301 -1 -3 -1c-4 0 -7.5 1.5 -10.5 4.5s-4.5 6.5 -4.5 10.5c0 7.33301 4 12 12 14c46.667 10 90.167 32.833 130.5 68.5s67.166 74.834 80.499 117.501c16 48 12 87.667 -12 119s-61 45.666 -111 42.999
c-51.333 -2.66699 -101.666 -23.167 -150.999 -61.5s-82 -82.166 -98 -131.499c-0.666992 -7.33301 -5 -11 -13 -11c-4 0 -7.33301 1.33301 -10 4s-4 6 -4 10c0 2 0.333008 4 1 6c18 56 53.333 104.5 106 145.5s108.334 63.167 167.001 66.5h14z" />
    <glyph glyph-name="glyph_57" unicode="4" horiz-adv-x="601" 
d="M465 871v-0.999023h3v-1h1c0 -0.666992 0.333008 -1 1 -1h1c1.33301 -1.33301 2.33301 -3 3 -5c0.666992 -0.666992 1 -1.33398 1 -2.00098v-602h80c4 0 7.33301 -1.33301 10 -4s4 -6 4 -10s-1.33301 -7.33301 -4 -10s-6 -4 -10 -4h-80v-222
c0 -3.33301 -1.33301 -6.5 -4 -9.5s-6 -4.5 -10 -4.5s-7.33301 1.5 -10 4.5s-4 6.16699 -4 9.5v222h-414c-0.666992 0 -1.33398 0.333008 -2.00098 1h-1v1c-0.666992 0 -1 0.333008 -1 1h-2v1l-2 2v1c0 0.666992 -0.333008 1.33398 -1 2.00098h-1v8l1 1v2l2 2v1
c0.666992 0.666992 1.33398 1 2.00098 1l1 1c0 0.666992 0.333008 1 1 1l417 603c0.666992 1.33301 1.66699 2.66602 3 3.99902v1c2 2.66699 4.33301 4.66699 7 6h8zM65 259.001h382v552z" />
    <glyph glyph-name="glyph_58" unicode="5" horiz-adv-x="600" 
d="M101 887c2 0 3.66504 -0.336914 4.99805 -1.00391h372c4 0 7.33301 -1.33301 10 -4s4 -6 4 -10s-1.33301 -7.33301 -4 -10s-6 -4 -10 -4h-362v-424c28 39.333 62.167 69.833 102.5 91.5s81.5 31.834 123.5 30.501c33.333 -0.666992 65 -8.66699 95 -24
c59.333 -32 97 -83.667 113 -155c4.66699 -22 7 -43.667 7 -65c0 -50 -12.667 -99 -38 -147c-24 -45.333 -56 -82.5 -96 -111.5s-81.667 -45.833 -125 -50.5c-8.66699 -0.666992 -17 -1 -25 -1c-34.667 0 -68.667 7.66699 -102 23c-31.333 16.667 -57 40 -77 70
c-2 2.66699 -3 5.33398 -3 8.00098c0 4 1.5 7.33301 4.5 10s6.16699 4 9.5 4c5.33301 0 9.33301 -2 12 -6c18 -26.667 40.333 -47 67 -61c51.333 -28 107.5 -29.5 168.5 -4.5s108.167 69.167 141.5 132.5c33.333 64 43 128 29 192s-47 109.667 -99 137
c-51.333 28 -107.166 30 -167.499 6s-107.166 -67.333 -140.499 -130c-0.666992 0 -1 -0.166992 -1 -0.5v-0.5v-1l-1 -1c-0.666992 -1.33301 -1 -2.33301 -1 -3c-2 -2 -4 -3.33301 -6 -4c-0.666992 -0.666992 -1.33398 -1 -2.00098 -1h-1
c-0.666992 -0.666992 -1.66699 -1 -3 -1c-7.33301 0 -11.666 3.66699 -12.999 11v1c-0.666992 0.666992 -1 1.33398 -1 2.00098s0.333008 1.66699 1 3v484c-0.666992 0.666992 -1 1.33398 -1 2.00098c0 6.66699 3.66699 11 11 13h3z" />
    <glyph glyph-name="glyph_59" unicode="6" horiz-adv-x="600" 
d="M400 860c2 0 3.66602 -0.331055 4.99902 -0.998047l2 -2c0 0.666992 0.166992 1 0.5 1s0.833008 -0.333008 1.5 -1s1 -1.33398 1 -2.00098c0.666992 -0.666992 1.16699 -1 1.5 -1s0.5 -0.333008 0.5 -1c1.33301 -2 2 -4.33301 2 -7s-1 -5.33398 -3 -8.00098l-230 -396
c30 20.667 62.333 35.334 97 44.001c34 8.66699 66.667 10.667 98 6c47.333 -8 87.333 -28.833 120 -62.5s51.334 -75.167 56.001 -124.5c0.666992 -8.66699 1 -17.667 1 -27c0 -56.667 -18.667 -110.334 -56 -161.001c-43.333 -58.667 -99 -96.334 -167 -113.001
c-22 -5.33301 -43.333 -8 -64 -8c-42.667 0 -82.334 12 -119.001 36c-54 35.333 -84.333 86.333 -91 153c-0.666992 8.66699 -1 17 -1 25c0 42 10.667 83.333 32 124c0.666992 2 1.33398 3.66699 2.00098 5l299 513c1.33301 4.66699 4.33301 7.33398 9 8.00098h3z
M284.999 459.002c-6.66699 -1.33301 -14.334 -3.66699 -23.001 -7c-8 -2.66699 -15 -5.33398 -21 -8.00098c-55.333 -25.333 -97.666 -65 -126.999 -119c-0.666992 0 -1 -0.333008 -1 -1c-24 -44 -33.667 -89.333 -29 -136c6 -59.333 32.167 -104.166 78.5 -134.499
s100 -38 161 -23s111.167 49.333 150.5 103s56 110.167 50 169.5c-4 43.333 -19.833 79.5 -47.5 108.5s-62.167 46.833 -103.5 53.5c-14 2 -28.333 2.33301 -43 1c-14.667 -0.666992 -29.667 -3 -45 -7z" />
    <glyph glyph-name="glyph_60" unicode="7" horiz-adv-x="600" 
d="M544 865l1.00098 -0.998047h1v-1h2l2 -2c0 -0.666992 0.333008 -1.33398 1 -2.00098v-1h1c0.666992 -0.666992 1 -1.66699 1 -3l1 -1v-7l-1 -1c0 -0.666992 -0.333008 -1.33398 -1 -2.00098c0 -1.33301 -0.333008 -2.33301 -1 -3l-469 -844
c-2.66699 -5.33301 -6.66699 -8 -12 -8c-4 0 -7.33301 1.5 -10 4.5s-4 6.5 -4 10.5c0 2 0.666992 4.33301 2 7l458 826h-446c-0.666992 -0.666992 -1.33398 -1 -2.00098 -1c-4 0 -7.33301 1.5 -10 4.5s-4 6.5 -4 10.5c0 8 4 12.667 12 14h478z" />
    <glyph glyph-name="glyph_61" unicode="8" horiz-adv-x="601" 
d="M404 847c26 -5.33301 48.3408 -15.499 67.0078 -30.499s31.667 -33.833 39 -56.5s8.66602 -46.667 3.99902 -72c-9.33301 -52.667 -38.333 -101 -87 -145c-20.667 -18.667 -43.334 -34.667 -68.001 -48c0.666992 0 2 -0.166992 4 -0.5s3.33301 -0.5 4 -0.5
c47.333 -8 87.166 -28.833 119.499 -62.5s50.833 -75.167 55.5 -124.5c0.666992 -9.33301 1 -18.333 1 -27c0 -57.333 -18.333 -111 -55 -161c-43.333 -58.667 -99 -96.334 -167 -113.001c-22.667 -5.33301 -44.334 -8 -65.001 -8c-42.667 0 -82.334 12 -119.001 36
c-54 35.333 -84.333 86.666 -91 153.999c-0.666992 8.66699 -1 17.334 -1 26.001c0 44 11.667 87 35 129c27.333 49.333 65.666 88 114.999 116c-30.667 3.33301 -56.334 13.666 -77.001 30.999c-18.667 14.667 -31.667 33.334 -39 56.001s-8.66602 46.667 -3.99902 72
c9.33301 52.667 38.166 101 86.499 145s102.166 71.667 161.499 83c15.333 2.66699 29 4 41 4c12.667 0 26 -1 40 -3zM329.008 818.001c-54.667 -10 -104.168 -35.167 -148.501 -75.5s-70.5 -83.166 -78.5 -128.499c-8 -44 3 -78.333 33 -103
c30.667 -24.667 72.334 -32 125.001 -22c54.667 9.33301 104.167 34.166 148.5 74.499s70.5 83.5 78.5 129.5c7.33301 44 -3.66699 78 -33 102c-16 12.667 -34.333 20.667 -55 24c-12 2 -23.333 3 -34 3c-10 0 -22 -1.33301 -36 -4zM275.007 462.001
c-61.333 -15.333 -111.666 -49.667 -150.999 -103s-56 -109.5 -50 -168.5s32.167 -103.833 78.5 -134.5s100 -38.334 161 -23.001s111.333 49.5 151 102.5s56.5 109.167 50.5 168.5c-4.66699 44 -20.834 80.5 -48.501 109.5s-62.167 46.833 -103.5 53.5
c-14 2 -28.333 2.66699 -43 2c-14.667 -1.33301 -29.667 -3.66602 -45 -6.99902z" />
    <glyph glyph-name="glyph_62" unicode="9" horiz-adv-x="600" 
d="M341 873c13.333 0 25.9971 -0.998047 37.9971 -2.99805c47.333 -7.33301 87.333 -28 120 -62s51.334 -76.333 56.001 -127c0.666992 -8.66699 1 -17.334 1 -26.001c0 -41.333 -10.667 -83 -32 -125v-2h-0.5c-0.333008 0 -0.5 -0.333008 -0.5 -1
c-0.666992 -0.666992 -1.16699 -1.33398 -1.5 -2.00098s-2.83301 -5 -7.5 -13l-291 -509c-1.33301 -6.66699 -5.66602 -10 -12.999 -10c-4 0 -7.33301 1.33301 -10 4s-4 5.83398 -4 9.50098s1.33301 6.83398 4 9.50098l230 406
c-31.333 -22.667 -63.666 -38.334 -96.999 -47.001c-68 -17.333 -129 -7.83301 -183 28.5s-84.333 88.5 -91 156.5c-0.666992 9.33301 -1 18.333 -1 27c0 58 18.667 112.667 56 164c42.667 59.333 98 97.666 166 114.999c16 4 33 6.33301 51 7h10zM286.997 839.002
c-60.667 -15.333 -110.667 -50.1689 -150 -104.502s-56 -111.666 -50 -171.999s32 -106 78 -137s99.667 -38.667 161 -23s111.666 50.5 150.999 104.5s56 111.333 50 172c-4 44.667 -20 81.834 -48 111.501s-62.667 47.5 -104 53.5c-13.333 2 -27.666 2.66699 -42.999 2
c-14.667 -0.666992 -29.667 -3 -45 -7z" />
    <glyph glyph-name="glyph_150" unicode=":" horiz-adv-x="201" 
d="M97 3c-11.333 0 -21 4 -29 12s-12 17.667 -12 29s4 21 12 29s17.5 12 28.5 12s20.667 -4 29 -12s12.5 -17.667 12.5 -29s-4.16699 -21 -12.5 -29s-17.833 -12 -28.5 -12zM139 445c0 -11.333 -3.99902 -21 -11.999 -29s-17.5 -12 -28.5 -12s-20.667 4 -29 12
s-12.5 17.667 -12.5 29s4.16699 20.833 12.5 28.5s18.166 11.5 29.499 11.5c10.667 0 20 -3.83301 28 -11.5s12 -17.167 12 -28.5z" />
    <glyph glyph-name="glyph_151" unicode=";" horiz-adv-x="201" 
d="M135 49c0 -12 -5 -22.001 -15 -30.001l-54 -86c-2.66699 -4.66699 -7 -7 -13 -7c-4 0 -7.33301 1.33301 -10 4s-4 6 -4 10c0 2.66699 1 5.33398 3 8.00098l40 63c-8 2.66699 -14.833 7.5 -20.5 14.5s-8.5 14.833 -8.5 23.5c0 11.333 4.16699 21.166 12.5 29.499
s18 12.5 29 12.5s20.5 -4.16699 28.5 -12.5s12 -18.166 12 -29.499zM139 444.999c0 -11.333 -3.99902 -21 -11.999 -29s-17.5 -12 -28.5 -12s-20.667 4 -29 12s-12.5 17.667 -12.5 29s4.16699 20.833 12.5 28.5s18.166 11.5 29.499 11.5c10.667 0 20 -3.83301 28 -11.5
s12 -17.167 12 -28.5z" />
    <glyph glyph-name="glyph_106" unicode="&#x3c;" horiz-adv-x="701" 
d="M632 865c4 0 7.33203 -1.33691 9.99902 -4.00391s4 -6 4 -10c0 -6.66699 -3 -11 -9 -13l-545 -409l545 -408c4 -3.33301 6 -7.33301 6 -12c0 -4 -1.33301 -7.33301 -4 -10s-6 -4 -10 -4c-3.33301 0 -6.33301 1 -9 3l-557 418
c-3.33301 1.33301 -5.66602 3.33301 -6.99902 6v1c-0.666992 0.666992 -1 1.33398 -1 2.00098v1l-1 1v4c0.666992 0.666992 1 1.33398 1 2.00098v1l1 1v1l2 2c0 0.666992 0.333008 1.33398 1 2.00098l1 1h1l2 1c0 0.666992 0.333008 1 1 1l556 418
c1.33301 0.666992 3 1.33398 5 2.00098c2 1.33301 4 2 6 2h1z" />
    <glyph glyph-name="glyph_120" unicode="=" horiz-adv-x="701" 
d="M560 488c3.33301 0 6.5 -1.33301 9.5 -4s4.5 -6 4.5 -10s-1.5 -7.33301 -4.5 -10s-6.16699 -4 -9.5 -4h-423c-4 0 -7.5 1.33301 -10.5 4s-4.5 6 -4.5 10c0 8 4 12.667 12 14h426zM560 348c3.33301 0 6.5 -1.33301 9.5 -4s4.5 -6 4.5 -10s-1.5 -7.33301 -4.5 -10
s-6.16699 -4 -9.5 -4h-423c-4 0 -7.5 1.33301 -10.5 4s-4.5 6 -4.5 10c0 8 4 12.667 12 14h426z" />
    <glyph glyph-name="glyph_107" unicode="&#x3e;" horiz-adv-x="701" 
d="M87 864c3.33301 0 6.33594 -1 9.00293 -3l554 -415h1c3.33301 -0.666992 6.16602 -2.33398 8.49902 -5.00098s3.5 -5.66699 3.5 -9s-1 -6.33301 -3 -9c0 -0.666992 -0.333008 -1.33398 -1 -2.00098v-1h-1c-0.666992 -0.666992 -1.33398 -1 -2.00098 -1l-2 -1l-2 -2
l-556 -417c-2.66699 -2 -5.33398 -3 -8.00098 -3c-4 0 -7.33301 1.33301 -10 4s-4 6 -4 10c0 4.66699 1.66699 8.33398 5 11.001l545 409l-545 409c-4 2.66699 -6 6.33398 -6 11.001c0 7.33301 3.33301 12 10 14h4z" />
    <glyph glyph-name="glyph_133" unicode="?" horiz-adv-x="448" 
d="M406 659c0 -50 -17.667 -93.333 -53 -130s-78 -55.667 -128 -57h-6c-32.667 0 -60.667 -11.5 -84 -34.5s-35 -50.833 -35 -83.5s11.667 -60.5 35 -83.5s51.5 -34.5 84.5 -34.5s61 11.5 84 34.5s34.5 50.833 34.5 83.5c0 4 1.33301 7.33301 4 10s5.83398 4 9.50098 4
s7 -1.33301 10 -4s4.5 -6 4.5 -10c0 -40 -14.333 -74.333 -43 -103s-63.167 -43 -103.5 -43s-75 14.333 -104 43s-43.5 63 -43.5 103s14.5 74.333 43.5 103s63.5 43 103.5 43h5c42.667 1.33301 79 17.5 109 48.5s45 67.833 45 110.5c0 44 -15.5 81.5 -46.5 112.5
s-68.5 46.5 -112.5 46.5s-81.5 -15.5 -112.5 -46.5s-46.5 -68.5 -46.5 -112.5c0 -4 -1.33301 -7.33301 -4 -10s-6 -4 -10 -4s-7.33301 1.33301 -10 4s-4 6 -4 10c0 52 18.333 96.167 55 132.5s81 54.5 133 54.5c51.333 0 95.166 -18.167 131.499 -54.5
s54.5 -80.5 54.5 -132.5zM224 56c11.333 0 21 -4 29 -12s12 -17.667 12 -29s-4 -21 -12 -29s-17.667 -12 -29 -12s-20.833 4 -28.5 12s-11.5 17.667 -11.5 29c0 10 3 18.833 9 26.5s13.667 12.5 23 14.5h8z" />
    <glyph glyph-name="glyph_111" unicode="@" horiz-adv-x="604" 
d="M294 487c5.33301 0 11.3301 -0.330078 17.9971 -0.99707c34 -2.66699 65 -12 93 -28c22.667 -13.333 42.667 -31 60 -53s30.333 -46.333 39 -73c8.66699 -24 13 -47.333 13 -70c0 -33.333 -10 -64.666 -30 -93.999c-17.333 -25.333 -41.666 -41 -72.999 -47
c-17.333 -4 -32.333 -2.66699 -45 4c-13.333 6.66699 -23 19.334 -29 38.001c-13.333 -10 -29 -17.333 -47 -22c-8.66699 -2.66699 -15.334 -4.33398 -20.001 -5.00098c-20 -2 -39.333 0.666992 -58 8c-26 10.667 -41.667 28 -47 52c-5.33301 23.333 1 46 19 68
c17.333 21.333 40.333 35.666 69 42.999c28 7.33301 54 6.33301 78 -3c0.666992 -0.666992 1.5 -1.33398 2.5 -2.00098s1.83301 -1 2.5 -1v32c0 18 -12 31.667 -36 41c-18.667 6 -38.167 7 -58.5 3s-34.833 -12 -43.5 -24c-3.33301 -3.33301 -7.33301 -5 -12 -5
c-4 0 -7.33301 1.33301 -10 4s-4 6 -4 10c0 3.33301 1 6.33301 3 9c14 18 34 29.667 60 35c25.333 5.33301 50.333 3.33301 75 -6c16 -6 29 -15 39 -27s15 -25.333 15 -40v-156c0 -1.33301 -0.333008 -3 -1 -5c3.33301 -10.667 8.66602 -18 15.999 -22
c7.33301 -3.33301 16 -4 26 -2s20.5 6.66699 31.5 14s19.167 14.666 24.5 21.999c27.333 40 32 86.333 14 139c-8 23.333 -19.667 44.833 -35 64.5s-32.666 34.834 -51.999 45.501c-51.333 30 -106.666 34.667 -165.999 14c-0.666992 0 -1.66699 -0.166992 -3 -0.5
s-2.33301 -0.833008 -3 -1.5c-26.667 -10.667 -50.667 -26 -72 -46c-43.333 -40 -63 -87 -59 -141c3.33301 -54 29.333 -99.333 78 -136s106.5 -53.5 173.5 -50.5s122.5 24.833 166.5 65.5c2.66699 3.33301 6.33398 5 11.001 5c3.33301 0 6.5 -1.33301 9.5 -4
s4.5 -6 4.5 -10c0 -4.66699 -2 -8.33398 -6 -11.001c-49.333 -46 -110.333 -70.667 -183 -74h-17c-66 0 -124.667 19 -176 57c-55.333 41.333 -85 93.333 -89 156v14c0 56.667 23 106.667 69 150c20.667 19.333 47 35.666 79 48.999c0.666992 1.33301 1.66699 2.33301 3 3h3
c0.666992 0.666992 1.33398 1 2.00098 1h1l1 1c0.666992 0.666992 1.66699 1 3 1h2c24 7.33301 45.333 11.333 64 12h7zM277.997 283.003c-2.66699 -0.666992 -7.66797 -2.00195 -15.001 -4.00195c-23.333 -6 -41.666 -16.667 -54.999 -32
c-12 -14.667 -16.333 -29.667 -13 -45c3.33301 -14 13.333 -24.333 30 -31c17.333 -7.33301 37.333 -8.16602 60 -2.49902s40.667 15.834 54 30.501v70c-4.66699 3.33301 -9.66699 6 -15 8c-9.33301 4 -19.333 6 -30 6c-4.66699 0.666992 -10 0.666992 -16 0z" />
    <glyph glyph-name="glyph_27" unicode="A" horiz-adv-x="642" 
d="M331 836l0.999023 -1c0.666992 0 1.33398 -0.333008 2.00098 -1h1v-1h1v-1h1l2 -4c0 -0.666992 0.166992 -1.16699 0.5 -1.5s0.5 -0.833008 0.5 -1.5v-2l280 -808v-5c0 -4 -1.33301 -7.33301 -4 -10s-6 -4 -10 -4c-6.66699 0 -11.334 3.33301 -14.001 10l-97 282h-338
l-97 -282c-2.66699 -6.66699 -7.33398 -10 -14.001 -10c-4 0 -7.33301 1.33301 -10 4s-4 6 -4 10v5l280 809v1c0 0.666992 0.166992 1.16699 0.5 1.5s0.5 0.833008 0.5 1.5v2c0.666992 0 1 0.333008 1 1v1c0.666992 0 1.33398 0.333008 2.00098 1s1.33398 1 2.00098 1
c0.666992 1.33301 1.66699 2 3 2h10zM167.999 321h316l-158 457z" />
    <glyph glyph-name="glyph_28" unicode="B" horiz-adv-x="436" 
d="M141 866c1.33301 -0.666992 2.33301 -1.00293 3 -1.00293c63.333 -5.33301 116.166 -30.666 158.499 -75.999s61.833 -98.333 58.5 -159c-2 -41.333 -15 -78.666 -39 -111.999s-55 -59 -93 -77c52 -10 95.667 -34.167 131 -72.5s54.333 -83.166 57 -134.499v-13
c0 -56.667 -20 -106.334 -60 -149.001c-44 -46 -98.667 -70.667 -164 -74h-150c-1.33301 0 -2.66602 0.333008 -3.99902 1h-1v1h-1c-4 2.66699 -6 6.66699 -6 12c0 2.66699 0.666992 5 2 7v405c-1.33301 2 -2 4.66699 -2 8c0 2.66699 0.666992 5 2 7v405
c-1.33301 2 -2 4.33301 -2 7c0 5.33301 2 9.33301 6 12c1.33301 0.666992 2.33301 1.33398 3 2.00098h1c0.666992 0 1.16699 0.166992 1.5 0.5s0.833008 0.5 1.5 0.5h97zM61 445.997h69c54.667 1.33301 101.5 19.833 140.5 55.5s59.833 79.167 62.5 130.5
c3.33301 54 -14.167 101 -52.5 141s-86.5 61.667 -144.5 65h-75v-392zM61 25.9971l131.002 -0.000976562c58 3.33301 106.167 25 144.5 65s55.833 87 52.5 141c-2.66699 50.667 -23.334 93.834 -62.001 129.501s-85.334 54.5 -140.001 56.5h-126v-392z" />
    <glyph glyph-name="glyph_29" unicode="C" horiz-adv-x="769" 
d="M448 862c83.333 0 160.333 -22.3359 231 -67.0029c4 -3.33301 6 -7.66602 6 -12.999c0 -4 -1.33301 -7.33301 -4 -10s-6 -4 -10 -4c-3.33301 0 -6 0.666992 -8 2c-62 39.333 -129 60.5 -201 63.5s-140 -12 -204 -45s-115.667 -80.5 -155 -142.5
s-60.5 -129.167 -63.5 -201.5s12.167 -140.5 45.5 -204.5s81 -115.667 143 -155c80.667 -51.333 168.167 -71.666 262.5 -60.999s175.166 49.667 242.499 117c2.66699 2 5.66699 3 9 3s6.5 -1.33301 9.5 -4s4.5 -6 4.5 -10c0 -3.33301 -1 -6 -3 -8
c-72 -72 -158.333 -113.667 -259 -125c-18 -1.33301 -35.333 -2 -52 -2c-81.333 0 -157.666 22 -228.999 66c-66 42 -116.667 97.333 -152 166c-32.667 63.333 -49 130.333 -49 201c0 5.33301 0.333008 11.333 1 18c2.66699 76.667 25 148.334 67 215.001
c39.333 62 90.333 110.5 153 145.5s129.667 53.5 201 55.5h14z" />
    <glyph glyph-name="glyph_30" unicode="D" horiz-adv-x="711" 
d="M269 869l1 -1.00391h2c74.667 -2 143.5 -22.667 206.5 -62s112.5 -92.166 148.5 -158.499s54 -138.166 54 -215.499c-0.666992 -77.333 -19.334 -148.666 -56.001 -213.999s-86.5 -117.5 -149.5 -156.5s-131.833 -59.167 -206.5 -60.5h-232v1h-3v1h-1
c-4 2.66699 -6 6.66699 -6 12c0 2 0.666992 4 2 6v827c-1.33301 2 -2 4 -2 6c0 6.66699 3.33301 11.334 10 14.001c0.666992 0 1.33398 0.333008 2.00098 1h230zM57 28.9961l212.001 0.00195312c70 1.33301 134.333 20.166 193 56.499s105 85.166 139 146.499
s51.333 128 52 200c0 72.667 -17 140.167 -51 202.5s-80.333 111.833 -139 148.5s-123.334 56 -194.001 58h-212v-812z" />
    <glyph glyph-name="glyph_31" unicode="E" horiz-adv-x="368" 
d="M327 864c4 0 7.33398 -1.33496 10.001 -4.00195s4 -6 4 -10s-1.33301 -7.33301 -4 -10s-6 -4 -10 -4h-268v-392h268c4 0 7.33301 -1.33301 10 -4s4 -6 4 -10s-1.33301 -7.33301 -4 -10s-6 -4 -10 -4h-268v-392h268c4 0 7.33301 -1.33301 10 -4s4 -6 4 -10
s-1.33301 -7.33301 -4 -10s-6 -4 -10 -4h-286c-0.666992 0.666992 -1.66699 1.33398 -3 2.00098s-2.33301 1.33398 -3 2.00098c0 0.666992 -0.333008 1 -1 1v1c-0.666992 0.666992 -1.33398 1.66699 -2.00098 3s-1 3 -1 5v841c0 6 2.66699 10.333 8 13h288z" />
    <glyph glyph-name="glyph_32" unicode="F" horiz-adv-x="363" 
d="M329 864c4 0 7.33301 -1.33301 10 -4s4 -6 4 -10s-1.33301 -7.33301 -4 -10s-6 -4 -10 -4h-272v-392h272c4 0 7.33301 -1.33301 10 -4s4 -6 4 -10s-1.33301 -7.33301 -4 -10s-6 -4 -10 -4h-272v-406c0 -4 -1.33301 -7.33301 -4 -10s-6 -4 -10 -4s-7.33301 1.33301 -10 4
s-4 6 -4 10v841c0 6.66699 3 11 9 13h291z" />
    <glyph glyph-name="glyph_33" unicode="G" horiz-adv-x="781" 
d="M442 863c83.333 0 160.335 -22.3311 231.002 -66.998c4.66699 -2.66699 7 -6.66699 7 -12c0 -4 -1.33301 -7.33301 -4 -10s-6 -4 -10 -4c-2.66699 0 -5.33398 0.666992 -8.00098 2c-62 39.333 -129 60.333 -201 63s-140 -12.833 -204 -46.5s-115.5 -81.5 -154.5 -143.5
s-59.833 -129.167 -62.5 -201.5s12.666 -140.333 45.999 -204s81 -115.167 143 -154.5c80 -50 166.5 -70.167 259.5 -60.5s173.167 47.167 240.5 112.5v289h-155c-4 0 -7.33301 1.33301 -10 4s-4 6 -4 10s1.16699 7.33301 3.5 10s5.16602 4 8.49902 4h174
c0.666992 0 1.33398 -0.333008 2.00098 -1c0.666992 0 1 -0.333008 1 -1h1c4.66699 -2.66699 7 -6.66699 7 -12v-301c0.666992 -1.33301 1 -3 1 -5c0 -2.66699 -0.666992 -5 -2 -7v-1c0 -0.666992 -0.333008 -1.33398 -1 -2.00098l-0.5 -0.5
c-0.333008 -0.333008 -0.833008 -0.5 -1.5 -0.5c-0.666992 -1.33301 -1.66699 -2.33301 -3 -3c-72 -70.667 -158 -111.334 -258 -122.001c-17.333 -2 -34.333 -3 -51 -3c-80.667 0 -156.334 22 -227.001 66c-66 42 -116.667 97.333 -152 166
c-33.333 63.333 -50 130.666 -50 201.999v16c2.66699 76.667 25 148.334 67 215.001c39.333 62 90.333 110.667 153 146s129.334 54.333 200.001 57h14z" />
    <glyph glyph-name="glyph_34" unicode="H" horiz-adv-x="627" 
d="M32 863c4 0 7.33301 -1.33398 10 -4.00098s4 -6 4 -10v-406h532v406c0 8 4 12.667 12 14h2c4 0 7.33301 -1.33301 10 -4s4 -6 4 -10v-417c0.666992 -1.33301 1 -2.33301 1 -3c0 -1.33301 -0.333008 -2.66602 -1 -3.99902v-416c0 -4 -1.33301 -7.33301 -4 -10
s-5.66699 -4 -9 -4c-4 0 -7.5 1.33301 -10.5 4s-4.5 6 -4.5 10v406h-532v-406c0 -4 -1.33301 -7.33301 -4 -10s-5.66699 -4 -9 -4c-4 0 -7.5 1.33301 -10.5 4s-4.5 6 -4.5 10v414c-0.666992 2 -1 4 -1 6s0.333008 3.66699 1 5v416c0 6.66699 3.33301 11 10 13h4z" />
    <glyph glyph-name="glyph_35" unicode="I" horiz-adv-x="199" 
d="M96 860c4 0 7.33301 -1.33301 10 -4s4 -6 4 -10v-840c0 -4 -1.33301 -7.33301 -4 -10s-6 -4 -10 -4s-7.33301 1.33301 -10 4s-4 6 -4 10v841c0 6.66699 3.33301 11 10 13h4z" />
    <glyph glyph-name="glyph_36" unicode="J" horiz-adv-x="401" 
d="M346 854v-704c-0.666992 -42.667 -16.334 -78.667 -47.001 -108c-30 -28 -65.333 -42 -106 -42h-5c-41.333 0.666992 -76.666 16 -105.999 46s-44 66 -44 108c0 7.33301 3.33301 12 10 14h4c4 0 7.33301 -1.33301 10 -4s4 -6 4 -10c0 -34.667 12 -64.167 36 -88.5
s53 -36.833 87 -37.5c35.333 -1.33301 65.5 10.167 90.5 34.5s37.833 53.833 38.5 88.5v703c0 7.33301 3.33301 12 10 14h4c4 0 7.33301 -1.33301 10 -4s4 -6 4 -10z" />
    <glyph glyph-name="glyph_37" unicode="K" horiz-adv-x="507" 
d="M59 854l-0.000976562 -525l398 532c2.66699 2.66699 5.66699 4.66699 9 6h3c3.33301 0 6.5 -1.33301 9.5 -4s4.5 -6 4.5 -10c0 -3.33301 -1.33301 -6.33301 -4 -9l-290 -387c0.666992 -0.666992 1.33398 -1.66699 2.00098 -3l289 -433c2 -2 3 -4.66699 3 -8
c0 -4 -1.5 -7.5 -4.5 -10.5s-6.5 -4.5 -10.5 -4.5c-5.33301 0 -9.33301 2.33301 -12 7l-285 428l-112 -149v-271c0 -4 -1.33301 -7.33301 -4 -10s-6 -4 -10 -4s-7.33301 1.33301 -10 4s-4 6 -4 10v840c0 7.33301 3.66699 12 11 14c0.666992 0 1.66699 0.333008 3 1
c4 0 7.33301 -1.5 10 -4.5s4 -6.16699 4 -9.5z" />
    <glyph glyph-name="glyph_38" unicode="L" horiz-adv-x="343" 
d="M50 852v-826h270c4 0 7.33301 -1.5 10 -4.5s4 -6.16699 4 -9.5c0 -4 -1.33301 -7.33301 -4 -10s-6 -4 -10 -4h-284c-4 0 -7.33301 1.33301 -10 4s-4 6 -4 10v840c0 7.33301 3.33301 12 10 14h4c4 0 7.33301 -1.33301 10 -4s4 -6 4 -10z" />
    <glyph glyph-name="glyph_39" unicode="M" horiz-adv-x="649" 
d="M508 865h1.00195c0.666992 0 1.66699 -0.333008 3 -1h1c0.666992 0 1.66699 -0.333008 3 -1l2 -2l2 -2c0 -0.666992 0.333008 -1.33398 1 -2.00098v-1c0 -1.33301 0.333008 -2.33301 1 -3v-4l110 -836v-2c0 -4 -1.33301 -7.33301 -4 -10s-6 -4 -10 -4
c-3.33301 0 -6.33301 1.16699 -9 3.5s-4.33398 5.16602 -5.00098 8.49902l-100 759l-166 -760c0 -4 -1.33301 -7.33301 -4 -10s-6 -4 -10 -4s-7.33301 1.33301 -10 4s-4 6 -4 10l-166 760l-100 -759c-0.666992 -3.33301 -2.33398 -6.16602 -5.00098 -8.49902
s-5.66699 -3.5 -9 -3.5c-4 0 -7.33301 1.33301 -10 4s-4 6 -4 10v2l110 840c1.33301 7.33301 5.66602 11.333 12.999 12h1c8 0 12.667 -3.66699 14 -11l170 -776l170 774v3l1 1v1c0 0.666992 0.333008 1 1 1c1.33301 2.66699 3.33301 4.33398 6 5.00098l2 2h2
c0.666992 0.666992 1.33398 1 2.00098 1v-1z" />
    <glyph glyph-name="glyph_40" unicode="N" horiz-adv-x="700" 
d="M79 870l2.00195 -2.00098h1c1.33301 -1.33301 2.66602 -3 3.99902 -5l2 -2v-1l533 -798v794c0 7.33301 3.66699 12 11 14h3c3.33301 0 6.5 -1.33301 9.5 -4s4.5 -6 4.5 -10v-842c0 -4 -1.33301 -7.33301 -4 -10s-6 -4 -10 -4c-2.66699 0 -5.33398 1 -8.00098 3
s-4.66699 4.66699 -6 8l-532 799v-795c0 -3.33301 -1.5 -6.5 -4.5 -9.5s-6.33301 -4.5 -10 -4.5s-6.83398 1.5 -9.50098 4.5s-4 6.16699 -4 9.5v847c0.666992 0 1 0.333008 1 1c0.666992 1.33301 1.66699 2.33301 3 3c0.666992 0.666992 1.66699 1.33398 3 2.00098v1
c0.666992 0 1.33398 0.333008 2.00098 1h9z" />
    <glyph glyph-name="glyph_41" unicode="O" horiz-adv-x="902" 
d="M883 433c0 -58.667 -11.5 -114.834 -34.5 -168.501s-53.833 -99.834 -92.5 -138.501s-84.834 -69.5 -138.501 -92.5s-109.834 -34.5 -168.501 -34.5s-114.834 11.5 -168.501 34.5s-99.834 53.833 -138.501 92.5s-69.5 84.834 -92.5 138.501s-34.5 109.834 -34.5 168.501
s11.5 114.834 34.5 168.501s53.833 99.834 92.5 138.501s84.834 69.5 138.501 92.5s109.834 34.5 168.501 34.5s114.834 -11.5 168.501 -34.5s99.834 -53.833 138.501 -92.5s69.5 -84.834 92.5 -138.501s34.5 -109.834 34.5 -168.501zM245 784
c-62 -36 -111.165 -85.166 -147.498 -147.499s-54.5 -130.166 -54.5 -203.499s18.167 -141.166 54.5 -203.499s85.666 -111.666 147.999 -147.999s130.166 -54.5 203.499 -54.5s141.166 18.167 203.499 54.5s111.666 85.666 147.999 147.999s54.5 130.166 54.5 203.499
s-18.167 141.166 -54.5 203.499s-85.666 111.666 -147.999 147.999s-130.166 54.5 -203.499 54.5s-141.333 -18.333 -204 -55z" />
    <glyph glyph-name="glyph_42" unicode="P" horiz-adv-x="436" 
d="M198 864c65.333 -3.33301 120 -27.999 164 -73.999c40.667 -42 61 -91 61 -147c0 -4.66699 -0.333008 -9.66699 -1 -15c-2.66699 -58.667 -26.167 -108.334 -70.5 -149.001s-97.5 -61.667 -159.5 -63h-133v-406c0 -4 -1.33301 -7.33301 -4 -10s-6 -4 -10 -4
s-7.33301 1.33301 -10 4s-4 6 -4 10v841c0 6.66699 3.33301 11 10 13h157zM59 444.001h132.001c54.667 1.33301 101.5 19.833 140.5 55.5s59.833 79.167 62.5 130.5c3.33301 54 -14.334 101.167 -53.001 141.5s-86.667 61.833 -144 64.5h-138v-392z" />
    <glyph glyph-name="glyph_43" unicode="Q" horiz-adv-x="918" 
d="M886 430c0 -56.667 -10.165 -110.498 -30.498 -161.498s-49.166 -96.167 -86.499 -135.5l114 -114c3.33301 -2.66699 5 -6.33398 5 -11.001c0 -3.33301 -1.33301 -6.5 -4 -9.5s-6 -4.5 -10 -4.5c-4.66699 0 -8.33398 2 -11.001 6l-114 114
c-40 -37.333 -85.333 -66.333 -136 -87s-104.334 -31 -161.001 -31c-58.667 0 -114.834 11.333 -168.501 34s-99.834 53.5 -138.501 92.5s-69.5 85.167 -92.5 138.5s-34.5 109.666 -34.5 168.999c0 58.667 11.5 114.667 34.5 168s53.833 99.5 92.5 138.5
s84.834 70 138.501 93s110.167 34.5 169.5 34.5c58.667 0 114.667 -11.5 168 -34.5s99.333 -54 138 -93s69.5 -85.167 92.5 -138.5s34.5 -109.333 34.5 -168zM452.002 24.002c106 0 198.333 36.668 277 110.001l-62 62c-2.66699 2.66699 -4 6 -4 10
c0 7.33301 3.66699 12 11 14h2c4.66699 0 8.33398 -1.66699 11.001 -5l62 -62c72.667 78 109 170.333 109 277c0 73.333 -18 141.166 -54 203.499s-85.167 111.666 -147.5 147.999s-130.333 54.5 -204 54.5s-141.667 -18.167 -204 -54.5s-111.666 -85.666 -147.999 -147.999
s-54.5 -130.333 -54.5 -204s18.167 -141.667 54.5 -204s85.666 -111.5 147.999 -147.5s130.166 -54 203.499 -54z" />
    <glyph glyph-name="glyph_44" unicode="R" horiz-adv-x="498" 
d="M194 864c64.667 -3.33301 119 -28 163 -74s64.333 -100 61 -162c-2.66699 -50 -21 -94 -55 -132s-76.333 -62.667 -127 -74l243 -405c2.66699 -2.66699 4 -5.66699 4 -9c0 -4 -1.5 -7.33301 -4.5 -10s-6.16699 -4 -9.5 -4c-6.66699 0 -11.334 3 -14.001 9l-248 415
c-11.333 -1.33301 -17.666 -2 -18.999 -2h-127v-406c0 -4 -1.33301 -7.33301 -4 -10s-6 -4 -10 -4s-7.33301 1.33301 -10 4s-4 6 -4 10v414c-1.33301 2 -2 4 -2 6s0.666992 4 2 6v408c-0.666992 2 -1 4 -1 6c0 4.66699 2 8.66699 6 12h1c0.666992 0.666992 1.66699 1 3 1v1
h152zM61 444h125.999c54.667 1.33301 101.5 19.833 140.5 55.5s59.833 79.167 62.5 130.5c2.66699 54 -15.166 101.167 -53.499 141.5s-86.5 61.833 -144.5 64.5h-131v-392z" />
    <glyph glyph-name="glyph_45" unicode="S" horiz-adv-x="538" 
d="M458 673c0 -4 -1.33398 -7.33203 -4.00098 -9.99902s-6 -4 -10 -4s-7.33301 1.33301 -10 4s-4 6 -4 10c0 46.667 -16.333 86.334 -49 119.001s-72.334 49 -119.001 49s-86.334 -16.333 -119.001 -49s-49 -72.334 -49 -119.001s16.333 -86.334 49 -119.001
s72.334 -49 119.001 -49h7c68 -2 125.833 -27.5 173.5 -76.5s71.5 -107.5 71.5 -175.5c0 -69.333 -24.667 -128.666 -74 -177.999s-108.666 -74 -177.999 -74s-128.666 24.667 -177.999 74s-74 108.666 -74 177.999c0 4 1.33301 7.33301 4 10s6 4 10 4
s7.33301 -1.33301 10 -4s4 -6 4 -10c0 -62 21.833 -114.833 65.5 -158.5s96.5 -65.5 158.5 -65.5s114.833 21.833 158.5 65.5s65.5 96.5 65.5 158.5c0 60.667 -21.167 112.667 -63.5 156s-93.833 66 -154.5 68h-6c-54 0 -100.167 19.167 -138.5 57.5s-57.5 84.5 -57.5 138.5
s19.167 100.167 57.5 138.5s84.5 57.5 138.5 57.5s100.167 -19.167 138.5 -57.5s57.5 -84.5 57.5 -138.5z" />
    <glyph glyph-name="glyph_46" unicode="T" horiz-adv-x="611" 
d="M586 864c4 0 7.33301 -1.33301 10 -4s4 -6 4 -10c0 -4.66699 -1.33301 -8.33398 -4 -11.001s-6 -4 -10 -4h-266v-824c0 -4 -1.33301 -7.33301 -4 -10s-6 -4 -10 -4s-7.33301 1.33301 -10 4s-4 6 -4 10v824h-268c-4 0 -7.33301 1.33301 -10 4s-4 6.33398 -4 11.001
c0 8 4 12.667 12 14h564z" />
    <glyph glyph-name="glyph_47" unicode="U" horiz-adv-x="629" 
d="M29 864c4 0 7.33496 -1.33398 10.002 -4.00098s4 -6 4 -10v-632c0.666992 -52.667 26.667 -98 78 -136c52.667 -39.333 116 -58.666 190 -57.999c74 0 137 19.667 189 59c50.667 38.667 75.667 84.667 75 138v629c0 8 3.66699 12.667 11 14h3c4 0 7.33301 -1.33301 10 -4
s4 -6 4 -10v-644c0 -2 -0.666992 -4 -2 -6v-2c-6.66699 -53.333 -34.667 -98.666 -84 -135.999c-56.667 -43.333 -125.334 -65.333 -206.001 -66h-4c-78.667 0 -146.334 21 -203.001 63c-51.333 38 -80.333 84.667 -87 140v1h-0.5c-0.333008 0 -0.5 0.333008 -0.5 1v1
c-0.666992 1.33301 -1 2.66602 -1 3.99902v645c0 6.66699 3.33301 11 10 13h4z" />
    <glyph glyph-name="glyph_48" unicode="V" horiz-adv-x="700" 
d="M64 870c6.66699 0 11.002 -3.33301 13.002 -10l267 -801l267 801c1.33301 5.33301 5 8.66602 11 9.99902h2c4 0 7.33301 -1.33301 10 -4s4 -6 4 -10c0 -1.33301 -0.333008 -3 -1 -5l-278 -835v-2c0 -5.33301 -2.66699 -9.33301 -8 -12
c-0.666992 -0.666992 -1.33398 -1 -2.00098 -1v-1h-9c-0.666992 0 -1 0.333008 -1 1c-0.666992 0 -1.33398 0.333008 -2.00098 1h-1l-1 1c-4 2.66699 -6 6.33398 -6 11.001v2l-278 835c-0.666992 2 -1 4 -1 6c0 6 3 10.333 9 13h5z" />
    <glyph glyph-name="glyph_49" unicode="W" horiz-adv-x="994" 
d="M934 868c3.33301 0 6.50098 -1.49805 9.50098 -4.49805s4.5 -6.16699 4.5 -9.5c0 -2 -0.333008 -3.66699 -1 -5l-221 -836l-1 -3c-0.666992 -0.666992 -1 -1.66699 -1 -3v-1l-1 -1c-2 -2.66699 -4.33301 -4.33398 -7 -5.00098c-2 -1.33301 -3.66699 -2 -5 -2
s-2.33301 0.333008 -3 1c-0.666992 0 -1.33398 0.333008 -2.00098 1v-1l-1 1h-1c-2.66699 2 -4.66699 4.33301 -6 7v4l-209 787l-209 -789c-1.33301 -6.66699 -5.66602 -10 -12.999 -10s-12 3.33301 -14 10l-222 840c-0.666992 1.33301 -1 2.66602 -1 3.99902
c0 7.33301 3.66699 12 11 14h3c7.33301 0 12 -3.66699 14 -11l209 -788l208 788c2 7.33301 6.66699 11 14 11s11.666 -3.66699 12.999 -11l210 -788l208 788c1.33301 5.33301 4.33301 9 9 11c1.33301 0 2.33301 0.333008 3 1h2z" />
    <glyph glyph-name="glyph_50" unicode="X" horiz-adv-x="700" 
d="M634 866c3.33301 0 6.5 -1.5 9.5 -4.5s4.5 -6.16699 4.5 -9.5s-1 -6.33301 -3 -9l-275 -412l275 -412c1.33301 -2.66699 2 -5.33398 2 -8.00098c0 -4 -1.33301 -7.5 -4 -10.5s-6 -4.5 -10 -4.5c-5.33301 0 -9.33301 2.33301 -12 7l-268 402l-268 -402
c-3.33301 -4.66699 -7.33301 -7 -12 -7c-4 0 -7.33301 1.5 -10 4.5s-4 6.5 -4 10.5c0 2.66699 0.666992 5.33398 2 8.00098l275 412l-275 412c-2 2 -3 4.66699 -3 8c0 7.33301 4 12 12 14h3c4.66699 0 8.66699 -2 12 -6l268 -403l268 403c2 2.66699 5 4.66699 9 6
c0.666992 0 1 0.333008 1 1h3z" />
    <glyph glyph-name="glyph_51" unicode="Y" horiz-adv-x="621" 
d="M592 857c3.33301 0 6.5 -1.5 9.5 -4.5s4.5 -6.16699 4.5 -9.5s-1 -6.33301 -3 -9l-279 -418v-415c0 -3.33301 -1.33301 -6.5 -4 -9.5s-5.66699 -4.5 -9 -4.5c-4 0 -7.5 1.5 -10.5 4.5s-4.5 6.16699 -4.5 9.5v416l-277 417c-2 2 -3 4.66699 -3 8c0 7.33301 4 12 12 14h3
c4.66699 0 8.66699 -2 12 -6l268 -403l268 403c2 2.66699 5 4.66699 9 6c0.666992 0 1.66699 0.333008 3 1h1z" />
    <glyph glyph-name="glyph_52" unicode="Z" horiz-adv-x="632" 
d="M601 867c2 0 3.66504 -0.665039 4.99805 -1.99805c0.666992 0 1 -0.333008 1 -1h1v-1c0.666992 0 1.33398 -0.333008 2.00098 -1v-1h1v-4c0.666992 0 1 -0.333008 1 -1v-7h-1c0 -0.666992 -0.166992 -1.33398 -0.5 -2.00098l-1 -2
c-0.333008 -0.666992 -0.5 -1.33398 -0.5 -2.00098l-544 -816h534c3.33301 0 6.5 -1.33301 9.5 -4s4.5 -6 4.5 -10s-1.5 -7.33301 -4.5 -10s-6.16699 -4 -9.5 -4h-563c-1.33301 0 -2.66602 0.333008 -3.99902 1h-2v2h-3v1c-2.66699 3.33301 -4 6.66602 -4 9.99902
c0 4.66699 1.66699 8.33398 5 11.001h1c0 0.666992 0.333008 1 1 1l541 814h-535c-4 0 -7.5 1.33301 -10.5 4s-4.5 6 -4.5 10c0 8 4 12.667 12 14h568z" />
    <glyph glyph-name="glyph_112" unicode="[" horiz-adv-x="232" 
d="M190 982c4 0 7.33301 -1.83301 10 -5.5s4 -8.16699 4 -13.5s-1.33301 -9.83301 -4 -13.5s-6 -5.5 -10 -5.5h-126v-1102h126c4 0 7.33301 -1.83301 10 -5.5s4 -8.16699 4 -13.5c0 -6 -1.33301 -10.833 -4 -14.5s-6 -5.5 -10 -5.5h-140c-4 0 -7.33301 1.83301 -10 5.5
s-4 8.5 -4 14.5v1141c0 8.66699 3 14.667 9 18h145z" />
    <glyph glyph-name="glyph_101" unicode="\" horiz-adv-x="499" 
d="M112 861c7.33301 0 12 -3.33301 14 -10l280 -840v-4c0 -4 -1.33301 -7.33301 -4 -10s-6 -4 -10 -4c-6.66699 0 -11 3.33301 -13 10l-280 840c-0.666992 1.33301 -1 3 -1 5c0 6.66699 3 11 9 13h5z" />
    <glyph glyph-name="glyph_113" unicode="]" horiz-adv-x="201" 
d="M159 -195l-140 -2.00195c-4 0 -7.33301 1.83301 -10 5.5s-4 8.33398 -4 14.001s1.33301 10.334 4 14.001s6 5.5 10 5.5l126 1l-2 1106h-126c-4 0 -7.33301 1.83301 -10 5.5s-4 8.16699 -4 13.5s1.33301 9.83301 4 13.5s6 5.5 10 5.5h140c4 0 7.33301 -1.83301 10 -5.5
s4 -8.16699 4 -13.5l2 -1145v-1c0 -8 -3 -13.667 -9 -17h-5z" />
    <glyph glyph-name="asciicircum" unicode="^" horiz-adv-x="263" 
d="M85 896c-2 0 -3.66797 0.331055 -5.00098 0.998047s-2.66602 1.66699 -3.99902 3l-1 1c0 0.666992 -0.333008 1 -1 1c-0.666992 0.666992 -1 1.33398 -1 2.00098l-1 1v2c-0.666992 0.666992 -1 1.33398 -1 2.00098v2c0 2 0.666992 4 2 6c4 14 10.667 26 20 36
c4 4.66699 7 7.66699 9 9c2.66699 2.66699 6 5 10 7c6.66699 4 14 6.66699 22 8c3.33301 0.666992 7 1 11 1c16 0 30.667 -5.66699 44 -17s22 -26.333 26 -45v-3c0 -4.66699 -2.33301 -8.33398 -7 -11.001v-1c-2.66699 -1.33301 -5 -2 -7 -2h-1c-1.33301 0 -3 0.333008 -5 1
c-1.33301 0.666992 -2.33301 1.33398 -3 2.00098s-1.33398 1 -2.00098 1c-2 2 -3 4.33301 -3 7c-5.33301 26.667 -19.333 40 -42 40c-4 0 -8.66699 -1 -14 -3c-12.667 -4 -22 -13.333 -28 -28c-1.33301 -2.66699 -2.66602 -6 -3.99902 -10c0 -4 -1.33301 -7 -4 -9
c-1.33301 -0.666992 -2.33301 -1 -3 -1l-1 -1l-4 -2h-2z" />
    <glyph glyph-name="underscore" unicode="_" horiz-adv-x="500" 
d="M460 -8c4 0 7.33301 -1.33301 10 -4s4 -6 4 -10s-1.33301 -7.33301 -4 -10s-6 -4 -10 -4h-422c-4 0 -7.33301 1.33301 -10 4s-4 6 -4 10c0 8 4 12.667 12 14h424z" />
    <glyph glyph-name="grave" unicode="`" horiz-adv-x="162" 
d="M33 978h4.00098c3.33301 0 6 -1 8 -3l79 -62l22 -17l-6 -9l-1 -1l-2 -4c-0.666992 0 -1.33398 -0.333008 -2.00098 -1l-1 -1c-1.33301 -0.666992 -3 -1 -5 -1h-6l-2 2h-1c-0.666992 0.666992 -1.33398 0.666992 -2.00098 0l-1 1l-2 2l-86 69c-4.66699 2 -7 5 -7 9v3
c0 6 3 10 9 12c0.666992 0.666992 1.33398 1 2.00098 1z" />
    <glyph glyph-name="glyph_1" unicode="a" horiz-adv-x="427" 
d="M81 178c-24 -28.667 -32.665 -57.001 -25.998 -85.001c1.33301 -6.66699 3.66602 -13 6.99902 -19c10 -19.333 27.333 -33.666 52 -42.999c34 -14 72.5 -15.333 115.5 -4s76.833 31.666 101.5 60.999c0.666992 1.33301 1.66699 2.33301 3 3v121
c-8.66699 8 -20.667 15.333 -36 22c-17.333 7.33301 -36 11 -56 11c-29.333 1.33301 -58.833 -4.16699 -88.5 -16.5s-53.834 -29.166 -72.501 -50.499zM209.002 421.999c23.333 -1.33301 44.3301 -5.66992 62.9971 -13.0029c24.667 -8.66699 44.834 -21.167 60.501 -37.5
s25.167 -34.166 28.5 -53.499v-2c0.666992 -0.666992 1 -2 1 -4v-260c0.666992 -8 4.33398 -14 11.001 -18c8 -6.66699 18.333 -10 31 -10h1c3.33301 0 6.5 -1.33301 9.5 -4s4.5 -5.66699 4.5 -9c0 -4 -1.5 -7.33301 -4.5 -10s-6.16699 -4 -9.5 -4h-1
c-18.667 0 -34.667 5 -48 15c-12 9.33301 -19 21 -21 35v3h-1v1l-2.5 -2.5c-1 -1 -1.83301 -1.5 -2.5 -1.5l-28 -20c-20.667 -12.667 -42 -21.667 -64 -27c-9.33301 -2 -20.666 -4 -33.999 -6c-8 -0.666992 -15.667 -1 -23 -1c-27.333 0 -53 4.66699 -77 14
c-41.333 16 -66.333 42.667 -75 80c-2 8.66699 -3 17 -3 25c0 28.667 11.667 56.334 35 83.001c21.333 25.333 48.666 44.833 81.999 58.5s67 19.834 101 18.501c24 -0.666992 45.667 -5 65 -13c8 -3.33301 16.333 -7.33301 25 -12h1v58c0 16 -6.33301 31.167 -19 45.5
s-30 25.5 -52 33.5c-35.333 12.667 -72 15 -110 7s-66 -23 -84 -45c-2.66699 -3.33301 -6.33398 -5 -11.001 -5c-4 0 -7.33301 1.16699 -10 3.5s-4 5.5 -4 9.5c0 3.33301 1 6.33301 3 9c14.667 18.667 34.334 33.167 59.001 43.5s51.334 15.833 80.001 16.5
c5.33301 0 13 -0.333008 23 -1z" />
    <glyph glyph-name="glyph_2" unicode="b" horiz-adv-x="370" 
d="M56 349l0.000976562 -291.001c29.333 -19.333 61.166 -28.666 95.499 -27.999s65.833 11 94.5 31c39.333 26.667 63.333 63.5 72 110.5s-0.333008 90.167 -27 129.5c-16.667 24.667 -37.667 43.5 -63 56.5s-52 19.5 -80 19.5c-33.333 -0.666992 -64 -10 -92 -28z
M56.001 716.999l0.000976562 -336.999c41.333 22.667 84.666 29.667 129.999 21c54 -10 96.667 -38 128 -84c23.333 -34.667 35 -72.334 35 -113.001c0 -12 -1 -24.667 -3 -38c-10 -54.667 -37.667 -97.667 -83 -129c-30.667 -21.333 -64.667 -33 -102 -35
s-72.333 6 -105 24v-20c0 -4 -1.33301 -7.33301 -4 -10s-6 -4 -10 -4s-7.33301 1.33301 -10 4s-4 6 -4 10v710c0 7.33301 3.66699 12 11 14c0.666992 0.666992 1.66699 1 3 1c4 0 7.33301 -1.33301 10 -4s4 -6 4 -10z" />
    <glyph glyph-name="glyph_3" unicode="c" horiz-adv-x="408" 
d="M228 417c48.667 0 92.0029 -15.668 130.003 -47.001c8 -6.66699 14.333 -12.334 19 -17.001c2.66699 -3.33301 4 -6.66602 4 -9.99902c0 -4.66699 -1.33301 -8.33398 -4 -11.001s-6 -4 -10 -4c-4.66699 0 -8.33398 1.33301 -11.001 4
c-1.33301 1.33301 -3 3.16602 -5 5.49902l-5.5 6.5c-1.66699 2 -3.5 3.66699 -5.5 5c-38.667 32 -82.834 45.333 -132.501 40s-90.334 -27.666 -122.001 -66.999s-45 -84.166 -40 -134.499s27 -91.5 66 -123.5s83.333 -45.333 133 -40s90.5 27.666 122.5 66.999
c2.66699 4 6.33398 6 11.001 6c4 0 7.5 -1.33301 10.5 -4s4.5 -6 4.5 -10s-1.33301 -7.33301 -4 -10c-36.667 -45.333 -83.667 -71 -141 -77c-8 -0.666992 -16 -1 -24 -1c-47.333 0 -90.333 15.667 -129 47c-45.333 36.667 -71 84.334 -77 143.001c-0.666992 8 -1 16 -1 24
c0 48.667 15.667 92.334 47 131.001c36 44.667 83.333 70 142 76c5.33301 0.666992 11.666 1 18.999 1h3z" />
    <glyph glyph-name="glyph_4" unicode="d" horiz-adv-x="348" 
d="M69 305c-27.333 -40.667 -36.502 -85.5 -27.502 -134.5s32.833 -87.5 71.5 -115.5c28.667 -20 60.334 -30.5 95.001 -31.5s66.334 8.83301 95.001 29.5v301c-28 19.333 -58.667 29 -92 29c-28 0.666992 -54.667 -5.83301 -80 -19.5s-46 -33.167 -62 -58.5zM316.998 751
c4 0 7.33301 -1.33203 10 -3.99902s4 -6.33398 4 -11.001v-737c0 -4 -1.33301 -7.5 -4 -10.5s-6 -4.5 -10 -4.5s-7.33301 1.5 -10 4.5s-4 6.5 -4 10.5v19c-32 -17.333 -66.667 -25 -104 -23s-71.333 14 -102 36c-45.333 32.667 -73 77.334 -83 134.001
c-2.66699 14 -4 27.333 -4 40c0 41.333 12 80.333 36 117c31.333 47.333 74 76.333 128 87c45.333 9.33301 88.333 2.66602 129 -20.001v347c0 8 3.33301 13 10 15h4z" />
    <glyph glyph-name="glyph_5" unicode="e" horiz-adv-x="442" 
d="M81 326c-24 -29.333 -37.333 -63 -40 -101h361c-4 52 -26 94.333 -66 127c-34 28 -72.667 41.667 -116 41c-56.667 0 -103 -22.333 -139 -67zM354 374c23.333 -18.667 41.666 -41.5 54.999 -68.5s20.666 -55.833 21.999 -86.5c0 -1.33301 -0.333008 -2.66602 -1 -3.99902
v-2c0.666992 -0.666992 1 -1.33398 1 -2.00098c0 -4 -1.33301 -7.33301 -4 -10s-6 -4 -10 -4h-376c4 -52.667 26 -95.667 66 -129c39.333 -32 83.833 -45.5 133.5 -40.5s90.167 27.167 121.5 66.5c2.66699 3.33301 6.33398 5 11.001 5c4 0 7.33301 -1.33301 10 -4
s4 -6 4 -10c0 -2.66699 -1 -5.33398 -3 -8.00098c-36.667 -45.333 -83.667 -70.666 -141 -75.999c-8 -0.666992 -15.667 -1 -23 -1c-48 0 -91.333 15.667 -130 47c-24.667 20 -43.5 44.167 -56.5 72.5s-19.833 57.833 -20.5 88.5v7c0.666992 48.667 16 91.667 46 129
c36 44.667 83 70 141 76c4.66699 0 11.334 0.333008 20.001 1c51.333 0 96 -15.667 134 -47z" />
    <glyph glyph-name="glyph_6" unicode="f" horiz-adv-x="201" 
d="M163 693c-22.667 0 -42.332 -7.83301 -58.999 -23.5s-25.334 -34.834 -26.001 -57.501v-196l85 -1h1c3.33301 0 6.5 -1.33301 9.5 -4s4.5 -6 4.5 -10s-1.5 -7.33301 -4.5 -10s-6.16699 -4 -9.5 -4h-1l-85 1v-381c0 -4 -1.33301 -7.33301 -4 -10s-6 -4 -10 -4
s-7.33301 1.33301 -10 4s-4 6 -4 10v381h-26c-3.33301 0 -6.5 1.33301 -9.5 4s-4.5 6 -4.5 10c0 3.33301 1.33301 6.33301 4 9s5.66699 4.33398 9 5.00098h27v197c0.666992 30 12 55.5 34 76.5s48.333 31.5 79 31.5c4 0 7.33301 -1.33301 10 -4s4 -6 4 -10
s-1.33301 -7.33301 -4 -10s-6 -4 -10 -4z" />
    <glyph glyph-name="g" unicode="g" horiz-adv-x="379" 
d="M125 359c-41.333 -28 -66.501 -66.167 -75.501 -114.5s0.833008 -92.833 29.5 -133.5c27.333 -40 65 -64.667 113 -74s92.667 -1 134 25v298c-30 20 -62.667 30 -98 30c-37.333 0 -71.666 -10.333 -102.999 -31zM339.999 430c4 0 7.33105 -1.33203 9.99805 -3.99902
s4 -6 4 -10v-362c-0.666992 -1.33301 -1 -3 -1 -5v-121c-0.666992 -58.667 -21.5 -108.834 -62.5 -150.501s-90.167 -62.5 -147.5 -62.5c-26 0 -51.333 5 -76 15c-6.66699 2 -10 6.33301 -10 13c0 4 1.33301 7.5 4 10.5s6 4.5 10 4.5c2 0 3.66699 -0.333008 5 -1
c22 -9.33301 44.333 -14 67 -14c49.333 0 91.833 18 127.5 54s53.834 79.667 54.501 131v101c-46 -24 -94.833 -30 -146.5 -18s-92.5 39.667 -122.5 83c-24.667 36 -37 74.333 -37 115c0 13.333 1.33301 27 4 41c10.667 56 39.667 100.333 87 133
c35.333 24 74.666 36 117.999 36c34.667 0 67.334 -8.33301 98.001 -25v22c0 6.66699 3.33301 11 10 13c0.666992 0 1.33398 0.333008 2.00098 1h2z" />
    <glyph glyph-name="glyph_8" unicode="h" horiz-adv-x="376" 
d="M32 731c4 0 7.33789 -1.33203 10.0049 -3.99902s4 -6 4 -10v-387c15.333 25.333 35.166 45.666 59.499 60.999s51.166 23.333 80.499 24c44.667 1.33301 83.5 -14.334 116.5 -47.001s51.833 -73.334 56.5 -122.001v-1l0.5 -1.5c0.333008 -1 0.5 -1.83301 0.5 -2.5v-1
c0 -1.33301 -0.333008 -2.66602 -1 -3.99902v-229c0 -4 -1.33301 -7.33301 -4 -10s-6 -4 -10 -4s-7.33301 1.33301 -10 4s-4 6 -4 10v240c-4.66699 40.667 -20.834 74.334 -48.501 101.001s-59.834 39.667 -96.501 39s-68.334 -15 -95.001 -43s-41.667 -62.333 -45 -103
v-234c0 -4 -1.33301 -7.33301 -4 -10s-5.66699 -4 -9 -4c-4 0 -7.5 1.33301 -10.5 4s-4.5 6 -4.5 10v710c0 7.33301 3.66699 12 11 14h3z" />
    <glyph glyph-name="glyph_9" unicode="i" horiz-adv-x="99" 
d="M75 533c0 -8 -2.83301 -14.667 -8.5 -20s-12.167 -8 -19.5 -8s-13.833 2.66699 -19.5 8s-8.5 12 -8.5 20c0 7.33301 2.83301 13.833 8.5 19.5s12.167 8.5 19.5 8.5s13.833 -2.83301 19.5 -8.5s8.5 -12.167 8.5 -19.5zM47 422c4 0 7.33301 -1.33301 10 -4s4 -6 4 -10v-395
c0 -4 -1.33301 -7.33301 -4 -10s-6 -4 -10 -4s-7.33301 1.33301 -10 4s-4 6 -4 10v395c0 7.33301 3.33301 12 10 14h4z" />
    <glyph glyph-name="glyph_10" unicode="j" horiz-adv-x="199" 
d="M127 516c0 -8 -2.83203 -14.835 -8.49902 -20.502s-12.334 -8.5 -20.001 -8.5s-14.167 2.83301 -19.5 8.5s-8 12.334 -8 20.001s2.66699 14.167 8 19.5s12 8 20 8c7.33301 0 13.833 -2.66699 19.5 -8s8.5 -11.666 8.5 -18.999zM99.001 403.998
c3.33301 0 6.5 -1.33301 9.5 -4s4.5 -6 4.5 -10v-577c-1.33301 -30 -13 -55.667 -35 -77c-21.333 -20.667 -46.333 -31 -75 -31h-4c-3.33301 0 -6.5 1.33301 -9.5 4s-4.5 6 -4.5 10s1.5 7.33301 4.5 10s6.16699 4 9.5 4h1c22 0 41.333 7.66699 58 23s25.667 34.333 27 57v1
c-0.666992 0.666992 -1 1.16699 -1 1.5s0.333008 0.833008 1 1.5v572l-1 1c0 7.33301 3.66699 12 11 14h4z" />
    <glyph glyph-name="glyph_11" unicode="k" horiz-adv-x="350" 
d="M39 739c4 0 7.33301 -1.33203 10 -3.99902s4 -6 4 -10v-710c0 -4 -1.33301 -7.33301 -4 -10s-6 -4 -10 -4s-7.33301 1.33301 -10 4s-4 6 -4 10v711c0 7.33301 3.66699 11.666 11 12.999h3zM313 424.001c4 0 7.33301 -1.33301 10 -4s4 -6 4 -10
c0 -4.66699 -2 -8.33398 -6 -11.001l-221 -186l221 -187c3.33301 -2.66699 5 -6.33398 5 -11.001c0 -4 -1.33301 -7.33301 -4 -10s-6 -4 -10 -4c-3.33301 0 -6.33301 1 -9 3l-234 197c-3.33301 2.66699 -5 6.33398 -5 11.001s1.66699 8.33398 5 11.001l234 197
c2 1.33301 4 2.33301 6 3c0.666992 0.666992 1.66699 1 3 1h1z" />
    <glyph glyph-name="glyph_12" unicode="l" horiz-adv-x="99" 
d="M44 737c4 0 7.33301 -1.33203 10 -3.99902s4 -6 4 -10v-710c0 -4 -1.33301 -7.33301 -4 -10s-6 -4 -10 -4s-7.33301 1.33301 -10 4s-4 6 -4 10v711c0 7.33301 3.66699 11.666 11 12.999h3z" />
    <glyph glyph-name="glyph_13" unicode="m" horiz-adv-x="698" 
d="M34 415c4 0 7.33008 -1.49512 9.99707 -4.49512s4 -6.16699 4 -9.5v-72c15.333 25.333 35.166 45.5 59.499 60.5s50.833 22.833 79.5 23.5c35.333 1.33301 67.5 -8.33398 96.5 -29.001s50.167 -48 63.5 -82c13.333 32.667 33.666 59.167 60.999 79.5s58 30.833 92 31.5
c44 1.33301 82.667 -14 116 -46s52.333 -72 57 -120c0.666992 -0.666992 1 -1.33398 1 -2.00098v-240c0 -3.33301 -1.33301 -6.5 -4 -9.5s-6 -4.5 -10 -4.5s-7.33301 1.5 -10 4.5s-4 6.16699 -4 9.5v233c-2.66699 42.667 -18.167 78.167 -46.5 106.5
s-61.166 41.833 -98.499 40.5c-36 -0.666992 -67.333 -14.334 -94 -41.001s-42 -59.667 -46 -99c0.666992 -0.666992 0.833984 -1.5 0.500977 -2.5s-0.333008 -1.83301 0 -2.5s0.5 -1.16699 0.5 -1.5s-0.333008 -0.833008 -1 -1.5v-232c0 -3.33301 -1.33301 -6.5 -4 -9.5
s-5.66699 -4.5 -9 -4.5c-4 0 -7.5 1.5 -10.5 4.5s-4.5 6.16699 -4.5 9.5v233c-2.66699 42.667 -18.167 78.167 -46.5 106.5s-61.5 41.833 -99.5 40.5c-36.667 -0.666992 -68.167 -14.834 -94.5 -42.501s-41.166 -61.834 -44.499 -102.501v-235
c0 -3.33301 -1.33301 -6.5 -4 -9.5s-6 -4.5 -10 -4.5s-7.33301 1.5 -10 4.5s-4 6.16699 -4 9.5v395c0 6.66699 3.33301 11 10 13c0.666992 0.666992 1.33398 1 2.00098 1c0.666992 0.666992 1.33398 1 2.00098 1z" />
    <glyph glyph-name="glyph_14" unicode="n" horiz-adv-x="400" 
d="M43 412c4 0 7.33789 -1.33203 10.0049 -3.99902s4 -6 4 -10v-71c15.333 25.333 35.166 45.5 59.499 60.5s51.166 22.833 80.499 23.5h5c42 0 79 -15.333 111 -46c33.333 -32.667 52.333 -73 57 -121v-1c0 -0.666992 0.166992 -1.5 0.5 -2.5s0.5 -1.83301 0.5 -2.5
c0 -2 -0.333008 -3.66699 -1 -5v-229c0 -4 -1.33301 -7.33301 -4 -10s-6 -4 -10 -4s-7.33301 1.33301 -10 4s-4 6 -4 10v240c-4.66699 40.667 -20.834 74.334 -48.501 101.001s-59.834 39.334 -96.501 38.001c-36.667 -0.666992 -68.334 -14.834 -95.001 -42.501
s-41.667 -61.834 -45 -102.501v-234c0 -4 -1.33301 -7.33301 -4 -10s-5.66699 -4 -9 -4c-4 0 -7.5 1.33301 -10.5 4s-4.5 6 -4.5 10v395c0 7.33301 3.66699 11.666 11 12.999h3z" />
    <glyph glyph-name="glyph_15" unicode="o" horiz-adv-x="456" 
d="M50 204c0 -50.667 17.833 -93.834 53.5 -129.501s78.667 -53.5 129 -53.5s93.166 17.833 128.499 53.5s53 78.834 53 129.501s-17.667 93.834 -53 129.501s-78.166 53.5 -128.499 53.5s-93.333 -17.833 -129 -53.5s-53.5 -78.834 -53.5 -129.501zM441 204
c0 -58.667 -20.333 -108.5 -61 -149.5s-89.667 -61.5 -147 -61.5c-58 0 -107.5 20.5 -148.5 61.5s-61.5 90.833 -61.5 149.5c0 58 20.5 107.667 61.5 149s90.5 62 148.5 62c57.333 0 106.333 -20.667 147 -62s61 -91 61 -149z" />
    <glyph glyph-name="glyph_16" unicode="p" horiz-adv-x="408" 
d="M39 430c4 0 7.66797 -1.33301 11.001 -4s5 -6 5 -10v-22c34 16.667 69.667 25 107 25c48 0 91.667 -12 131 -36c52 -32.667 83.667 -77 95 -133c2.66699 -13.333 4 -26.333 4 -39c0 -41.333 -13.667 -80 -41 -116c-33.333 -44 -78.333 -71.833 -135 -83.5
s-110.334 -5.5 -161.001 18.5v-304c0 -4 -1.66699 -7.5 -5 -10.5s-7 -4.5 -11 -4.5s-7.5 1.5 -10.5 4.5s-4.5 6.5 -4.5 10.5v640c-0.666992 1.33301 -1 2.33301 -1 3s0.333008 1.66699 1 3v43c-0.666992 0 -1 0.333008 -1 1c0 7.33301 4 12 12 14h4zM55.001 361
l-0.000976562 -297.999c44.667 -26 93.334 -34.5 146.001 -25.5s94.334 33.833 125.001 74.5c31.333 40 42.166 84.167 32.499 132.5s-37.167 86.166 -82.5 113.499c-34.667 21.333 -72.667 32 -114 32c-39.333 0 -75 -9.66699 -107 -29z" />
    <glyph glyph-name="glyph_17" unicode="q" horiz-adv-x="441" 
d="M427 203c0 -59.333 -21.666 -109.667 -64.999 -151l58 -35c6 -2 9 -6.33301 9 -13c0 -4 -1.33301 -7.33301 -4 -10s-6 -4 -10 -4c-3.33301 0 -6.33301 1.33301 -9 4l-66 38c-36.667 -26.667 -77.334 -40 -122.001 -40c-58 0 -107.333 20.667 -148 62s-61 91 -61 149
s20.333 107.667 61 149s90 62 148 62c57.333 0 106.5 -20.667 147.5 -62s61.5 -91 61.5 -149zM218.001 19.999c33.333 0 65 9.33203 95 27.999l-43 25c-4.66699 2.66699 -7 6.66699 -7 12c0 3.33301 1.16699 6.33301 3.5 9s5.5 4.33398 9.5 5.00098h2
c2.66699 0 5 -0.666992 7 -2l53 -31c40.667 36.667 61 82.334 61 137.001c0 50.667 -17.667 93.834 -53 129.501s-78 53.5 -128 53.5s-92.667 -17.833 -128 -53.5s-53 -78.834 -53 -129.501s17.667 -93.834 53 -129.501s78 -53.5 128 -53.5z" />
    <glyph glyph-name="glyph_18" unicode="r" horiz-adv-x="216" 
d="M31 418c4 0 7.33496 -1.33105 10.002 -3.99805s4 -6 4 -10v-72c15.333 25.333 35.166 45.666 59.499 60.999s50.833 23.333 79.5 24h5c4 0 7.33301 -1.33301 10 -4s4 -5.66699 4 -9c0 -4 -1.33301 -7.5 -4 -10.5s-6 -4.5 -10 -4.5h-4
c-36.667 -0.666992 -68.334 -15.167 -95.001 -43.5s-41.667 -62.833 -45 -103.5v-238c0 -3.33301 -1.33301 -6.5 -4 -9.5s-6 -4.5 -10 -4.5s-7.33301 1.5 -10 4.5s-4 6.16699 -4 9.5v401c0 7.33301 3.66699 11.666 11 12.999h3z" />
    <glyph glyph-name="glyph_19" unicode="s" horiz-adv-x="327" 
d="M162 417c23.333 0 45 -3.99414 65 -11.9941c21.333 -9.33301 37.666 -22.333 48.999 -39c2.66699 -2.66699 4 -6 4 -10s-1.33301 -7.33301 -4 -10s-6 -4 -10 -4c-6 0 -10 2.66699 -12 8c-8.66699 12 -21.667 21.667 -39 29s-36.333 10.666 -57 9.99902
c-29.333 0 -54 -7.33301 -74 -22c-18.667 -14 -27.667 -29.667 -27 -47c0.666992 -18 10.334 -33.333 29.001 -46c20 -13.333 43.667 -20.333 71 -21h6c1.33301 -0.666992 2.33301 -1 3 -1h2c39.333 -2 72.833 -15 100.5 -39s41.5 -53.333 41.5 -88v-3
c0 -34.667 -14 -64.334 -42 -89.001c-29.333 -25.333 -64.666 -38 -105.999 -38h-3c-39.333 0 -73.333 12 -102 36c-30 24 -45.667 53.667 -47 89h-1v3c0.666992 4 2.33398 7.33301 5.00098 10s5.66699 4 9 4c2 0 4 -0.333008 6 -1h1l1 -1h1v-1h1
c0.666992 -0.666992 1.33398 -1.66699 2.00098 -3l1 -1v-1l1 -1v-5c0.666992 -27.333 13 -51 37 -71s53.167 -29.833 87.5 -29.5s63.166 10.666 86.499 30.999s34.666 44.166 33.999 71.499c0 26.667 -11.333 49.667 -34 69s-50.334 29.666 -83.001 30.999h-8
c-0.666992 0 -1.66699 0.333008 -3 1h-3c-30.667 1.33301 -57 9.33301 -79 24c-28 18.667 -42.333 41.667 -43 69s12 50.666 38 69.999c25.333 18.667 55.333 28 90 28h5z" />
    <glyph glyph-name="glyph_20" unicode="t" horiz-adv-x="221" 
d="M68 613c4 0 7.50195 -1.33203 10.502 -3.99902s4.5 -6 4.5 -10l-1 -1v-183h104c4 0 7.33301 -1.33301 10 -4s4 -5.66699 4 -9c0 -4 -1.33301 -7.5 -4 -10.5s-6 -4.5 -10 -4.5h-104v-339c0.666992 -0.666992 1 -1.16699 1 -1.5s-0.333008 -0.833008 -1 -1.5
c0.666992 -6 4.66699 -11.333 12 -16c8.66699 -5.33301 19.667 -8 33 -8c12.667 0 23.667 3 33 9c8 5.33301 12 10.666 12 15.999v1c0 6.66699 3 11 9 13c1.33301 0.666992 3 1 5 1c4 0 7.33301 -1.33301 10 -4s4 -6 4 -10v-1c0 -15.333 -8 -28.333 -24 -39
c-14 -9.33301 -30.333 -14 -49 -14s-34.667 4.33301 -48 13c-12.667 8 -20.334 19 -23.001 33c-0.666992 2 -1.33398 3.66699 -2.00098 5v343h-26c-4 0 -7.33301 1.33301 -10 4s-4 6 -4 10c0 3.33301 1.16699 6.5 3.5 9.5s5.16602 4.5 8.49902 4.5h28v184
c0 6.66699 3.33301 11 10 13c0.666992 0.666992 1.33398 1 2.00098 1h2z" />
    <glyph glyph-name="glyph_21" unicode="u" 
d="M53 402l-0.00195312 -234.003c3.33301 -42.667 19 -78.167 47 -106.5s61 -42.166 99 -41.499c36.667 1.33301 68.334 16 95.001 44s41.667 62 45 102v17c-0.666992 0.666992 -1 1.33398 -1 2.00098s0.333008 1.33398 1 2.00098v214c0 7.33301 3.33301 12 10 14h4
c3.33301 0 6.5 -1.33301 9.5 -4s4.5 -6 4.5 -10v-395c0 -4 -1.5 -7.33301 -4.5 -10s-6.16699 -4 -9.5 -4c-4 0 -7.33301 1.33301 -10 4s-4 6 -4 10v71c-15.333 -25.333 -35.166 -45.5 -59.499 -60.5s-50.833 -22.833 -79.5 -23.5c-44.667 -0.666992 -83.667 15 -117 47
s-52.333 71.667 -57 119v2l-0.5 0.5l-0.5 0.5v239c0 7.33301 3.66699 12 11 14c1.33301 0.666992 2.33301 1 3 1c4 0 7.33301 -1.33301 10 -4s4 -6 4 -10z" />
    <glyph glyph-name="glyph_22" unicode="v" horiz-adv-x="383" 
d="M32 420c6.66699 0 11.001 -3.00098 13.001 -9.00098l141 -365l145 366c2 4.66699 6 7.33398 12 8.00098h1c4 0 7.33301 -1.33301 10 -4s4 -6 4 -10c0 -1.33301 -0.333008 -3 -1 -5l-157 -396v-1c0 -0.666992 -0.333008 -1.33398 -1 -2.00098
s-1.33398 -1.66699 -2.00098 -3c-1.33301 -2 -3 -3.66699 -5 -5h-6c-5.33301 0 -9.33301 2.33301 -12 7c-0.666992 0.666992 -1 1.33398 -1 2.00098l-1 1v2l-153 395c-0.666992 2 -1 4 -1 6c0 6.66699 3.33301 11 10 13h4z" />
    <glyph glyph-name="glyph_23" unicode="w" horiz-adv-x="527" 
d="M26 416c7.33301 0 11.9971 -3.33887 13.9971 -10.0059l104 -349l102 345c0 1.33301 0.333008 2.66602 1 3.99902v1c0.666992 1.33301 1.33398 2.33301 2.00098 3c0 0.666992 0.333008 1.33398 1 2.00098s1.66699 1.33398 3 2.00098
c0.666992 0.666992 1.33398 1 2.00098 1c0.666992 0.666992 1.33398 1 2.00098 1h5c0.666992 0 1.33398 -0.333008 2.00098 -1c2.66699 -0.666992 5 -2 7 -4c0.666992 -0.666992 1 -1.66699 1 -3c0.666992 0 1 -0.333008 1 -1v-1c0.666992 -1.33301 1 -2.66602 1 -3.99902
l103 -346l104 350c1.33301 6 5.33301 9.33301 12 10h1c4 0 7.33301 -1.33301 10 -4s4 -6 4 -10v-4l-116 -391v-1c0 -6 -2.66699 -10.333 -8 -13h-1l-1 -1h-9v1h-4v1c-4.66699 2.66699 -7 6.66699 -7 12v2l-102 345l-102 -346v-2l-2 -4
c-0.666992 -1.33301 -1.33398 -2.33301 -2.00098 -3h-1c-0.666992 -1.33301 -2 -2.66602 -4 -3.99902c-0.666992 0 -1.66699 -0.333008 -3 -1h-3c-2 0 -3.66699 0.333008 -5 1h-1c-1.33301 0.666992 -2.33301 1.33398 -3 2.00098l-1 1
c0 0.666992 -0.333008 1.33398 -1 2.00098l-1 1c-0.666992 0.666992 -1 1.33398 -1 2.00098v1l-1 3v1l-117 391v5c0 6.66699 3 11 9 13h5z" />
    <glyph glyph-name="glyph_24" unicode="x" horiz-adv-x="372" 
d="M30 422c4.66699 0 8.33398 -1.66797 11.001 -5.00098l145 -184l145 184c2.66699 2.66699 5.66699 4.33398 9 5.00098h3c3.33301 0 6.5 -1.33301 9.5 -4s4.5 -6 4.5 -10c0 -3.33301 -1.33301 -6.33301 -4 -9l-149 -189l149 -188c2 -2.66699 3 -5.33398 3 -8.00098
c0 -4 -1.33301 -7.33301 -4 -10s-6 -4 -10 -4s-7.66699 1.66699 -11 5l-145 184l-145 -184c-2.66699 -3.33301 -6.33398 -5 -11.001 -5c-4 0 -7.33301 1.33301 -10 4s-4 6 -4 10c0 2.66699 1 5.33398 3 8.00098l150 188l-150 189c-2.66699 2.66699 -4 6 -4 10
c0 6.66699 3.33301 11 10 13h5z" />
    <glyph glyph-name="glyph_25" unicode="y" horiz-adv-x="372" 
d="M37 407c6.66699 0 10.999 -2.66797 12.999 -8.00098l141 -364l146 364c2 4.66699 5.66699 7.33398 11 8.00098h2c4 0 7.33301 -1.33301 10 -4s4 -6 4 -10c0 -1.33301 -0.333008 -3 -1 -5l-274 -680c-1.33301 -8 -5.66602 -12 -12.999 -12c-4 0 -7.33301 1.5 -10 4.5
s-4 6.5 -4 10.5c0 2.66699 0.666992 5 2 7l113 280v1l-152 390c-0.666992 1.33301 -1 3 -1 5c0 6.66699 3 11 9 13h4z" />
    <glyph glyph-name="glyph_26" unicode="z" horiz-adv-x="388" 
d="M351 407l0.000976562 -1.00098h4v-1h1v-1h1c0 -0.666992 0.333008 -1 1 -1c0 -0.666992 0.333008 -1.33398 1 -2.00098v-1h1v-3c0.666992 -1.33301 1 -2.66602 1 -3.99902c0 -2 -0.666992 -4.33301 -2 -7h-1v-1l-2 -1l-2 -2l-290 -356h283c4 0 7.33301 -1.5 10 -4.5
s4 -6.16699 4 -9.5s-1.33301 -6.33301 -4 -9s-6 -4 -10 -4h-312c-2.66699 0 -5 0.333008 -7 1c-0.666992 0.666992 -1.33398 1 -2.00098 1h-1v1h-1l-2 4v1c-1.33301 1.33301 -2 3.33301 -2 6c0 2 1 4.33301 3 7c0 0.666992 0.333008 1.33398 1 2.00098l2 1l1 1l291 356h-285
c-4 0 -7.33301 1.33301 -10 4s-4 5.66699 -4 9c0 8 4 12.667 12 14h320z" />
    <glyph glyph-name="glyph_108" unicode="{" horiz-adv-x="270" 
d="M246 952l-0.99707 0.00390625c-17.333 0 -32 -6.66699 -44 -20s-18.333 -29 -19 -47v-294c0.666992 0 1 -0.5 1 -1.5s-0.333008 -1.83301 -1 -2.5v-1c0.666992 0 1 -0.166992 1 -0.5s-0.333008 -1.5 -1 -3.5v-2c-0.666992 -2 -1.33398 -3.33301 -2.00098 -4l-2 -2l-3 -4
c0 -0.666992 -0.333008 -1 -1 -1l-126 -173l127 -176c0.666992 0 1 -0.333008 1 -1l2 -3h1v-1c0 -0.666992 0.333008 -1 1 -1v-1h1v-2h1v-3c0.666992 0 1 -0.5 1 -1.5s-0.333008 -1.5 -1 -1.5v-1c0.666992 -0.666992 1 -1.5 1 -2.5s-0.333008 -2.16699 -1 -3.5
c0.666992 0 1 -0.166992 1 -0.5s-0.333008 -1.5 -1 -3.5v-284c0.666992 -0.666992 1 -1.33398 1 -2.00098s-0.333008 -1.33398 -1 -2.00098c0.666992 -17.333 7.16699 -32.833 19.5 -46.5s27.166 -20.5 44.499 -20.5h1c3.33301 0 6.5 -1.83301 9.5 -5.5
s4.5 -8.16699 4.5 -13.5c0 -6 -1.5 -10.833 -4.5 -14.5s-6.16699 -5.5 -9.5 -5.5h-1c-21.333 0 -40.5 8.16699 -57.5 24.5s-27.833 37.166 -32.5 62.499v1l-1 3c-0.666992 1.33301 -1 3.33301 -1 6v297l-130 181c-0.666992 0.666992 -1.33398 1 -2.00098 1h-1
c-5.33301 3.33301 -8 9 -8 17c0 2 0.333008 3.33301 1 4v6l2 2v3l6 6l132 182v298l2 8v4c4.66699 25.333 15.5 45.666 32.5 60.999s36.167 23 57.5 23c4 0 7.33301 -1.83301 10 -5.5s4 -8.16699 4 -13.5s-1.33301 -9.83301 -4 -13.5s-6 -5.5 -10 -5.5z" />
    <glyph glyph-name="glyph_102" unicode="|" horiz-adv-x="200" 
d="M98 871c4 0 7.33301 -1.50098 10 -4.50098s4 -6.16699 4 -9.5v-842c0 -3.33301 -1.33301 -6.5 -4 -9.5s-6 -4.5 -10 -4.5s-7.33301 1.5 -10 4.5s-4 6.16699 -4 9.5v841c0 6.66699 3.33301 11.334 10 14.001h1c1.33301 0.666992 2.33301 1 3 1z" />
    <glyph glyph-name="glyph_109" unicode="}" horiz-adv-x="300" 
d="M29 -163h0.99707c17.333 0 32 6.83301 44 20.5s18.333 29.167 19 46.5v294c-0.666992 0 -1 0.5 -1 1.5s0.333008 1.83301 1 2.5v1c-0.666992 0 -1 0.166992 -1 0.5s0.333008 1.16602 1 2.49902v3c0.666992 2 1.33398 3.33301 2.00098 4l2 2l3 3c0 1.33301 0.333008 2 1 2
l125 175l-127 175c-0.666992 0 -1 0.333008 -1 1l-2 2h-1v1c0 0.666992 -0.333008 1 -1 1v1h-1v2h-1v4c-0.666992 0 -1 0.333008 -1 1s0.333008 1 1 1v1c-0.666992 0.666992 -1 1.5 -1 2.5s0.333008 2.5 1 4.5c-0.666992 0 -1 0.166992 -1 0.5s0.333008 1.16602 1 2.49902
v285c-0.666992 0.666992 -1 1.33398 -1 2.00098s0.333008 1.33398 1 2.00098c-0.666992 18.667 -7.16699 34.5 -19.5 47.5s-27.166 19.5 -44.499 19.5h-1c-3.33301 0 -6.5 1.83301 -9.5 5.5s-4.5 8.5 -4.5 14.5c0 5.33301 1.5 9.83301 4.5 13.5s6.16699 5.5 9.5 5.5h1
c21.333 0 40.5 -8 57.5 -24s27.833 -37 32.5 -63v-1l1 -1c0.666992 -2 1 -4.33301 1 -7v-299l130 -181c0.666992 -0.666992 1.33398 -1 2.00098 -1h1c5.33301 -3.33301 8 -9 8 -17c0 -0.666992 -0.333008 -2 -1 -4v-6l-2 -2v-3l-6 -6l-131 -182v-298l-2 -8v-4
c-4.66699 -24.667 -15.5 -45 -32.5 -61s-36.167 -24 -57.5 -24c-4 0 -7.33301 2 -10 6s-4 8.66699 -4 14s1.33301 9.83301 4 13.5s6 5.5 10 5.5z" />
    <glyph glyph-name="glyph_136" unicode="~" horiz-adv-x="300" 
d="M126 943c8.66699 0 16.666 -2 23.999 -6c5.33301 -2.66699 10 -6.33398 14 -11.001c0.666992 -0.666992 2 -2.66699 4 -6c0.666992 -1.33301 1.66699 -2.66602 3 -3.99902v-2c0.666992 -1.33301 1 -2.33301 1 -3v-3c0.666992 0 1 -0.333008 1 -1v-4h1
c0.666992 -0.666992 2.33398 -1.66699 5.00098 -3c5.33301 -2.66699 11.333 -3.33398 18 -2.00098s12.167 4.5 16.5 9.5s6.5 9.5 6.5 13.5c-0.666992 0.666992 -1 1.5 -1 2.5s0.333008 1.83301 1 2.5c-0.666992 0 -1 0.166992 -1 0.5s0.333008 0.833008 1 1.5
c1.33301 5.33301 5 8.33301 11 9c0.666992 0.666992 1.66699 1 3 1c2 0 4 -0.666992 6 -2c2.66699 -1.33301 4.66699 -3.33301 6 -6l1 -1v-1c0 -0.666992 0.333008 -1 1 -1v-6c0 -4.66699 -0.666992 -9.33398 -2 -14.001s-2.66602 -7.66699 -3.99902 -9
c-8 -14 -21 -23 -39 -27c-4.66699 -1.33301 -9.33398 -2 -14.001 -2c-8 0 -15.667 2 -23 6c-8.66699 4.66699 -14.667 11.334 -18 20.001v1l-1 1c-0.666992 0.666992 -1 1.33398 -1 2.00098c-0.666992 1.33301 -1 3 -1 5v1c0 1.33301 -0.333008 2.33301 -1 3h-1
c-0.666992 1.33301 -2.33398 2.66602 -5.00098 3.99902c-6 2.66699 -12 3.33398 -18 2.00098c-7.33301 -2 -12.833 -5.33301 -16.5 -10s-5.16699 -9 -4.5 -13v-6c-0.666992 -0.666992 -1 -1.33398 -1 -2.00098v-1l-2 -2c0 -0.666992 -0.333008 -1 -1 -1
c-1.33301 -2 -2.66602 -3.33301 -3.99902 -4c-2 -0.666992 -4 -1 -6 -1c-8 0 -12.667 4 -14 12c-0.666992 2.66699 -1 5.66699 -1 9c0 8.66699 3.33301 17 10 25c8 10.667 19 17.667 33 21c4 0.666992 7 1.33398 9 2.00098h4z" />
    <glyph glyph-name="uni00A0" unicode="&#xa0;" 
 />
    <glyph glyph-name="glyph_134" unicode="&#xa1;" horiz-adv-x="200" 
d="M95 7c-8 2 -12.001 6.66699 -12.001 14v590c0 3.33301 1.5 6.5 4.5 9.5s6.33301 4.5 10 4.5s6.83398 -1.5 9.50098 -4.5s4 -6.16699 4 -9.5v-590c0 -3.33301 -1.33301 -6.5 -4 -9.5s-6 -4.5 -10 -4.5h-2zM55.999 834c0 11.333 4.16797 21 12.501 29s18.166 12 29.499 12
c10.667 0 20 -4 28 -12s12 -17.667 12 -29s-4 -21 -12 -29s-17.5 -12 -28.5 -12s-20.667 4 -29 12s-12.5 17.667 -12.5 29z" />
    <glyph glyph-name="glyph_127" unicode="&#xa2;" horiz-adv-x="499" 
d="M249 739c4 0 7.33301 -1.50098 10 -4.50098s4 -6.16699 4 -9.5v-112c50.667 1.33301 95.667 -14.334 135 -47.001c8 -6.66699 14.333 -12.334 19 -17.001c3.33301 -3.33301 5 -7 5 -11c0 -2.66699 -0.666992 -5.33398 -2 -8.00098l-4 -4
c-2.66699 -1.33301 -5.33398 -2 -8.00098 -2c-4.66699 0 -8.33398 1.66699 -11.001 5c-3.33301 4 -9 9 -17 15c-34 28 -73 41.667 -117 41v-366c7.33301 0 14.666 0.333008 21.999 1c4.66699 0 10 0.666992 16 2c18 4 34.333 10 49 18l16 9
c4.66699 3.33301 9.33398 7 14.001 11c10 8.66699 18.667 17.334 26 26.001v1c3.33301 3.33301 7 5 11 5c2.66699 0 5.33398 -0.666992 8.00098 -2c0.666992 -0.666992 1.33398 -1.66699 2.00098 -3c2.66699 -2.66699 4 -6 4 -10v-3
c0 -0.666992 -0.333008 -1.33398 -1 -2.00098c-0.666992 -1.33301 -1.33398 -2.33301 -2.00098 -3c-14 -17.333 -29.333 -31.666 -46 -42.999c-12 -8 -24 -14.333 -36 -19c-2 -1.33301 -8.33301 -3.66602 -19 -6.99902c-13.333 -3.33301 -26.666 -5.66602 -39.999 -6.99902
c-7.33301 -1.33301 -15.333 -1.66602 -24 -0.999023v-119c0 -3.33301 -1.33301 -6.5 -4 -9.5s-6 -4.5 -10 -4.5s-7.33301 1.5 -10 4.5s-4 6.16699 -4 9.5v121c-38.667 6 -72.667 21 -102 45c-44.667 36.667 -69.667 84 -75 142c-1.33301 8 -2 15.667 -2 23
c0 48.667 16 92.667 48 132c34 42.667 77.667 68 131 76v113c0 7.33301 3.33301 12 10 14h4zM138 531.999c-3.33301 -3.33301 -7.33301 -8.00098 -12 -14.001c-24 -29.333 -37.667 -62.666 -41 -99.999c-0.666992 -6.66699 -1 -12.334 -1 -17.001
c0.666992 -36 11 -69.333 31 -100c4.66699 -6.66699 8.33398 -11.667 11.001 -15c7.33301 -9.33301 16 -18 26 -26c14 -11.333 29.667 -20.666 47 -27.999c7.33301 -3.33301 13 -5.33301 17 -6c5.33301 -2 11.666 -3.66699 18.999 -5v362
c-38 -6.66699 -70.333 -23.667 -97 -51z" />
    <glyph glyph-name="glyph_128" unicode="&#xa3;" horiz-adv-x="499" 
d="M138 856c3.33301 0 6.5 -1.33398 9.5 -4.00098s4.5 -6 4.5 -10v-406h182c4 0 7.33301 -1.33301 10 -4s4 -6 4 -10s-1.33301 -7.33301 -4 -10s-6 -4 -10 -4h-182v-392h266c4 0 7.33301 -1.33301 10 -4s4 -6 4 -10s-1.33301 -7.33301 -4 -10s-6 -4 -10 -4h-285l-1 1h-1l1 1
h-3v1h-1c-3.33301 3.33301 -5 7 -5 11c0 2 0.333008 3.66699 1 5v401h-72c-4 0 -7.33301 1.33301 -10 4s-4 6 -4 10c0 3.33301 1.33301 6.33301 4 9s5.66699 4.33398 9 5.00098h73v407c0 6.66699 3 11 9 13h5z" />
    <glyph glyph-name="glyph_129" unicode="&#xa4;" horiz-adv-x="604" 
d="M64 649c1.33301 0.666992 2.66992 1.00098 4.00293 1.00098c2 0 4 -0.666992 6 -2c1.33301 -0.666992 2.66602 -1.66699 3.99902 -3l116 -116c28 24 60.667 36 98 36s70 -11.667 98 -35l116 115c2 2 4.33301 3.33301 7 4c1.33301 0.666992 2.33301 1 3 1
c4 0 7.33301 -1.5 10 -4.5s4 -6.33301 4 -10s-1.33301 -6.83398 -4 -9.50098l-115 -116c23.333 -28.667 35 -61.667 35 -99s-11.667 -70.333 -35 -99l115 -115c3.33301 -2.66699 5 -6.33398 5 -11.001c0 -4 -1.33301 -7.33301 -4 -10s-6 -4 -10 -4
c-4.66699 0 -8.33398 2 -11.001 6l-116 114c-28 -23.333 -60.667 -35 -98 -35s-70 12 -98 36l-116 -115c-2.66699 -4 -6.33398 -6 -11.001 -6c-4 0 -7.33301 1.33301 -10 4s-4 6 -4 10c0 4.66699 1.66699 8.33398 5 11.001l115 116c-23.333 28.667 -35 61.5 -35 98.5
s11.667 69.5 35 97.5l-115 117c-3.33301 2.66699 -5 6 -5 10c0 6.66699 3 11 9 13h2zM214.004 509.001l32.002 -31.999c3.33301 -2.66699 5 -6.33398 5 -11.001c0 -2.66699 -0.666992 -5 -2 -7s-2.66602 -3.66699 -3.99902 -5c-2 -1.33301 -4.66699 -2 -8 -2
c-4.66699 0 -8.33398 2 -11.001 6l-32 31c-18.667 -23.333 -28 -49.166 -28 -77.499s9.33301 -54.5 28 -78.5l32 32c2 2 4.33301 3.33301 7 4c1.33301 0.666992 2.33301 1 3 1c4 0 7.33301 -1.5 10 -4.5s4 -6.33301 4 -10s-1.33301 -6.83398 -4 -9.50098l-32 -33
c23.333 -18.667 49.333 -28 78 -28s54.667 9.33301 78 28l-32 33c-2.66699 2.66699 -4 6 -4 10c0 7.33301 3.33301 11.666 10 12.999c1.33301 0.666992 2.66602 1 3.99902 1c4 0 7.33301 -1.66699 10 -5l32 -32c18.667 23.333 28 49.5 28 78.5s-9.33301 55.167 -28 78.5
l-32 -32c-2.66699 -4 -6.33398 -6 -11.001 -6c-4 0 -7.33301 1.33301 -10 4s-4 6 -4 10c0 4.66699 1.66699 8.33398 5 11.001l32 32c-23.333 18.667 -49.333 28 -78 28s-54.667 -9.33301 -78 -28z" />
    <glyph glyph-name="glyph_130" unicode="&#xa5;" horiz-adv-x="704" 
d="M61 863c5.33301 0 9.33496 -2.33301 12.002 -7l268 -403l268 403c2 2.66699 5 4.66699 9 6h4c3.33301 0 6.5 -1.33301 9.5 -4s4.5 -6 4.5 -10c0 -3.33301 -1 -6 -3 -8l-278 -416v-122h127c3.33301 0 6.5 -1.5 9.5 -4.5s4.5 -6.33301 4.5 -10s-1.5 -6.83398 -4.5 -9.50098
s-6.16699 -4 -9.5 -4h-127v-56h127c3.33301 0 6.5 -1.5 9.5 -4.5s4.5 -6.33301 4.5 -10s-1.5 -6.83398 -4.5 -9.50098s-6.16699 -4 -9.5 -4h-127v-183c0 -3.33301 -1.33301 -6.5 -4 -9.5s-5.66699 -4.5 -9 -4.5c-4 0 -7.5 1.5 -10.5 4.5s-4.5 6.16699 -4.5 9.5v183h-127
c-4 0 -7.33301 1.33301 -10 4s-4 6 -4 10c0 3.33301 1.16699 6.33301 3.5 9s5.16602 4.33398 8.49902 5.00098h129v56h-127c-4 0 -7.33301 1.33301 -10 4s-4 6 -4 10c0 3.33301 1.16699 6.33301 3.5 9s5.16602 4.33398 8.49902 5.00098h129v120l-278 418
c-2 2 -3 4.66699 -3 8c0 7.33301 3.66699 12 11 14c0.666992 0 1.66699 0.333008 3 1h1z" />
    <glyph glyph-name="glyph_86" unicode="&#xa6;" horiz-adv-x="199" 
d="M101 865c4 0 7.33301 -1.50098 10 -4.50098s4 -6.16699 4 -9.5v-282c0 -3.33301 -1.33301 -6.5 -4 -9.5s-6 -4.5 -10 -4.5s-7.33301 1.5 -10 4.5s-4 6.16699 -4 9.5v281c0 6.66699 3.33301 11.334 10 14.001h1c1.33301 0.666992 2.33301 1 3 1zM101 304.999
c4 0 7.33301 -1.50098 10 -4.50098s4 -6.16699 4 -9.5v-282c0 -3.33301 -1.33301 -6.5 -4 -9.5s-6 -4.5 -10 -4.5s-7.33301 1.5 -10 4.5s-4 6.16699 -4 9.5v281c0 6.66699 3.33301 11.334 10 14.001h1c1.33301 0.666992 2.33301 1 3 1z" />
    <glyph glyph-name="glyph_99" unicode="&#xa7;" horiz-adv-x="499" 
d="M380 732c0 -4 -1.33301 -7.33301 -4 -10s-6 -4 -10 -4s-7.33301 1.33301 -10 4s-4 6 -4 10c0 31.333 -10.833 58 -32.5 80s-47.834 33 -78.501 33s-56.834 -11 -78.501 -33s-32.5 -48.667 -32.5 -80s10.833 -58 32.5 -80s47.834 -33 78.501 -33h5
c48 -1.33301 88.833 -19.5 122.5 -54.5s50.5 -76.833 50.5 -125.5c0 -38 -10.667 -72.333 -32 -103s-49 -52.667 -83 -66c22.667 -12 41 -29 55 -51s21 -46.333 21 -73c0 -38.667 -13.5 -71.834 -40.5 -99.501s-59.833 -41.5 -98.5 -41.5s-71.5 13.833 -98.5 41.5
s-40.5 60.834 -40.5 99.501c0 4 1.33301 7.33301 4 10s6 4 10 4s7.33301 -1.33301 10 -4s4 -6 4 -10c0 -31.333 10.833 -58 32.5 -80s47.834 -33 78.501 -33s56.834 11 78.501 33s32.5 48.667 32.5 80s-10.833 58 -32.5 80s-47.834 33 -78.501 33h-6
c-48 1.33301 -88.667 19.5 -122 54.5s-50 76.833 -50 125.5c0 38 10.667 72.333 32 103s49 52.667 83 66c-22.667 12 -41 29 -55 51s-21 46.333 -21 73c0 38.667 13.5 71.834 40.5 99.501s59.833 41.5 98.5 41.5s71.5 -13.833 98.5 -41.5s40.5 -60.834 40.5 -99.501zM91 439
c0 -40.667 14 -75.8311 42 -105.498s62 -45.167 102 -46.5h6c41.333 0 76.666 14.833 105.999 44.5s44 65.5 44 107.5c0 41.333 -14.167 76.666 -42.5 105.999s-62.833 44.666 -103.5 45.999h-4c-41.333 0 -76.666 -14.833 -105.999 -44.5s-44 -65.5 -44 -107.5z" />
    <glyph glyph-name="glyph_137" unicode="&#xa8;" horiz-adv-x="317" 
d="M74 864c-11.333 0 -20.833 4 -28.5 12s-11.5 17.667 -11.5 29s3.83301 21 11.5 29s17.167 12 28.5 12s20.833 -4 28.5 -12s11.5 -17.667 11.5 -29s-3.83301 -21 -11.5 -29s-17.167 -12 -28.5 -12zM276 905c0 -11.333 -3.83398 -21 -11.501 -29s-17.167 -12 -28.5 -12
s-20.833 4 -28.5 12s-11.5 17.667 -11.5 29c0 10 3 18.667 9 26s13.667 12 23 14c2.66699 0.666992 5.33398 1 8.00098 1c11.333 0 20.833 -4 28.5 -12s11.5 -17.667 11.5 -29z" />
    <glyph glyph-name="copyright" unicode="&#xa9;" horiz-adv-x="0" 
 />
    <glyph glyph-name="glyph_154" unicode="&#xaa;" horiz-adv-x="158" 
d="M103 708c15.333 -5.33301 25.333 -15.002 30 -29.002c0.666992 -0.666992 1 -1.33398 1 -2.00098s0.333008 -1 1 -1v-2l1 -1v-81h2c1.33301 0 3 -0.333008 5 -1l1 -1c5.33301 -2.66699 8 -6.66699 8 -12v-3c-1.33301 -3.33301 -3.66602 -6 -6.99902 -8
c-0.666992 -1.33301 -1.33398 -2 -2.00098 -2c-2 -0.666992 -3.66699 -1 -5 -1c-10 0 -18 3.66699 -24 11c-13.333 -8.66699 -27 -13 -41 -13c-8.66699 0 -17.334 1.66699 -26.001 5c-15.333 6.66699 -24.666 17.334 -27.999 32.001
c-0.666992 2.66699 -1 5.33398 -1 8.00098c0 11.333 4.33301 22.333 13 33c10 12.667 22.667 21 38 25c11.333 3.33301 22.666 3.66602 33.999 0.999023h2.5c1 0 1.83301 -0.333008 2.5 -1v3v1l-0.5 0.5c-0.333008 0.333008 -0.5 0.833008 -0.5 1.5
c-2 4.66699 -6.66699 8.33398 -14 11.001c-8 3.33301 -16.333 4 -25 2c-9.33301 -2 -15.666 -5.33301 -18.999 -10c0 -0.666992 -0.333008 -1.33398 -1 -2.00098c-1.33301 -2 -3.33301 -3.66699 -6 -5c-2 -0.666992 -4 -1 -6 -1c-4 0 -7.33301 1.33301 -10 4s-4 6 -4 10
c0 4.66699 1.66699 8.33398 5 11.001c8.66699 10.667 20 17.667 34 21c5.33301 0.666992 9 1.33398 11 2.00098c10 0 20.333 -2 31 -6zM53 622.998c-4.66699 -6 -6.49902 -12 -5.49902 -18s4.5 -10 10.5 -12c7.33301 -3.33301 16 -3.33301 26 0
c5.33301 1.33301 10 3.33301 14 6c4 2 7.33301 4.66699 10 8v27c-2 1.33301 -3.66699 2.33301 -5 3c-4 1.33301 -8 2 -12 2c-16.667 0 -29.334 -5.33301 -38.001 -16z" />
    <glyph glyph-name="glyph_152" unicode="&#xab;" horiz-adv-x="432" 
d="M247 457c4 0 7.33203 -1.33496 9.99902 -4.00195s4 -6 4 -10c0 -6.66699 -2.66699 -11 -8 -13l-173 -129l173 -128c3.33301 -3.33301 5 -7.33301 5 -12c0 -4 -1.33301 -7.33301 -4 -10s-6 -4 -10 -4c-3.33301 0 -6.33301 1 -9 3l-184 138
c-2.66699 1.33301 -5 3.33301 -7 6v1c0 0.666992 -0.333008 1.33398 -1 2.00098v10h1v1l2 2c0 0.666992 0.333008 1.33398 1 2.00098c0.666992 0 1.33398 0.333008 2.00098 1l1 1h1l1 1l183 138c1.33301 1.33301 3 2 5 2l4 2h3zM358.999 456.998
c4 0 7.33301 -1.33594 10 -4.00293s4 -6 4 -10c0 -6.66699 -2.66699 -11 -8 -13l-173 -129l173 -128c3.33301 -3.33301 5 -7.33301 5 -12c0 -4 -1.33301 -7.33301 -4 -10s-6 -4 -10 -4c-3.33301 0 -6.33301 1 -9 3l-184 138c-2.66699 1.33301 -5 3.33301 -7 6v1
c0 0.666992 -0.333008 1.33398 -1 2.00098v10h1v1l2 2c0 0.666992 0.333008 1.33398 1 2.00098s1.66699 1.33398 3 2.00098h1l1 1l183 138c1.33301 1.33301 3 2 5 2l4 2h3z" />
    <glyph glyph-name="logicalnot" unicode="&#xac;" horiz-adv-x="382" 
d="M373 352c0 -4 -0.500977 -7.33301 -1.50098 -10s-2.16699 -4 -3.5 -4c-2 0 -3.5 1.33301 -4.5 4s-1.5 6 -1.5 10v126l-346 -1v29h352c2.66699 0 4.33398 -3 5.00098 -9v-145z" />
    <glyph glyph-name="uni00AD" unicode="&#xad;" horiz-adv-x="235" 
d="M187 462c1.33301 0 2.5 -1.33301 3.5 -4s1.5 -6 1.5 -10s-0.5 -7.33301 -1.5 -10s-2.16699 -4 -3.5 -4h-159c-1.33301 0 -2.5 1.33301 -3.5 4s-1.5 6 -1.5 10c0 8 1.33301 12.667 4 14h160z" />
    <glyph glyph-name="registered" unicode="&#xae;" horiz-adv-x="0" 
 />
    <glyph glyph-name="macron" unicode="&#xaf;" horiz-adv-x="199" 
d="M183 913c2 0 3.5 -1.33301 4.5 -4s1.5 -6 1.5 -10s-0.5 -7.33301 -1.5 -10s-2.5 -4 -4.5 -4h-166c-2 0 -3.5 1.33301 -4.5 4s-1.5 6 -1.5 10c0 8 1.66699 12.667 5 14h167z" />
    <glyph glyph-name="degree" unicode="&#xb0;" horiz-adv-x="186" 
d="M37 770c0 -15.333 5.33301 -28.334 16 -39.001s23.834 -16 39.501 -16s29 5.33301 40 16s16.5 23.834 16.5 39.501s-5.5 29 -16.5 40s-24.333 16.5 -40 16.5s-28.834 -5.5 -39.501 -16.5s-16 -24.5 -16 -40.5zM176 770.999c0 -23.333 -8.16699 -43.166 -24.5 -59.499
s-35.833 -24.5 -58.5 -24.5c-23.333 0 -43.166 8.16699 -59.499 24.5s-24.5 36.166 -24.5 59.499s8.16699 43.333 24.5 60s36.166 25 59.499 25c22.667 0 42.167 -8.33301 58.5 -25s24.5 -36.667 24.5 -60z" />
    <glyph glyph-name="glyph_121" unicode="&#xb1;" horiz-adv-x="701" 
d="M342 716c4 0 7.33301 -1.50195 10 -4.50195s4 -6.16699 4 -9.5v-197h197c3.33301 0 6.5 -1.5 9.5 -4.5s4.5 -6.16699 4.5 -9.5c0 -4 -1.5 -7.33301 -4.5 -10s-6.16699 -4 -9.5 -4h-197v-197c0 -3.33301 -1.33301 -6.5 -4 -9.5s-5.83398 -4.5 -9.50098 -4.5
s-7 1.5 -10 4.5s-4.5 6.16699 -4.5 9.5v197h-196l-1 -1c-4 0 -7.5 1.5 -10.5 4.5s-4.5 6.5 -4.5 10.5c0 3.33301 1.33301 6.33301 4 9s5.66699 4.33398 9 5.00098h199v196c0 6.66699 3.33301 11.334 10 14.001h2c0.666992 0.666992 1.33398 1 2.00098 1zM553 224.998
c3.33301 0 6.50098 -1.5 9.50098 -4.5s4.5 -6.16699 4.5 -9.5c0 -4 -1.5 -7.33301 -4.5 -10s-6.16699 -4 -9.5 -4h-421c-0.666992 -0.666992 -1.33398 -1 -2.00098 -1c-4 0 -7.5 1.5 -10.5 4.5s-4.5 6.5 -4.5 10.5c0 7.33301 4 12 12 14h426z" />
    <glyph glyph-name="glyph_157" unicode="&#xb2;" horiz-adv-x="133" 
d="M81 700c13.333 0 24.332 -4.32812 32.999 -12.9951s12 -20 10 -34c-1.33301 -8.66699 -5.33301 -17.334 -12 -26.001c-0.666992 -1.33301 -2 -2.66602 -4 -3.99902l-0.5 -1c-0.333008 -0.666992 -0.666016 -1 -0.999023 -1s-0.5 -0.333008 -0.5 -1l-39 -39h49l1 -1h2
l1 -1h1c2 -1.33301 3.33301 -2.66602 4 -3.99902c0 -0.666992 0.333008 -1 1 -1c0 -0.666992 0.333008 -1.33398 1 -2.00098v-1c0 -0.666992 0.333008 -1.33398 1 -2.00098v-6l-1 -1c-0.666992 -1.33301 -1 -2.33301 -1 -3l-1 -1c-1.33301 -2 -3.33301 -3.33301 -6 -4
c-2 -0.666992 -3.66699 -1 -5 -1h-76c-1.33301 -0.666992 -2.66602 -1 -3.99902 -1c-2.66699 0 -5.33398 1 -8.00098 3h-2l-2 4v1h-1v1c-0.666992 0 -1 0.333008 -1 1v1c-0.666992 1.33301 -1 2.66602 -1 3.99902s0.333008 2.66602 1 3.99902c0 0.666992 0.333008 1 1 1
c0 0.666992 0.333008 1.66699 1 3l2 2c1.33301 1.33301 2.66602 2.33301 3.99902 3l55 55l1 2l1 1c0 0.666992 0.333008 1 1 1c0.666992 1.33301 1.33398 2.33301 2.00098 3v1c0.666992 0 1 0.333008 1 1h1c0.666992 0 1 0.333008 1 1l1 1
c2.66699 3.33301 4.33398 7 5.00098 11c0.666992 3.33301 -0.666016 6.66602 -3.99902 9.99902c-2.66699 3.33301 -7.83398 4.83301 -15.501 4.5s-14.5 -2.83301 -20.5 -7.5s-9.66699 -10 -11 -16c-0.666992 -4 0.666016 -7.33301 3.99902 -10
c2.66699 -2.66699 4 -6.33398 4 -11.001v-2c-0.666992 -2 -1.66699 -4 -3 -6l-4 -4c-2 -1.33301 -4.33301 -2 -7 -2c-4 0 -7.33301 1.66699 -10 5c-8 7.33301 -12 16 -12 26c0 3.33301 0.333008 6.33301 1 9c2.66699 12.667 9.66699 23.5 21 32.5s24 13.833 38 14.5h3z" />
    <glyph glyph-name="glyph_158" unicode="&#xb3;" horiz-adv-x="117" 
d="M67 701c12 0 21.6719 -4.00098 29.0049 -12.001c8 -8.66699 9.66699 -19.667 5 -33c-2 -4.66699 -5.33301 -9.66699 -10 -15c6.66699 -4 11.667 -10.333 15 -19c1.33301 -3.33301 2.33301 -6.66602 3 -9.99902v-5c0 -4.66699 -0.666992 -9.33398 -2 -14.001
c-0.666992 -2 -2 -5 -4 -9c-5.33301 -8.66699 -12.333 -15.667 -21 -21c-2.66699 -1.33301 -6 -2.66602 -10 -3.99902c-2.66699 -0.666992 -6 -1.66699 -10 -3c-3.33301 -0.666992 -7 -1 -11 -1c-7.33301 0 -14.666 1.66699 -21.999 5c-11.333 4 -19.333 11 -24 21
c-1.33301 2 -2 4.66699 -2 8c0 4 1.33301 7.33301 4 10s6 4 10 4c2.66699 0 5 -0.666992 7 -2c1.33301 -0.666992 2.66602 -1.66699 3.99902 -3c0.666992 -0.666992 1.16699 -1.33398 1.5 -2.00098s0.5 -1.33398 0.5 -2.00098s0.333008 -1.33398 1 -2.00098
c1.33301 -2.66699 4.33301 -5 9 -7c3.33301 -0.666992 5.66602 -1 6.99902 -1c3.33301 -0.666992 6.66602 -0.666992 9.99902 0c7.33301 2 13.333 5.5 18 10.5s7 9.83301 7 14.5c-0.666992 4 -3.33398 7.33301 -8.00098 10c-5.33301 2.66699 -12 3 -20 1h-8l-1 1h-1
c-1.33301 0.666992 -2.33301 1.66699 -3 3h-1v1l-2 2v1c-0.666992 0.666992 -1 1.33398 -1 2.00098v9l1 1c0 0.666992 0.333008 1.33398 1 2.00098c0 0.666992 0.166992 1 0.5 1s0.5 0.333008 0.5 1c1.33301 0.666992 2.33301 1.66699 3 3h1
c0.666992 0.666992 1.66699 1 3 1h1c6 1.33301 11.667 4 17 8s8.66602 7.66699 9.99902 11c0.666992 1.33301 0.666992 2.33301 0 3c-1.33301 2 -4.33301 3 -9 3c-10 -0.666992 -19 -5 -27 -13c-2.66699 -2.66699 -4.33398 -4.66699 -5.00098 -6v-1
c0 -0.666992 -0.333008 -1 -1 -1v-2c-0.666992 0 -1 -0.333008 -1 -1c-2 -2 -4 -3.66699 -6 -5c-2 -0.666992 -3.66699 -1 -5 -1c-4 0 -7.33301 1.33301 -10 4s-4 6 -4 10c0 2 0.333008 4 1 6c4 11.333 11.167 20.333 21.5 27s21.833 10.334 34.5 11.001h3z" />
    <glyph glyph-name="acute" unicode="&#xb4;" horiz-adv-x="138" 
d="M18 908c0 4 1.33398 7.33398 4.00098 10.001l71 71l20 19l8 -7l1 -1c1.33301 -0.666992 2.66602 -1.66699 3.99902 -3v-2l1 -1c0.666992 -1.33301 1 -3 1 -5v-2c0 -0.666992 -0.333008 -1.33398 -1 -2.00098v-2l-2 -2v-1c-0.666992 0 -1 -0.333008 -1 -1l-1 -1l-2 -2
l-79 -77c-2.66699 -4 -6 -6 -10 -6c-7.33301 0 -12 3.66699 -14 11v4z" />
    <glyph glyph-name="mu" unicode="&#xb5;" horiz-adv-x="392" 
d="M25 401c0 7.33301 3.66504 11.998 10.998 13.998c1.33301 0.666992 2.33301 1 3 1c4 0 7.33301 -1.33301 10 -4s4 -6 4 -10v-234c3.33301 -42.667 19 -78.167 47 -106.5s61 -42.166 99 -41.499c36.667 1.33301 68.334 16 95.001 44s41.667 62 45 102v17
c-0.666992 0.666992 -1 1.33398 -1 2.00098s0.333008 1.33398 1 2.00098v214c0 7.33301 3.33301 12 10 14h4c3.33301 0 6.5 -1.33301 9.5 -4s4.5 -6 4.5 -10v-395c0 -4 -1.5 -7.33301 -4.5 -10s-6.16699 -4 -9.5 -4c-4 0 -7.33301 1.33301 -10 4s-4 6 -4 10v71
c-15.333 -25.333 -35.166 -45.5 -59.499 -60.5s-50.833 -22.833 -79.5 -23.5c-44.667 -0.666992 -83.667 15 -117 47c-12 11.333 -22 23.666 -30 36.999v-263c0 -4 -1.33301 -7.33301 -4 -10s-6 -4 -10 -4s-7.33301 1.33301 -10 4s-4 6 -4 10v587z" />
    <glyph glyph-name="paragraph" unicode="&#xb6;" horiz-adv-x="0" 
 />
    <glyph glyph-name="periodcentered" unicode="&#xb7;" horiz-adv-x="199" 
d="M142 499c0 -11.333 -4.16699 -21 -12.5 -29s-17.833 -12 -28.5 -12c-11.333 0 -21 4 -29 12s-12 17.667 -12 29s4 21 12 29s17.667 12 29 12c10.667 0 20.167 -4 28.5 -12s12.5 -17.667 12.5 -29z" />
    <glyph glyph-name="glyph_144" unicode="&#xb8;" horiz-adv-x="134" 
d="M26 24c4 0 7.33203 -1.33496 9.99902 -4.00195s4 -6 4 -10v-42c10 5.33301 20.667 7.66602 32 6.99902c14.667 -1.33301 27 -7.66602 37 -18.999c8.66699 -10 13 -21.667 13 -35v-4c-1.33301 -15.333 -7.66602 -28 -18.999 -38c-10 -8.66699 -21.333 -13 -34 -13h-6
c-2.66699 0 -5.66699 0.666992 -9 2c-4.66699 2.66699 -7 6.66699 -7 12c0 4 1.5 7.33301 4.5 10s6.16699 4 9.5 4h5c7.33301 -0.666992 13.666 1.33301 18.999 6s8.33301 10.667 9 18c0 7.33301 -2.33301 13.833 -7 19.5s-10.667 8.83398 -18 9.50098
s-13.666 -1.33301 -18.999 -6s-8.33301 -10.667 -9 -18c0 -1.33301 -0.333008 -2.66602 -1 -3.99902v-3c0 -3.33301 -1.33301 -6.33301 -4 -9s-6 -4 -10 -4s-7.33301 1.33301 -10 4s-4 6 -4 10v94c0 6.66699 3.33301 11 10 13h4z" />
    <glyph glyph-name="glyph_156" unicode="&#xb9;" horiz-adv-x="75" 
d="M57 690v-123.999c0 -3.33301 -1.5 -6.5 -4.5 -9.5s-6.16699 -4.5 -9.5 -4.5c-4 0 -7.33301 1.5 -10 4.5s-4 6.16699 -4 9.5v89c-8 1.33301 -12 5.66602 -12 12.999c0 2.66699 0.666992 5 2 7l10 19c1.33301 4.66699 4.33301 7.66699 9 9c1.33301 0.666992 3 1 5 1
c4 0 7.33301 -1.5 10 -4.5s4 -6.16699 4 -9.5z" />
    <glyph glyph-name="glyph_155" unicode="&#xba;" horiz-adv-x="164" 
d="M156 631c0 -20.667 -7.5 -38.334 -22.5 -53.001s-32.5 -22 -52.5 -22c-20.667 0 -38.334 7.33301 -53.001 22s-22 32.334 -22 53.001s7.33301 38.334 22 53.001s32.334 22 53.001 22c20 0 37.5 -7.33301 52.5 -22s22.5 -32.334 22.5 -53.001zM47 664
c-8.66699 -8.66699 -13 -19.667 -13 -33s4.5 -24.5 13.5 -33.5s20 -13.5 33 -13.5s24 4.5 33 13.5s13.5 20.167 13.5 33.5s-4.5 24.5 -13.5 33.5s-20 13.5 -33 13.5s-24.167 -4.66699 -33.5 -14z" />
    <glyph glyph-name="glyph_153" unicode="&#xbb;" 
d="M60 453l185.998 -140.001c0.666992 -0.666992 1.33398 -1 2.00098 -1c0.666992 -0.666992 1.33398 -1.66699 2.00098 -3l1 -1v-2c1.33301 -2.66699 2 -5 2 -7c0 -5.33301 -2.33301 -9.66602 -7 -12.999l-186 -140c-2.66699 -1.33301 -5.66699 -2 -9 -2
s-6.5 1.33301 -9.5 4s-4.5 6 -4.5 10c0 4.66699 2 8.33398 6 11.001l173 131l-173 130c-4 2.66699 -6 6.66699 -6 12c0 7.33301 3.66699 11.666 11 12.999c0.666992 0.666992 1.66699 1 3 1c3.33301 0 6.33301 -1 9 -3zM171.998 452.999l185.999 -140.001l1 -1h1
c0.666992 -0.666992 1.33398 -1.66699 2.00098 -3l1 -1v-2c1.33301 -2.66699 2 -5 2 -7c0 -5.33301 -2.33301 -9.66602 -7 -12.999l-186 -140c-2.66699 -1.33301 -5.66699 -2 -9 -2s-6.5 1.33301 -9.5 4s-4.5 6 -4.5 10c0 4.66699 2 8.33398 6 11.001l173 131l-173 130
c-4 2.66699 -6 6.66699 -6 12c0 7.33301 3.66699 11.666 11 12.999c0.666992 0.666992 1.66699 1 3 1c3.33301 0 6.33301 -1 9 -3z" />
    <glyph glyph-name="glyph_91" unicode="&#xbc;" horiz-adv-x="700" 
d="M176 859c2 0 3.66602 -0.333008 4.99902 -1c0.666992 -0.666992 1.33398 -1 2.00098 -1h1l2 -2h1c0.666992 0 1 -0.333008 1 -1v-1c1.33301 -0.666992 2.33301 -1.66699 3 -3v-2h1v-341c0 -3.33301 -1.33301 -6.5 -4 -9.5s-6 -4.5 -10 -4.5s-7.33301 1.5 -10 4.5
s-4 6.16699 -4 9.5v311l-65 -42c-2.66699 -1.33301 -5.33398 -2 -8.00098 -2c-4 0 -7.33301 1.33301 -10 4s-4 6 -4 10c0 5.33301 2 9.33301 6 12l83 53c2 2 4 3.33301 6 4c0.666992 0 1.33398 0.333008 2.00098 1c0.666992 0 1 0.333008 1 1h1zM616.999 859
c3.33301 0 6.50098 -1.50098 9.50098 -4.50098s4.5 -6.16699 4.5 -9.5s-1.33301 -6.33301 -4 -9l-560 -840c-2.66699 -4.66699 -6.33398 -7 -11.001 -7c-4 0 -7.5 1.5 -10.5 4.5s-4.5 6.5 -4.5 10.5c0 2.66699 1 5.33398 3 8.00098l560 840c2 2.66699 5 4.66699 9 6
c0.666992 0 1.66699 0.333008 3 1h1zM577 354.999c0 -0.666992 0.332031 -1 0.999023 -1h1l1 -1h2v-1h1c0 -0.666992 0.166992 -1 0.5 -1s0.833008 -0.333008 1.5 -1s1 -1.66699 1 -3c0.666992 -1.33301 1.33398 -2.33301 2.00098 -3v-233h24c4 0 7.33301 -1.33301 10 -4
s4 -6 4 -10s-1.33301 -7.33301 -4 -10s-6 -4 -10 -4h-24v-80c0 -3.33301 -1.33301 -6.5 -4 -9.5s-6 -4.5 -10 -4.5s-7.33301 1.5 -10 4.5s-4 6.16699 -4 9.5v80h-150c-2 -0.666992 -4.33301 -1 -7 -1c-3.33301 0 -6.5 1.33301 -9.5 4s-4.5 6 -4.5 10v4
c0.666992 0 1 0.333008 1 1v2c1.33301 2.66699 3.33301 5 6 7l164 234c1.33301 3.33301 3.33301 6 6 8l4 2h1v1h6zM430.999 110.999h129v184z" />
    <glyph glyph-name="glyph_92" unicode="&#xbd;" horiz-adv-x="701" 
d="M174 859c2 0 3.66797 -0.333984 5.00098 -1.00098c0.666992 -0.666992 1.33398 -1 2.00098 -1h1c1.33301 -0.666992 2.33301 -1.66699 3 -3h1c1.33301 -1.33301 2.33301 -2.66602 3 -3.99902v-2h1v-341c0 -3.33301 -1.33301 -6.5 -4 -9.5s-6 -4.5 -10 -4.5
s-7.33301 1.5 -10 4.5s-4 6.16699 -4 9.5v311l-66 -42c-2.66699 -2 -5.33398 -3 -8.00098 -3c-4 0 -7.33301 1.5 -10 4.5s-4 6.16699 -4 9.5c0 6 2.33301 10.333 7 13l83 53c1.33301 1.33301 2.66602 2.33301 3.99902 3l4 2c0.666992 0 1 0.333008 1 1h1zM615.001 858.999
c3.33301 0 6.50098 -1.50098 9.50098 -4.50098s4.5 -6.16699 4.5 -9.5s-1.33301 -6.33301 -4 -9l-560 -840c-2.66699 -4.66699 -6.33398 -7 -11.001 -7c-4 0 -7.5 1.5 -10.5 4.5s-4.5 6.5 -4.5 10.5c0 2.66699 1 5.33398 3 8.00098l560 840c2 2.66699 5 4.66699 9 6
c0.666992 0 1.66699 0.333008 3 1h1zM586.002 323.998c16.667 -20 23.5 -43.9971 20.5 -71.9971s-14.5 -52.667 -34.5 -74l-2 -2l-1 -1l-123 -157h153c4 0 7.33301 -1.5 10 -4.5s4 -6.33301 4 -10s-1.33301 -6.83398 -4 -9.50098s-6 -4 -10 -4h-186
c-8 0.666992 -12 5.33398 -12 14.001c0 6 3 10.333 9 13l138 177h1c0.666992 1.33301 1.33398 2.33301 2.00098 3l0.5 0.5l0.5 0.5c0.666992 1.33301 1.66699 2.33301 3 3c13.333 17.333 21 36 23 56s-2.33301 36.333 -13 49c-11.333 14 -27.5 20.5 -48.5 19.5
s-40.333 -9.83301 -58 -26.5s-28.167 -36.334 -31.5 -59.001s1 -41 13 -55c2 -2.66699 3 -5.66699 3 -9c0 -4 -1.33301 -7.33301 -4 -10s-6 -4 -10 -4c-4.66699 0 -8.33398 1.66699 -11.001 5c-17.333 21.333 -23.833 46.666 -19.5 75.999s17.833 55 40.5 77
c23.333 21.333 49.333 32.666 78 33.999c28.667 0.666992 51.667 -9.33301 69 -30z" />
    <glyph glyph-name="glyph_93" unicode="&#xbe;" horiz-adv-x="701" 
d="M625 837c0 -3.33301 -0.999023 -6.33398 -2.99902 -9.00098l-560 -840c-2.66699 -4.66699 -6.66699 -7 -12 -7c-4 0 -7.33301 1.5 -10 4.5s-4 6.5 -4 10.5c0 2.66699 0.666992 5.33398 2 8.00098l560 840c2 2.66699 5 4.66699 9 6c1.33301 0 2.66602 0.333008 3.99902 1
c4 0 7.33301 -1.5 10 -4.5s4 -6.16699 4 -9.5zM152.001 849.999c24 0 42.333 -8.33594 55 -25.0029c13.333 -18 16 -39.667 8 -65c-7.33301 -24 -22.333 -45 -45 -63c17.333 -5.33301 31.5 -15 42.5 -29s17.5 -30.333 19.5 -49c2.66699 -29.333 -5 -56.5 -23 -81.5
s-41.667 -41.167 -71 -48.5c-24 -6 -46.5 -3.83301 -67.5 6.5s-35.833 26.5 -44.5 48.5c-0.666992 2 -1 4 -1 6c0 4 1.33301 7.33301 4 10s6 4 10 4c6.66699 0 11 -3.33301 13 -10c6 -16 16.333 -27.5 31 -34.5s31 -8.16699 49 -3.5c22 6 40 18.833 54 38.5
s20 40.167 18 61.5s-11 37.333 -27 48s-34.667 13.334 -56 8.00098h-1c-0.666992 0 -1.16699 -0.166992 -1.5 -0.5l-0.5 -0.5h-3c-4 0 -7.33301 1.33301 -10 4s-4 6 -4 10c0 4.66699 2 8.66699 6 12h1c1.33301 0.666992 2.33301 1 3 1c0 0.666992 0.333008 1 1 1h2
c16 4.66699 31.167 13.667 45.5 27s23.833 27.333 28.5 42c5.33301 16.667 4 30 -4 40c-7.33301 10 -19 14.667 -35 14c-18 -1.33301 -36.167 -9.16602 -54.5 -23.499s-30.5 -30.166 -36.5 -47.499c0 -4 -1.33301 -7.16699 -4 -9.5s-5.66699 -3.5 -9 -3.5
c-4 0 -7.33301 1.33301 -10 4s-4 6 -4 10c0 2.66699 0.333008 5 1 7c8 24 22.833 44.667 44.5 62s45.167 27 70.5 29h5zM569.001 346.996c3.33301 -0.666992 6.33203 -1.99902 8.99902 -3.99902v-1l2 -2c2 -2.66699 3 -5.66699 3 -9c0 -1.33301 -0.333008 -3 -1 -5v-223h24
c3.33301 0 6.5 -1.33301 9.5 -4s4.5 -6 4.5 -10s-1.5 -7.33301 -4.5 -10s-6.16699 -4 -9.5 -4h-24v-80c0 -3.33301 -1.33301 -6.5 -4 -9.5s-6 -4.5 -10 -4.5s-7.33301 1.5 -10 4.5s-4 6.16699 -4 9.5v80h-160c0 0.666992 -0.333008 1 -1 1h-1l-1 1
c-0.666992 0.666992 -1.66699 1.33398 -3 2.00098v1h-1v1h-1v3h-1c-0.666992 1.33301 -1 2.66602 -1 3.99902v3c0.666992 3.33301 2 6.33301 4 9l1 1c0.666992 0 1 0.333008 1 1l164 234c1.33301 5.33301 4.33301 8.66602 9 9.99902c0.666992 0 1.33398 0.333008 2.00098 1
h4zM426 102.997h128v183z" />
    <glyph glyph-name="glyph_135" unicode="&#xbf;" horiz-adv-x="451" 
d="M39 179c0 50 17.668 93.333 53.001 130s78 55.667 128 57h6c32.667 0 60.667 11.5 84 34.5s35 50.833 35 83.5s-11.667 60.5 -35 83.5s-51.5 34.5 -84.5 34.5s-61 -11.5 -84 -34.5s-34.5 -50.833 -34.5 -83.5c0 -4 -1.33301 -7.33301 -4 -10s-5.83398 -4 -9.50098 -4
s-7 1.33301 -10 4s-4.5 6 -4.5 10c0 40 14.333 74.333 43 103s63.167 43 103.5 43s75 -14.333 104 -43s43.5 -63 43.5 -103s-14.5 -74.333 -43.5 -103s-63.5 -43 -103.5 -43h-5c-42.667 -1.33301 -79 -17.5 -109 -48.5s-45 -67.833 -45 -110.5c0 -44 15.5 -81.5 46.5 -112.5
s68.5 -46.5 112.5 -46.5s81.5 15.5 112.5 46.5s46.5 68.5 46.5 112.5c0 4 1.33301 7.33301 4 10s6 4 10 4s7.33301 -1.33301 10 -4s4 -6 4 -10c0 -52 -18.333 -96 -55 -132c-36 -36 -79.667 -54 -131 -54h-1c-52 0 -96.167 18 -132.5 54s-54.5 80 -54.5 132zM221.001 782
c-11.333 0 -21 4 -29 12s-12 17.667 -12 29s4 21 12 29s17.667 12 29 12s20.833 -4 28.5 -12s11.5 -17.667 11.5 -29c0 -10 -3 -18.833 -9 -26.5s-13.667 -12.5 -23 -14.5h-8z" />
    <glyph glyph-name="Agrave" unicode="&#xc0;" horiz-adv-x="617" 
d="M312 836l0.999023 -1c0.666992 0 1.33398 -0.333008 2.00098 -1h1v-1h1v-1h1l2 -4c0 -0.666992 0.166992 -1.16699 0.5 -1.5s0.5 -0.833008 0.5 -1.5v-2l280 -808v-5c0 -4 -1.33301 -7.33301 -4 -10s-6 -4 -10 -4c-6.66699 0 -11.334 3.33301 -14.001 10l-97 282h-338
l-97 -282c-2.66699 -6.66699 -7.33398 -10 -14.001 -10c-4 0 -7.33301 1.33301 -10 4s-4 6 -4 10v5l280 809v1c0 0.666992 0.166992 1.16699 0.5 1.5s0.5 0.833008 0.5 1.5v2c0.666992 0 1 0.333008 1 1v1c0.666992 0 1.33398 0.333008 2.00098 1s1.33398 1 2.00098 1
c0.666992 1.33301 1.66699 2 3 2h10zM148.999 321h316l-158 457zM265.999 1003c4 0 7.33398 -1.33398 10.001 -4.00098l71 -71l19 -20l-7 -8l-1 -1c-0.666992 -1.33301 -1.66699 -2.66602 -3 -3.99902h-2l-1 -1c-1.33301 -0.666992 -3 -1 -5 -1h-2
c-0.666992 0 -1.33398 0.333008 -2.00098 1h-2l-2 2h-1c0 0.666992 -0.333008 1 -1 1l-1 1l-2 2l-77 79c-4 2.66699 -6 6 -6 10c0 7.33301 3.66699 12 11 14h4z" />
    <glyph glyph-name="Aacute" unicode="&#xc1;" horiz-adv-x="637" 
d="M312 836l0.999023 -1c0.666992 0 1.33398 -0.333008 2.00098 -1h1v-1h1v-1h1l2 -4c0 -0.666992 0.166992 -1.16699 0.5 -1.5s0.5 -0.833008 0.5 -1.5v-2l280 -808v-5c0 -4 -1.33301 -7.33301 -4 -10s-6 -4 -10 -4c-6.66699 0 -11.334 3.33301 -14.001 10l-97 282h-338
l-97 -282c-2.66699 -6.66699 -7.33398 -10 -14.001 -10c-4 0 -7.33301 1.33301 -10 4s-4 6 -4 10v5l280 809v1c0 0.666992 0.166992 1.16699 0.5 1.5s0.5 0.833008 0.5 1.5v2c0.666992 0 1 0.333008 1 1v1c0.666992 0 1.33398 0.333008 2.00098 1s1.33398 1 2.00098 1
c0.666992 1.33301 1.66699 2 3 2h10zM148.999 321h316l-158 457zM362.999 991c0 -4 -1.33398 -7.33398 -4.00098 -10.001l-70 -72l-20 -19l-8 7l-1 1c-1.33301 0.666992 -2.66602 1.66699 -3.99902 3v2l-1 1c-0.666992 1.33301 -1 3 -1 5v2
c0 0.666992 0.333008 1.33398 1 2.00098v2l2 2v1c0.666992 0 1 0.333008 1 1l1 1l2 2l78 78c2.66699 4 6 6 10 6c7.33301 0 12 -3.66699 14 -11v-4z" />
    <glyph glyph-name="Acircumflex" unicode="&#xc2;" horiz-adv-x="633" 
d="M312 836l0.999023 -1c0.666992 0 1.33398 -0.333008 2.00098 -1h1v-1h1v-1h1l2 -4c0 -0.666992 0.166992 -1.16699 0.5 -1.5s0.5 -0.833008 0.5 -1.5v-2l280 -808v-5c0 -4 -1.33301 -7.33301 -4 -10s-6 -4 -10 -4c-6.66699 0 -11.334 3.33301 -14.001 10l-97 282h-338
l-97 -282c-2.66699 -6.66699 -7.33398 -10 -14.001 -10c-4 0 -7.33301 1.33301 -10 4s-4 6 -4 10v5l280 809v1c0 0.666992 0.166992 1.16699 0.5 1.5s0.5 0.833008 0.5 1.5v2c0.666992 0 1 0.333008 1 1v1c0.666992 0 1.33398 0.333008 2.00098 1s1.33398 1 2.00098 1
c0.666992 1.33301 1.66699 2 3 2h10zM148.999 321h316l-158 457zM225.999 891c-7.33301 2 -11 6.66602 -11 13.999c0 4 2 7.33301 6 10l77 79l2 2l1 1c0.666992 0 1 0.333008 1 1h1l2 2h2c0.666992 0.666992 1.33398 1 2.00098 1h2c2 0 3.66699 -0.333008 5 -1l1 -1h2
c1.33301 -1.33301 2.33301 -2.66602 3 -3.99902l1 -1l1 -1l78 -78c3.33301 -2.66699 5 -6 5 -10s-1.5 -7.33301 -4.5 -10s-6.16699 -4 -9.5 -4h-3c-2.66699 0.666992 -5.33398 2 -8.00098 4l-71 71l-71 -71c-2.66699 -2.66699 -6 -4 -10 -4h-4z" />
    <glyph glyph-name="Atilde" unicode="&#xc3;" horiz-adv-x="624" 
d="M312 836l0.999023 -1c0.666992 0 1.33398 -0.333008 2.00098 -1h1v-1h1v-1h1l2 -4c0 -0.666992 0.166992 -1.16699 0.5 -1.5s0.5 -0.833008 0.5 -1.5v-2l280 -808v-5c0 -4 -1.33301 -7.33301 -4 -10s-6 -4 -10 -4c-6.66699 0 -11.334 3.33301 -14.001 10l-97 282h-338
l-97 -282c-2.66699 -6.66699 -7.33398 -10 -14.001 -10c-4 0 -7.33301 1.33301 -10 4s-4 6 -4 10v5l280 809v1c0 0.666992 0.166992 1.16699 0.5 1.5s0.5 0.833008 0.5 1.5v2c0.666992 0 1 0.333008 1 1v1c0.666992 0 1.33398 0.333008 2.00098 1s1.33398 1 2.00098 1
c0.666992 1.33301 1.66699 2 3 2h10zM148.999 321h316l-158 457zM268.999 974c8.66699 0 16.665 -2.00098 23.998 -6.00098c5.33301 -2.66699 10 -6.33398 14 -11.001c0.666992 -0.666992 2 -2.66699 4 -6c0.666992 -1.33301 1.66699 -2.66602 3 -3.99902v-2
c0.666992 -1.33301 1 -2.33301 1 -3v-3c0.666992 0 1 -0.333008 1 -1v-4h1c0.666992 -0.666992 2.33398 -1.66699 5.00098 -3c5.33301 -2.66699 11.333 -3.33398 18 -2.00098s12.167 4.5 16.5 9.5s6.5 9.5 6.5 13.5c-0.666992 0.666992 -1 1.5 -1 2.5
s0.333008 1.83301 1 2.5c-0.666992 0 -1 0.166992 -1 0.5s0.333008 0.833008 1 1.5c1.33301 5.33301 5 8.33301 11 9c0.666992 0.666992 1.66699 1 3 1c2 0 4 -0.666992 6 -2c2.66699 -1.33301 4.66699 -3.33301 6 -6l1 -1v-1c0 -0.666992 0.333008 -1 1 -1v-2
c0.666992 -6 0 -12 -2 -18c-1.33301 -4.66699 -2.66602 -7.66699 -3.99902 -9c-8 -14 -21 -23 -39 -27c-13.333 -3.33301 -25.666 -2 -36.999 4c-8.66699 4.66699 -14.667 11.334 -18 20.001v1l-1 1c-0.666992 0.666992 -1 1.33398 -1 2.00098c-0.666992 1.33301 -1 3 -1 5
v1c0 1.33301 -0.333008 2.33301 -1 3h-1c-0.666992 1.33301 -2.33398 2.66602 -5.00098 3.99902c-6 2.66699 -12 3.33398 -18 2.00098c-7.33301 -2 -12.833 -5.33301 -16.5 -10s-5.16699 -9 -4.5 -13v-6c-0.666992 -0.666992 -1 -1.33398 -1 -2.00098v-1l-2 -2
c0 -0.666992 -0.333008 -1 -1 -1c-1.33301 -2 -2.66602 -3.33301 -3.99902 -4c-2 -0.666992 -4 -1 -6 -1c-8 0 -12.667 4 -14 12c-2.66699 12 0.166016 23.333 8.49902 34s19.5 17.667 33.5 21c4 0.666992 7 1.33398 9 2.00098h4z" />
    <glyph glyph-name="Adieresis" unicode="&#xc4;" horiz-adv-x="629" 
d="M313 836l0.999023 -1c0.666992 0 1.33398 -0.333008 2.00098 -1h1v-1h1v-1h1l2 -4c0 -0.666992 0.166992 -1.16699 0.5 -1.5s0.5 -0.833008 0.5 -1.5v-2l280 -808v-5c0 -4 -1.33301 -7.33301 -4 -10s-6 -4 -10 -4c-6.66699 0 -11.334 3.33301 -14.001 10l-97 282h-338
l-97 -282c-2.66699 -6.66699 -7.33398 -10 -14.001 -10c-4 0 -7.33301 1.33301 -10 4s-4 6 -4 10v5l280 809v1c0 0.666992 0.166992 1.16699 0.5 1.5s0.5 0.833008 0.5 1.5v2c0.666992 0 1 0.333008 1 1v1c0.666992 0 1.33398 0.333008 2.00098 1s1.33398 1 2.00098 1
c0.666992 1.33301 1.66699 2 3 2h10zM149.999 321h316l-158 457zM232.999 979c11.333 0 20.833 -4 28.5 -12s11.5 -17.667 11.5 -29s-3.83301 -21 -11.5 -29s-17.167 -12 -28.5 -12s-20.833 4 -28.5 12s-11.5 17.667 -11.5 29s3.83301 21 11.5 29s17.167 12 28.5 12z
M354.999 938c0 10 2.99902 18.667 8.99902 26s13.667 12 23 14c2.66699 0.666992 5.33398 1 8.00098 1c11.333 0 20.833 -4 28.5 -12s11.5 -17.667 11.5 -29s-3.83301 -21 -11.5 -29s-17.167 -12 -28.5 -12s-20.833 4 -28.5 12s-11.5 17.667 -11.5 29z" />
    <glyph glyph-name="Aring" unicode="&#xc5;" horiz-adv-x="620" 
d="M312 836l0.999023 -1c0.666992 0 1.33398 -0.333008 2.00098 -1h1v-1h1v-1h1l2 -4c0 -0.666992 0.166992 -1.16699 0.5 -1.5s0.5 -0.833008 0.5 -1.5v-2l280 -808v-5c0 -4 -1.33301 -7.33301 -4 -10s-6 -4 -10 -4c-6.66699 0 -11.334 3.33301 -14.001 10l-97 282h-338
l-97 -282c-2.66699 -6.66699 -7.33398 -10 -14.001 -10c-4 0 -7.33301 1.33301 -10 4s-4 6 -4 10v5l280 809v1c0 0.666992 0.166992 1.16699 0.5 1.5s0.5 0.833008 0.5 1.5v2c0.666992 0 1 0.333008 1 1v1c0.666992 0 1.33398 0.333008 2.00098 1s1.33398 1 2.00098 1
c0.666992 1.33301 1.66699 2 3 2h10zM148.999 321h316l-158 457zM307.999 1012c20 0 37.499 -7.33301 52.499 -22s22.5 -32.334 22.5 -53.001s-7.5 -38.334 -22.5 -53.001s-32.667 -22 -53 -22s-37.833 7.33301 -52.5 22s-22 32.334 -22 53.001s7.33301 38.334 22 53.001
s32.334 22 53.001 22zM273.998 970c-8.66699 -8.66699 -13 -19.667 -13 -33s4.5 -24.5 13.5 -33.5s20 -13.5 33 -13.5s24 4.5 33 13.5s13.5 20.167 13.5 33.5s-4.5 24.5 -13.5 33.5s-20 13.5 -33 13.5s-24.167 -4.66699 -33.5 -14z" />
    <glyph glyph-name="AE" unicode="&#xc6;" horiz-adv-x="606" 
d="M311 849c0 -0.666992 0.334961 -0.998047 1.00195 -0.998047h262c4 0 7.33301 -1.5 10 -4.5s4 -6.16699 4 -9.5c0 -4 -1.33301 -7.33301 -4 -10s-6 -4 -10 -4h-250v-496h250c4 0 7.33301 -1.33301 10 -4s4 -5.66699 4 -9c0 -4 -1.33301 -7.5 -4 -10.5s-6 -4.5 -10 -4.5
h-250v-266h250c4 0 7.33301 -1.5 10 -4.5s4 -6.16699 4 -9.5c0 -4 -1.33301 -7.33301 -4 -10s-6 -4 -10 -4h-260c-0.666992 -0.666992 -1.33398 -1 -2.00098 -1s-1.33398 0.333008 -2.00098 1h-5v1h-1c-4.66699 2.66699 -7 7 -7 13v279h-159l-97 -286
c-2 -6.66699 -6.66699 -10 -14 -10c-3.33301 0 -6.5 1.33301 -9.5 4s-4.5 6 -4.5 10c0 1.33301 0.333008 2.66602 1 3.99902l279 818c1.33301 3.33301 3.33301 5.66602 6 6.99902l1 1l2 2c1.33301 1.33301 3 2.33301 5 3h4v1zM148.002 323.002h149v437z" />
    <glyph glyph-name="Ccedilla" unicode="&#xc7;" horiz-adv-x="775" 
d="M588 17c-29.333 -10 -60.001 -16.6729 -92.001 -20.0059c-101.333 -11.333 -195 10 -281 64c-66 42 -116.667 97.333 -152 166c-32.667 63.333 -49 130.333 -49 201c0 5.33301 0.333008 11.333 1 18c2.66699 76.667 25 148.334 67 215.001
c39.333 62 90.333 110.5 153 145.5s129.667 53.5 201 55.5h14c83.333 0 160.333 -22.333 231 -67c4 -3.33301 6 -7.66602 6 -12.999c0 -4 -1.33301 -7.33301 -4 -10s-6 -4 -10 -4c-3.33301 0 -6 0.666992 -8 2c-62 39.333 -129 60.5 -201 63.5s-140 -12 -204 -45
s-115.667 -80.5 -155 -142.5s-60.5 -129.167 -63.5 -201.5s12.167 -140.5 45.5 -204.5s81 -115.667 143 -155c80.667 -51.333 168.167 -71.666 262.5 -60.999s175.166 49.667 242.499 117c2.66699 2 5.66699 3 9 3s6.5 -1.33301 9.5 -4s4.5 -6 4.5 -10
c0 -3.33301 -1 -6 -3 -8c-41.333 -41.333 -87.666 -72.666 -138.999 -93.999v-36c10 5.33301 20.667 7.66602 32 6.99902c14.667 -1.33301 26.834 -7.66602 36.501 -18.999s14 -24.5 13 -39.5s-7.16699 -27.5 -18.5 -37.5c-10 -8.66699 -21.333 -13 -34 -13h-6
c-2.66699 0 -5.66699 0.666992 -9 2c-4.66699 2.66699 -7 6.66699 -7 12c0 4 1.5 7.33301 4.5 10s6.16699 4 9.5 4h5c7.33301 -0.666992 13.666 1.33301 18.999 6s8.33301 10.667 9 18c0 7.33301 -2.33301 13.833 -7 19.5s-10.667 8.83398 -18 9.50098
s-13.666 -1.33301 -18.999 -6s-8.33301 -10.667 -9 -18c0 -1.33301 -0.333008 -2.66602 -1 -3.99902v-3c0 -3.33301 -1.33301 -6.33301 -4 -9s-6 -4 -10 -4s-7.33301 1.33301 -10 4s-4 6 -4 10v76z" />
    <glyph glyph-name="Egrave" unicode="&#xc8;" horiz-adv-x="374" 
d="M131 1004c4 0 7.33398 -1.33398 10.001 -4.00098l71 -71l19 -20l-7 -8l-1 -1c-0.666992 -1.33301 -1.66699 -2.66602 -3 -3.99902h-2l-1 -1c-1.33301 -0.666992 -3 -1 -5 -1h-2c-0.666992 0 -1.33398 0.333008 -2.00098 1h-2l-2 2h-1c0 0.666992 -0.333008 1 -1 1l-1 1
l-2 2l-77 79c-4 2.66699 -6 6 -6 10c0 7.33301 3.66699 12 11 14h4zM328.001 863.999c4 0 7.33398 -1.33496 10.001 -4.00195s4 -6 4 -10s-1.33301 -7.33301 -4 -10s-6 -4 -10 -4h-268v-392h268c4 0 7.33301 -1.33301 10 -4s4 -6 4 -10s-1.33301 -7.33301 -4 -10
s-6 -4 -10 -4h-268v-392h268c4 0 7.33301 -1.33301 10 -4s4 -6 4 -10s-1.33301 -7.33301 -4 -10s-6 -4 -10 -4h-286c-0.666992 0.666992 -1.66699 1.33398 -3 2.00098s-2.33301 1.33398 -3 2.00098c0 0.666992 -0.333008 1 -1 1v1
c-0.666992 0.666992 -1.33398 1.66699 -2.00098 3s-1 3 -1 5v841c0 6 2.66699 10.333 8 13h288z" />
    <glyph glyph-name="Eacute" unicode="&#xc9;" horiz-adv-x="372" 
d="M118 906c0 4 1.33398 7.33398 4.00098 10.001l70 72l20 19l8 -7l1 -1c1.33301 -0.666992 2.66602 -1.66699 3.99902 -3v-2l1 -1c0.666992 -1.33301 1 -3 1 -5v-2c0 -0.666992 -0.333008 -1.33398 -1 -2.00098v-2l-2 -2v-1c-0.666992 0 -1 -0.333008 -1 -1l-1 -1l-2 -2
l-78 -78c-2.66699 -4 -6 -6 -10 -6c-7.33301 0 -12 3.66699 -14 11v4zM327.001 864.001c4 0 7.33398 -1.33496 10.001 -4.00195s4 -6 4 -10s-1.33301 -7.33301 -4 -10s-6 -4 -10 -4h-268v-392h268c4 0 7.33301 -1.33301 10 -4s4 -6 4 -10s-1.33301 -7.33301 -4 -10
s-6 -4 -10 -4h-268v-392h268c4 0 7.33301 -1.33301 10 -4s4 -6 4 -10s-1.33301 -7.33301 -4 -10s-6 -4 -10 -4h-286c-0.666992 0.666992 -1.66699 1.33398 -3 2.00098s-2.33301 1.33398 -3 2.00098c0 0.666992 -0.333008 1 -1 1v1
c-0.666992 0.666992 -1.33398 1.66699 -2.00098 3s-1 3 -1 5v841c0 6 2.66699 10.333 8 13h288z" />
    <glyph glyph-name="Ecircumflex" unicode="&#xca;" horiz-adv-x="368" 
d="M328 864c4 0 7.33398 -1.33496 10.001 -4.00195s4 -6 4 -10s-1.33301 -7.33301 -4 -10s-6 -4 -10 -4h-268v-392h268c4 0 7.33301 -1.33301 10 -4s4 -6 4 -10s-1.33301 -7.33301 -4 -10s-6 -4 -10 -4h-268v-392h268c4 0 7.33301 -1.33301 10 -4s4 -6 4 -10
s-1.33301 -7.33301 -4 -10s-6 -4 -10 -4h-286c-0.666992 0.666992 -1.66699 1.33398 -3 2.00098s-2.33301 1.33398 -3 2.00098c0 0.666992 -0.333008 1 -1 1v1c-0.666992 0.666992 -1.33398 1.66699 -2.00098 3s-1 3 -1 5v841c0 6 2.66699 10.333 8 13h288zM105.001 890.998
c-7.33301 2 -11 6.66602 -11 13.999c0 4 2 7.33301 6 10l77 79l2 2l1 1c0.666992 0 1 0.333008 1 1h1l2 2h2c0.666992 0.666992 1.33398 1 2.00098 1h2c2 0 3.66699 -0.333008 5 -1l1 -1h2c1.33301 -1.33301 2.33301 -2.66602 3 -3.99902l1 -1l1 -1l78 -78
c3.33301 -2.66699 5 -6 5 -10s-1.5 -7.33301 -4.5 -10s-6.16699 -4 -9.5 -4h-3c-2.66699 0.666992 -5.33398 2 -8.00098 4l-71 71l-71 -71c-2.66699 -2.66699 -6 -4 -10 -4h-4z" />
    <glyph glyph-name="Edieresis" unicode="&#xcb;" horiz-adv-x="368" 
d="M327 864c4 0 7.33398 -1.33496 10.001 -4.00195s4 -6 4 -10s-1.33301 -7.33301 -4 -10s-6 -4 -10 -4h-268v-392h268c4 0 7.33301 -1.33301 10 -4s4 -6 4 -10s-1.33301 -7.33301 -4 -10s-6 -4 -10 -4h-268v-392h268c4 0 7.33301 -1.33301 10 -4s4 -6 4 -10
s-1.33301 -7.33301 -4 -10s-6 -4 -10 -4h-286c-0.666992 0.666992 -1.66699 1.33398 -3 2.00098s-2.33301 1.33398 -3 2.00098c0 0.666992 -0.333008 1 -1 1v1c-0.666992 0.666992 -1.33398 1.66699 -2.00098 3s-1 3 -1 5v841c0 6 2.66699 10.333 8 13h288zM113.001 992.998
c11.333 0 20.833 -4 28.5 -12s11.5 -17.667 11.5 -29s-3.83301 -21 -11.5 -29s-17.167 -12 -28.5 -12s-20.833 4 -28.5 12s-11.5 17.667 -11.5 29s3.83301 21 11.5 29s17.167 12 28.5 12zM235.001 951.998c0 10 2.99902 18.667 8.99902 26s13.667 12 23 14
c2.66699 0.666992 5.33398 1 8.00098 1c11.333 0 20.833 -4 28.5 -12s11.5 -17.667 11.5 -29s-3.83301 -21 -11.5 -29s-17.167 -12 -28.5 -12s-20.833 4 -28.5 12s-11.5 17.667 -11.5 29z" />
    <glyph glyph-name="Igrave" unicode="&#xcc;" horiz-adv-x="199" 
d="M59 1004c4 0 7.33398 -1.33398 10.001 -4.00098l71 -71l19 -20l-7 -8l-1 -1c-0.666992 -1.33301 -1.66699 -2.66602 -3 -3.99902h-2l-1 -1c-1.33301 -0.666992 -3 -1 -5 -1h-2c-0.666992 0 -1.33398 0.333008 -2.00098 1h-2l-2 2h-1c0 0.666992 -0.333008 1 -1 1l-1 1
l-2 2l-77 79c-4 2.66699 -6 6 -6 10c0 7.33301 3.66699 12 11 14h4zM96.001 859.999c4 0 7.33301 -1.33301 10 -4s4 -6 4 -10v-840c0 -4 -1.33301 -7.33301 -4 -10s-6 -4 -10 -4s-7.33301 1.33301 -10 4s-4 6 -4 10v841c0 6.66699 3.33301 11 10 13h4z" />
    <glyph glyph-name="Iacute" unicode="&#xcd;" horiz-adv-x="199" 
d="M156 992c0 -4 -1.33398 -7.33398 -4.00098 -10.001l-70 -72l-20 -19l-8 7l-1 1c-1.33301 0.666992 -2.66602 1.66699 -3.99902 3v2l-1 1c-0.666992 1.33301 -1 3 -1 5v2c0 0.666992 0.333008 1.33398 1 2.00098v2l2 2v1c0.666992 0 1 0.333008 1 1l1 1l2 2l78 78
c2.66699 4 6 6 10 6c7.33301 0 12 -3.66699 14 -11v-4zM95.999 859.999c4 0 7.33301 -1.33301 10 -4s4 -6 4 -10v-840c0 -4 -1.33301 -7.33301 -4 -10s-6 -4 -10 -4s-7.33301 1.33301 -10 4s-4 6 -4 10v841c0 6.66699 3.33301 11 10 13h4z" />
    <glyph glyph-name="Icircumflex" unicode="&#xce;" horiz-adv-x="199" 
d="M96 860c4 0 7.33301 -1.33301 10 -4s4 -6 4 -10v-840c0 -4 -1.33301 -7.33301 -4 -10s-6 -4 -10 -4s-7.33301 1.33301 -10 4s-4 6 -4 10v841c0 6.66699 3.33301 11 10 13h4zM17 893c-7.33301 2 -11 6.66602 -11 13.999c0 4 2 7.33301 6 10l77 79l2 2l1 1
c0.666992 0 1 0.333008 1 1h1l2 2h2c0.666992 0.666992 1.33398 1 2.00098 1h2c2 0 3.66699 -0.333008 5 -1l1 -1h2c1.33301 -1.33301 2.33301 -2.66602 3 -3.99902l1 -1l1 -1l78 -78c3.33301 -2.66699 5 -6 5 -10s-1.5 -7.33301 -4.5 -10s-6.16699 -4 -9.5 -4h-3
c-2.66699 0.666992 -5.33398 2 -8.00098 4l-71 71l-71 -71c-2.66699 -2.66699 -6 -4 -10 -4h-4z" />
    <glyph glyph-name="Idieresis" unicode="&#xcf;" horiz-adv-x="277" 
d="M131 867c4 0 7.33301 -1.33301 10 -4s4 -6 4 -10v-840c0 -4 -1.33301 -7.33301 -4 -10s-6 -4 -10 -4s-7.33301 1.33301 -10 4s-4 6 -4 10v841c0 6.66699 3.33301 11 10 13h4zM15 948c0 11.333 3.83301 21 11.5 29s17.167 12 28.5 12s20.833 -4 28.5 -12
s11.5 -17.667 11.5 -29s-3.83301 -21 -11.5 -29s-17.167 -12 -28.5 -12s-20.833 4 -28.5 12s-11.5 17.667 -11.5 29zM257 948c0 -11.333 -3.83398 -21 -11.501 -29s-17.167 -12 -28.5 -12s-20.833 4 -28.5 12s-11.5 17.667 -11.5 29c0 10 3 18.667 9 26s13.667 12 23 14
c2.66699 0.666992 5.33398 1 8.00098 1c11.333 0 20.833 -4 28.5 -12s11.5 -17.667 11.5 -29z" />
    <glyph glyph-name="Eth" unicode="&#xd0;" horiz-adv-x="746" 
d="M50 442l-0.000976562 403.996c-1.33301 2 -2 4 -2 6c0 6.66699 3.33301 11.334 10 14.001c0.666992 0 1.33398 0.333008 2.00098 1h230l1 -1h2c74.667 -2 143.5 -22.667 206.5 -62s112.5 -92.166 148.5 -158.499s54 -138.166 54 -215.499
c-0.666992 -77.333 -19.334 -148.666 -56.001 -213.999s-86.5 -117.5 -149.5 -156.5s-131.833 -59.167 -206.5 -60.5h-232v1h-3v1h-1c-4 2.66699 -6 6.66699 -6 12c0 2 0.666992 4 2 6v395h-27c-5.33301 0 -9.66602 1.33301 -12.999 4s-5 6 -5 10c0 8 5.33301 12.667 16 14
h29zM77.999 413.996l0.000976562 -386.998h212c70 1.33301 134.333 20.166 193 56.499s105 85.166 139 146.499s51.333 128 52 200c0 72.667 -17 140.167 -51 202.5s-80.333 111.833 -139 148.5s-123.334 56 -194.001 58h-212v-397h277c3.33301 0 6 -1.33301 8 -4
s3 -6 3 -10s-1 -7.33301 -3 -10s-4.66699 -4 -8 -4h-277z" />
    <glyph glyph-name="Ntilde" unicode="&#xd1;" horiz-adv-x="661" 
d="M56 868l2.00195 -2.00098h1c1.33301 -1.33301 2.66602 -3 3.99902 -5l2 -2v-1l533 -798v794c0 7.33301 3.66699 12 11 14h3c3.33301 0 6.5 -1.33301 9.5 -4s4.5 -6 4.5 -10v-842c0 -4 -1.33301 -7.33301 -4 -10s-6 -4 -10 -4c-2.66699 0 -5.33398 1 -8.00098 3
s-4.66699 4.66699 -6 8l-532 799v-795c0 -3.33301 -1.5 -6.5 -4.5 -9.5s-6.33301 -4.5 -10 -4.5s-6.83398 1.5 -9.50098 4.5s-4 6.16699 -4 9.5v847c0.666992 0 1 0.333008 1 1c0.666992 1.33301 1.66699 2.33301 3 3c0.666992 0.666992 1.66699 1.33398 3 2.00098v1
c0.666992 0 1.33398 0.333008 2.00098 1h9zM313.002 973.999c8.66699 0 16.665 -2.00098 23.998 -6.00098c5.33301 -2.66699 10 -6.33398 14 -11.001c0.666992 -0.666992 2 -2.66699 4 -6c0.666992 -1.33301 1.66699 -2.66602 3 -3.99902v-2
c0.666992 -1.33301 1 -2.33301 1 -3v-3c0.666992 0 1 -0.333008 1 -1v-4h1c0.666992 -0.666992 2.33398 -1.66699 5.00098 -3c5.33301 -2.66699 11.333 -3.33398 18 -2.00098s12.167 4.5 16.5 9.5s6.5 9.5 6.5 13.5c-0.666992 0.666992 -1 1.5 -1 2.5
s0.333008 1.83301 1 2.5c-0.666992 0 -1 0.166992 -1 0.5s0.333008 0.833008 1 1.5c1.33301 5.33301 5 8.33301 11 9c0.666992 0.666992 1.66699 1 3 1c2 0 4 -0.666992 6 -2c2.66699 -1.33301 4.66699 -3.33301 6 -6l1 -1v-1c0 -0.666992 0.333008 -1 1 -1v-2
c0.666992 -6 0 -12 -2 -18c-1.33301 -4.66699 -2.66602 -7.66699 -3.99902 -9c-8 -14 -21 -23 -39 -27c-13.333 -3.33301 -25.666 -2 -36.999 4c-8.66699 4.66699 -14.667 11.334 -18 20.001v1l-1 1c-0.666992 0.666992 -1 1.33398 -1 2.00098c-0.666992 1.33301 -1 3 -1 5
v1c0 1.33301 -0.333008 2.33301 -1 3h-1c-0.666992 1.33301 -2.33398 2.66602 -5.00098 3.99902c-6 2.66699 -12 3.33398 -18 2.00098c-7.33301 -2 -12.833 -5.33301 -16.5 -10s-5.16699 -9 -4.5 -13v-6c-0.666992 -0.666992 -1 -1.33398 -1 -2.00098v-1l-2 -2
c0 -0.666992 -0.333008 -1 -1 -1c-1.33301 -2 -2.66602 -3.33301 -3.99902 -4c-2 -0.666992 -4 -1 -6 -1c-8 0 -12.667 4 -14 12c-2.66699 12 0.166016 23.333 8.49902 34s19.5 17.667 33.5 21c4 0.666992 7 1.33398 9 2.00098h4z" />
    <glyph glyph-name="Ograve" unicode="&#xd2;" horiz-adv-x="900" 
d="M883 433c0 -58.667 -11.5 -114.834 -34.5 -168.501s-53.833 -99.834 -92.5 -138.501s-84.834 -69.5 -138.501 -92.5s-109.834 -34.5 -168.501 -34.5s-114.834 11.5 -168.501 34.5s-99.834 53.833 -138.501 92.5s-69.5 84.834 -92.5 138.501s-34.5 109.834 -34.5 168.501
s11.5 114.834 34.5 168.501s53.833 99.834 92.5 138.501s84.834 69.5 138.501 92.5s109.834 34.5 168.501 34.5s114.834 -11.5 168.501 -34.5s99.834 -53.833 138.501 -92.5s69.5 -84.834 92.5 -138.501s34.5 -109.834 34.5 -168.501zM245 784
c-62 -36 -111.165 -85.166 -147.498 -147.499s-54.5 -130.166 -54.5 -203.499s18.167 -141.166 54.5 -203.499s85.666 -111.666 147.999 -147.999s130.166 -54.5 203.499 -54.5s141.166 18.167 203.499 54.5s111.666 85.666 147.999 147.999s54.5 130.166 54.5 203.499
s-18.167 141.166 -54.5 203.499s-85.666 111.666 -147.999 147.999s-130.166 54.5 -203.499 54.5s-141.333 -18.333 -204 -55zM412.002 1007c4 0 7.33398 -1.33398 10.001 -4.00098l71 -71l19 -20l-7 -8l-1 -1c-0.666992 -1.33301 -1.66699 -2.66602 -3 -3.99902h-2l-1 -1
c-1.33301 -0.666992 -3 -1 -5 -1h-2c-0.666992 0 -1.33398 0.333008 -2.00098 1h-2l-2 2h-1c0 0.666992 -0.333008 1 -1 1l-1 1l-2 2l-77 79c-4 2.66699 -6 6 -6 10c0 7.33301 3.66699 12 11 14h4z" />
    <glyph glyph-name="glyph_75" unicode="&#xd3;" horiz-adv-x="915" 
d="M556 950c4 0 7.33496 -1.33594 10.002 -4.00293s4 -6 4 -10s-1.33301 -7.33301 -4 -10l-67 -67c72 -7.33301 137.5 -31 196.5 -71s105.5 -91.667 139.5 -155s51 -131.666 51 -204.999c0 -58.667 -11.5 -114.834 -34.5 -168.501s-53.833 -99.834 -92.5 -138.501
s-84.834 -69.5 -138.501 -92.5s-109.834 -34.5 -168.501 -34.5s-114.834 11.5 -168.501 34.5s-99.834 53.833 -138.501 92.5s-69.5 84.834 -92.5 138.501s-34.5 109.834 -34.5 168.501s11.5 114.834 34.5 168.501s53.833 99.834 92.5 138.501s84.834 69.5 138.501 92.5
s109.834 34.5 168.501 34.5c1.33301 0 3 -0.166992 5 -0.5s3.66699 -0.5 5 -0.5l84 84c1.33301 2 3 3.66699 5 5h5zM46.002 427.997c0 -73.333 18.1699 -141.167 54.5029 -203.5s85.666 -111.666 147.999 -147.999s130.166 -54.5 203.499 -54.5s141.166 18.167 203.499 54.5
s111.666 85.666 147.999 147.999s54.5 130.166 54.5 203.499c0 71.333 -17 137.333 -51 198s-80.5 109.5 -139.5 146.5s-123.833 57.167 -194.5 60.5l-47 -47c-2.66699 -4 -6.33398 -6 -11.001 -6c-4 0 -7.33301 1.5 -10 4.5s-4 6.16699 -4 9.5
c0 4.66699 1.66699 8.33398 5 11.001l28 28c-71.333 -3.33301 -136.666 -23.333 -195.999 -60s-106.166 -85.5 -140.499 -146.5s-51.5 -127.167 -51.5 -198.5z" />
    <glyph glyph-name="Ocircumflex" unicode="&#xd4;" horiz-adv-x="900" 
d="M883 433c0 -58.667 -11.5 -114.834 -34.5 -168.501s-53.833 -99.834 -92.5 -138.501s-84.834 -69.5 -138.501 -92.5s-109.834 -34.5 -168.501 -34.5s-114.834 11.5 -168.501 34.5s-99.834 53.833 -138.501 92.5s-69.5 84.834 -92.5 138.501s-34.5 109.834 -34.5 168.501
s11.5 114.834 34.5 168.501s53.833 99.834 92.5 138.501s84.834 69.5 138.501 92.5s109.834 34.5 168.501 34.5s114.834 -11.5 168.501 -34.5s99.834 -53.833 138.501 -92.5s69.5 -84.834 92.5 -138.501s34.5 -109.834 34.5 -168.501zM245 784
c-62 -36 -111.165 -85.166 -147.498 -147.499s-54.5 -130.166 -54.5 -203.499s18.167 -141.166 54.5 -203.499s85.666 -111.666 147.999 -147.999s130.166 -54.5 203.499 -54.5s141.166 18.167 203.499 54.5s111.666 85.666 147.999 147.999s54.5 130.166 54.5 203.499
s-18.167 141.166 -54.5 203.499s-85.666 111.666 -147.999 147.999s-130.166 54.5 -203.499 54.5s-141.333 -18.333 -204 -55zM369.002 889.001c-7.33301 2 -11 6.66602 -11 13.999c0 4 2 7.33301 6 10l77 79l2 2l1 1c0.666992 0 1 0.333008 1 1h1l2 2h2
c0.666992 0.666992 1.33398 1 2.00098 1h2c2 0 3.66699 -0.333008 5 -1l1 -1h2c1.33301 -1.33301 2.33301 -2.66602 3 -3.99902l1 -1l1 -1l78 -78c3.33301 -2.66699 5 -6 5 -10s-1.5 -7.33301 -4.5 -10s-6.16699 -4 -9.5 -4h-3c-2.66699 0.666992 -5.33398 2 -8.00098 4
l-71 71l-71 -71c-2.66699 -2.66699 -6 -4 -10 -4h-4z" />
    <glyph glyph-name="Otilde" unicode="&#xd5;" horiz-adv-x="900" 
d="M883 433c0 -58.667 -11.5 -114.834 -34.5 -168.501s-53.833 -99.834 -92.5 -138.501s-84.834 -69.5 -138.501 -92.5s-109.834 -34.5 -168.501 -34.5s-114.834 11.5 -168.501 34.5s-99.834 53.833 -138.501 92.5s-69.5 84.834 -92.5 138.501s-34.5 109.834 -34.5 168.501
s11.5 114.834 34.5 168.501s53.833 99.834 92.5 138.501s84.834 69.5 138.501 92.5s109.834 34.5 168.501 34.5s114.834 -11.5 168.501 -34.5s99.834 -53.833 138.501 -92.5s69.5 -84.834 92.5 -138.501s34.5 -109.834 34.5 -168.501zM245 784
c-62 -36 -111.165 -85.166 -147.498 -147.499s-54.5 -130.166 -54.5 -203.499s18.167 -141.166 54.5 -203.499s85.666 -111.666 147.999 -147.999s130.166 -54.5 203.499 -54.5s141.166 18.167 203.499 54.5s111.666 85.666 147.999 147.999s54.5 130.166 54.5 203.499
s-18.167 141.166 -54.5 203.499s-85.666 111.666 -147.999 147.999s-130.166 54.5 -203.499 54.5s-141.333 -18.333 -204 -55zM431.002 980.001c8.66699 0 16.665 -2.00098 23.998 -6.00098c5.33301 -2.66699 10 -6.33398 14 -11.001c0.666992 -0.666992 2 -2.66699 4 -6
c0.666992 -1.33301 1.66699 -2.66602 3 -3.99902v-2c0.666992 -1.33301 1 -2.33301 1 -3v-3c0.666992 0 1 -0.333008 1 -1v-4h1c0.666992 -0.666992 2.33398 -1.66699 5.00098 -3c5.33301 -2.66699 11.333 -3.33398 18 -2.00098s12.167 4.5 16.5 9.5s6.5 9.5 6.5 13.5
c-0.666992 0.666992 -1 1.5 -1 2.5s0.333008 1.83301 1 2.5c-0.666992 0 -1 0.166992 -1 0.5s0.333008 0.833008 1 1.5c1.33301 5.33301 5 8.33301 11 9c0.666992 0.666992 1.66699 1 3 1c2 0 4 -0.666992 6 -2c2.66699 -1.33301 4.66699 -3.33301 6 -6l1 -1v-1
c0 -0.666992 0.333008 -1 1 -1v-2c0.666992 -6 0 -12 -2 -18c-1.33301 -4.66699 -2.66602 -7.66699 -3.99902 -9c-8 -14 -21 -23 -39 -27c-13.333 -3.33301 -25.666 -2 -36.999 4c-8.66699 4.66699 -14.667 11.334 -18 20.001v1l-1 1
c-0.666992 0.666992 -1 1.33398 -1 2.00098c-0.666992 1.33301 -1 3 -1 5v1c0 1.33301 -0.333008 2.33301 -1 3h-1c-0.666992 1.33301 -2.33398 2.66602 -5.00098 3.99902c-6 2.66699 -12 3.33398 -18 2.00098c-7.33301 -2 -12.833 -5.33301 -16.5 -10s-5.16699 -9 -4.5 -13
v-6c-0.666992 -0.666992 -1 -1.33398 -1 -2.00098v-1l-2 -2c0 -0.666992 -0.333008 -1 -1 -1c-1.33301 -2 -2.66602 -3.33301 -3.99902 -4c-2 -0.666992 -4 -1 -6 -1c-8 0 -12.667 4 -14 12c-2.66699 12 0.166016 23.333 8.49902 34s19.5 17.667 33.5 21
c4 0.666992 7 1.33398 9 2.00098h4z" />
    <glyph glyph-name="Odieresis" unicode="&#xd6;" horiz-adv-x="900" 
d="M883 433c0 -58.667 -11.5 -114.834 -34.5 -168.501s-53.833 -99.834 -92.5 -138.501s-84.834 -69.5 -138.501 -92.5s-109.834 -34.5 -168.501 -34.5s-114.834 11.5 -168.501 34.5s-99.834 53.833 -138.501 92.5s-69.5 84.834 -92.5 138.501s-34.5 109.834 -34.5 168.501
s11.5 114.834 34.5 168.501s53.833 99.834 92.5 138.501s84.834 69.5 138.501 92.5s109.834 34.5 168.501 34.5s114.834 -11.5 168.501 -34.5s99.834 -53.833 138.501 -92.5s69.5 -84.834 92.5 -138.501s34.5 -109.834 34.5 -168.501zM245 784
c-62 -36 -111.165 -85.166 -147.498 -147.499s-54.5 -130.166 -54.5 -203.499s18.167 -141.166 54.5 -203.499s85.666 -111.666 147.999 -147.999s130.166 -54.5 203.499 -54.5s141.166 18.167 203.499 54.5s111.666 85.666 147.999 147.999s54.5 130.166 54.5 203.499
s-18.167 141.166 -54.5 203.499s-85.666 111.666 -147.999 147.999s-130.166 54.5 -203.499 54.5s-141.333 -18.333 -204 -55zM380.002 986.001c11.333 0 20.833 -4 28.5 -12s11.5 -17.667 11.5 -29s-3.83301 -21 -11.5 -29s-17.167 -12 -28.5 -12s-20.833 4 -28.5 12
s-11.5 17.667 -11.5 29s3.83301 21 11.5 29s17.167 12 28.5 12zM502.002 945.001c0 10 2.99902 18.667 8.99902 26s13.667 12 23 14c2.66699 0.666992 5.33398 1 8.00098 1c11.333 0 20.833 -4 28.5 -12s11.5 -17.667 11.5 -29s-3.83301 -21 -11.5 -29
s-17.167 -12 -28.5 -12s-20.833 4 -28.5 12s-11.5 17.667 -11.5 29z" />
    <glyph glyph-name="glyph_122" unicode="&#xd7;" horiz-adv-x="499" 
d="M104 568c4 0 7.33398 -1.33301 10.001 -4l138 -138l138 138c2.66699 2.66699 5.66699 4 9 4h2c4 0 7.33301 -1.33301 10 -4s4 -6 4 -10s-1.66699 -7.33301 -5 -10l-138 -139l138 -139c3.33301 -2.66699 5 -6 5 -10s-1.33301 -7.33301 -4 -10s-6 -4 -10 -4
s-7.66699 1.66699 -11 5l-138 138l-138 -138c-2.66699 -3.33301 -6.33398 -5 -11.001 -5c-4 0 -7.33301 1.33301 -10 4s-4 6 -4 10s1.66699 7.33301 5 10l138 139l-138 139c-3.33301 2.66699 -5 6 -5 10c0 8 3.66699 12.667 11 14h4z" />
    <glyph glyph-name="Oslash" unicode="&#xd8;" horiz-adv-x="867" 
d="M725 723l98.9971 101c2.66699 2.66699 5.33398 4.33398 8.00098 5.00098h3c3.33301 0 6.5 -1.5 9.5 -4.5s4.5 -6.16699 4.5 -9.5c0 -4.66699 -1.66699 -8.33398 -5 -11.001l-101 -101c70 -80.667 105 -174 105 -280c0 -76.667 -18.667 -147.5 -56 -212.5
s-88.166 -116.333 -152.499 -154s-134.166 -56.5 -209.499 -56.5c-105.333 -0 -197.666 35.333 -276.999 106l-118 -120c-2.66699 -2.66699 -6 -4 -10 -4s-7.33301 1.33301 -10 4s-4 6 -4 10s1.33301 7.33301 4 10l117 118c-38 38.667 -67.667 83.834 -89 135.501
s-32 106.167 -32 163.5c0 76 18.667 146.5 56 211.5s88.166 116.5 152.499 154.5s134.5 57 210.5 57c56 0 109.5 -10.833 160.5 -32.5s95.833 -51.834 134.5 -90.501zM38.9971 423c0 -54 9.99902 -104.832 29.999 -152.499s47.667 -89.834 83 -126.501l552 559
c-35.333 36.667 -76.666 65 -123.999 85s-97.333 30 -150 30c-70.667 0 -136.167 -17.667 -196.5 -53s-107.833 -83.333 -142.5 -144s-52 -126.667 -52 -198zM172.996 125.001c74 -64.667 159.667 -97 257 -97c70.667 0 136 17.5 196 52.5s107.333 82.833 142 143.5
s52 127 52 199c0 98 -32.333 184.333 -97 259z" />
    <glyph glyph-name="Ugrave" unicode="&#xd9;" horiz-adv-x="618" 
d="M29 864c4 0 7.33496 -1.33398 10.002 -4.00098s4 -6 4 -10v-632c0.666992 -52.667 26.667 -98 78 -136c52.667 -39.333 116 -58.666 190 -57.999c74 0 137 19.667 189 59c50.667 38.667 75.667 84.667 75 138v629c0 8 3.66699 12.667 11 14h3c4 0 7.33301 -1.33301 10 -4
s4 -6 4 -10v-644c0 -2 -0.666992 -4 -2 -6v-2c-6.66699 -53.333 -34.667 -98.666 -84 -135.999c-56.667 -43.333 -125.334 -65.333 -206.001 -66h-4c-78.667 0 -146.334 21 -203.001 63c-51.333 38 -80.333 84.667 -87 140v1h-0.5c-0.333008 0 -0.5 0.333008 -0.5 1v1
c-0.666992 1.33301 -1 2.66602 -1 3.99902v645c0 6.66699 3.33301 11 10 13h4zM266.002 1003c4 0 7.33398 -1.33398 10.001 -4.00098l71 -71l19 -20l-7 -8l-1 -1c-0.666992 -1.33301 -1.66699 -2.66602 -3 -3.99902h-2l-1 -1c-1.33301 -0.666992 -3 -1 -5 -1h-2
c-0.666992 0 -1.33398 0.333008 -2.00098 1h-2l-2 2h-1c0 0.666992 -0.333008 1 -1 1l-1 1l-2 2l-77 79c-4 2.66699 -6 6 -6 10c0 7.33301 3.66699 12 11 14h4z" />
    <glyph glyph-name="Uacute" unicode="&#xda;" horiz-adv-x="621" 
d="M29 864c4 0 7.33496 -1.33398 10.002 -4.00098s4 -6 4 -10v-632c0.666992 -52.667 26.667 -98 78 -136c52.667 -39.333 116 -58.666 190 -57.999c74 0 137 19.667 189 59c50.667 38.667 75.667 84.667 75 138v629c0 8 3.66699 12.667 11 14h3c4 0 7.33301 -1.33301 10 -4
s4 -6 4 -10v-644c0 -2 -0.666992 -4 -2 -6v-2c-6.66699 -53.333 -34.667 -98.666 -84 -135.999c-56.667 -43.333 -125.334 -65.333 -206.001 -66h-4c-78.667 0 -146.334 21 -203.001 63c-51.333 38 -80.333 84.667 -87 140v1h-0.5c-0.333008 0 -0.5 0.333008 -0.5 1v1
c-0.666992 1.33301 -1 2.66602 -1 3.99902v645c0 6.66699 3.33301 11 10 13h4zM364.002 989.999c0 -4 -1.33398 -7.33398 -4.00098 -10.001l-72 -70l-20 -19l-8 7l-1 1c-1.33301 0.666992 -2.66602 1.66699 -3.99902 3v2l-1 1c-0.666992 1.33301 -1 3 -1 5v2
c0 0.666992 0.333008 1.33398 1 2.00098v2l2 2v1c0.666992 0 1 0.333008 1 1l1 1l2 2l80 76c2.66699 4 6 6 10 6c7.33301 0 12 -3.66699 14 -11v-4z" />
    <glyph glyph-name="Ucircumflex" unicode="&#xdb;" horiz-adv-x="623" 
d="M29 864c4 0 7.33496 -1.33398 10.002 -4.00098s4 -6 4 -10v-632c0.666992 -52.667 26.667 -98 78 -136c52.667 -39.333 116 -58.666 190 -57.999c74 0 137 19.667 189 59c50.667 38.667 75.667 84.667 75 138v629c0 8 3.66699 12.667 11 14h3c4 0 7.33301 -1.33301 10 -4
s4 -6 4 -10v-644c0 -2 -0.666992 -4 -2 -6v-2c-6.66699 -53.333 -34.667 -98.666 -84 -135.999c-56.667 -43.333 -125.334 -65.333 -206.001 -66h-4c-78.667 0 -146.334 21 -203.001 63c-51.333 38 -80.333 84.667 -87 140v1h-0.5c-0.333008 0 -0.5 0.333008 -0.5 1v1
c-0.666992 1.33301 -1 2.66602 -1 3.99902v645c0 6.66699 3.33301 11 10 13h4zM213.002 894.999c-7.33301 2 -11 6.66602 -11 13.999c0 4 2 7.33301 6 10l77 79l2 2l1 1c0.666992 0 1 0.333008 1 1h1l2 2h2c0.666992 0.666992 1.33398 1 2.00098 1h2
c2 0 3.66699 -0.333008 5 -1l1 -1h2c1.33301 -1.33301 2.33301 -2.66602 3 -3.99902l1 -1l1 -1l78 -78c3.33301 -2.66699 5 -6 5 -10s-1.5 -7.33301 -4.5 -10s-6.16699 -4 -9.5 -4h-3c-2.66699 0.666992 -5.33398 2 -8.00098 4l-71 71l-71 -71
c-2.66699 -2.66699 -6 -4 -10 -4h-4z" />
    <glyph glyph-name="Udieresis" unicode="&#xdc;" horiz-adv-x="620" 
d="M29 864c4 0 7.33496 -1.33398 10.002 -4.00098s4 -6 4 -10v-632c0.666992 -52.667 26.667 -98 78 -136c52.667 -39.333 116 -58.666 190 -57.999c74 0 137 19.667 189 59c50.667 38.667 75.667 84.667 75 138v629c0 8 3.66699 12.667 11 14h3c4 0 7.33301 -1.33301 10 -4
s4 -6 4 -10v-644c0 -2 -0.666992 -4 -2 -6v-2c-6.66699 -53.333 -34.667 -98.666 -84 -135.999c-56.667 -43.333 -125.334 -65.333 -206.001 -66h-4c-78.667 0 -146.334 21 -203.001 63c-51.333 38 -80.333 84.667 -87 140v1h-0.5c-0.333008 0 -0.5 0.333008 -0.5 1v1
c-0.666992 1.33301 -1 2.66602 -1 3.99902v645c0 6.66699 3.33301 11 10 13h4zM220.002 989.999c11.333 0 20.833 -4 28.5 -12s11.5 -17.667 11.5 -29s-3.83301 -21 -11.5 -29s-17.167 -12 -28.5 -12s-20.833 4 -28.5 12s-11.5 17.667 -11.5 29s3.83301 21 11.5 29
s17.167 12 28.5 12zM342.002 948.999c0 10 2.99902 18.667 8.99902 26s13.667 12 23 14c2.66699 0.666992 5.33398 1 8.00098 1c11.333 0 20.833 -4 28.5 -12s11.5 -17.667 11.5 -29s-3.83301 -21 -11.5 -29s-17.167 -12 -28.5 -12s-20.833 4 -28.5 12
s-11.5 17.667 -11.5 29z" />
    <glyph glyph-name="Yacute" unicode="&#xdd;" horiz-adv-x="627" 
d="M592 857c3.33301 0 6.5 -1.5 9.5 -4.5s4.5 -6.16699 4.5 -9.5s-1 -6.33301 -3 -9l-279 -418v-415c0 -3.33301 -1.33301 -6.5 -4 -9.5s-5.66699 -4.5 -9 -4.5c-4 0 -7.5 1.5 -10.5 4.5s-4.5 6.16699 -4.5 9.5v416l-277 417c-2 2 -3 4.66699 -3 8c0 7.33301 4 12 12 14h3
c4.66699 0 8.66699 -2 12 -6l268 -403l268 403c2 2.66699 5 4.66699 9 6c0.666992 0 1.66699 0.333008 3 1h1zM364 990c0 -4 -1.33398 -7.33398 -4.00098 -10.001l-72 -70l-20 -19l-8 7l-1 1c-1.33301 0.666992 -2.66602 1.66699 -3.99902 3v2l-1 1
c-0.666992 1.33301 -1 3 -1 5v2c0 0.666992 0.333008 1.33398 1 2.00098v2l2 2v1c0.666992 0 1 0.333008 1 1l1 1l2 2l80 76c2.66699 4 6 6 10 6c7.33301 0 12 -3.66699 14 -11v-4z" />
    <glyph glyph-name="germandbls" unicode="&#xdf;" horiz-adv-x="307" 
d="M228 721c23.333 -32 35.001 -69.8389 35.001 -113.506s-11.667 -81.5 -35 -113.5c-10.667 -15.333 -24.667 -27.666 -42 -36.999c21.333 -12.667 39.666 -32.667 54.999 -60c25.333 -44.667 38 -98.667 38 -162v-5c-0.666992 -63.333 -13.667 -117.333 -39 -162
c-27.333 -46.667 -61.666 -70.667 -102.999 -72c-4 0 -7.33301 1.33301 -10 4s-4 5.83398 -4 9.50098s1.33301 7 4 10s5.66699 4.5 9 4.5c30.667 0.666992 57 20 79 58c23.333 40.667 35.333 90.334 36 149.001c0.666992 59.333 -11 110 -35 152
c-21.333 38 -46.666 58.333 -75.999 61h-5c-1.33301 0 -3 0.333008 -5 1h-2c-10.667 2 -19.667 4.33301 -27 7c-6 2.66699 -9 7.33398 -9 14.001c0 4 1.33301 7.33301 4 10s6 4 10 4c2.66699 0 5 -0.666992 7 -2c8 -4 15.667 -6 23 -6h4c25.333 0 47.333 12.667 66 38
c19.333 27.333 29 59.833 29 97.5s-9.66699 69.834 -29 96.501c-18.667 25.333 -40.667 38 -66 38s-47.333 -12.667 -66 -38s-28.334 -57 -29.001 -95c0.666992 0 1 -0.166992 1 -0.5s-0.333008 -0.833008 -1 -1.5h1l-1 -1l-2 -886c0 -4 -1.33301 -7.33301 -4 -10
s-6 -4 -10 -4s-7.33301 1.33301 -10 4s-4 6 -4 10l2 885v6c1.33301 42.667 13 79.334 35 110.001c24 32.667 53.333 49 88 49c35.333 0 64.666 -16.333 87.999 -49z" />
    <glyph glyph-name="agrave" unicode="&#xe0;" horiz-adv-x="447" 
d="M81 178c-24 -28.667 -32.665 -57.001 -25.998 -85.001c1.33301 -6.66699 3.66602 -13 6.99902 -19c10 -19.333 27.333 -33.666 52 -42.999c34 -14 72.5 -15.333 115.5 -4s76.833 31.666 101.5 60.999c0.666992 1.33301 1.66699 2.33301 3 3v121
c-8.66699 8 -20.667 15.333 -36 22c-17.333 7.33301 -36 11 -56 11c-29.333 1.33301 -58.833 -4.16699 -88.5 -16.5s-53.834 -29.166 -72.501 -50.499zM209.002 421.999c23.333 -1.33301 44.3301 -5.66992 62.9971 -13.0029c24.667 -8.66699 44.834 -21.167 60.501 -37.5
s25.167 -34.166 28.5 -53.499v-2c0.666992 -0.666992 1 -2 1 -4v-260c0.666992 -8 4.33398 -14 11.001 -18c8 -6.66699 18.333 -10 31 -10h1c3.33301 0 6.5 -1.33301 9.5 -4s4.5 -5.66699 4.5 -9c0 -4 -1.5 -7.33301 -4.5 -10s-6.16699 -4 -9.5 -4h-1
c-18.667 0 -34.667 5 -48 15c-12 9.33301 -19 21 -21 35v3h-1v1l-2.5 -2.5c-1 -1 -1.83301 -1.5 -2.5 -1.5l-28 -20c-20.667 -12.667 -42 -21.667 -64 -27c-9.33301 -2 -20.666 -4 -33.999 -6c-8 -0.666992 -15.667 -1 -23 -1c-27.333 0 -53 4.66699 -77 14
c-41.333 16 -66.333 42.667 -75 80c-2 8.66699 -3 17 -3 25c0 28.667 11.667 56.334 35 83.001c21.333 25.333 48.666 44.833 81.999 58.5s67 19.834 101 18.501c24 -0.666992 45.667 -5 65 -13c8 -3.33301 16.333 -7.33301 25 -12h1v58c0 16 -6.33301 31.167 -19 45.5
s-30 25.5 -52 33.5c-35.333 12.667 -72 15 -110 7s-66 -23 -84 -45c-2.66699 -3.33301 -6.33398 -5 -11.001 -5c-4 0 -7.33301 1.16699 -10 3.5s-4 5.5 -4 9.5c0 3.33301 1 6.33301 3 9c14.667 18.667 34.334 33.167 59.001 43.5s51.334 15.833 80.001 16.5
c5.33301 0 13 -0.333008 23 -1zM165.999 551.995c4 0 7.33398 -1.33398 10.001 -4.00098l71 -71l19 -20l-7 -8l-1 -1c-0.666992 -1.33301 -1.66699 -2.66602 -3 -3.99902h-2l-1 -1c-1.33301 -0.666992 -3 -1 -5 -1h-2c-0.666992 0 -1.33398 0.333008 -2.00098 1h-2l-2 2h-1
c0 0.666992 -0.333008 1 -1 1l-1 1l-2 2l-77 79c-4 2.66699 -6 6 -6 10c0 7.33301 3.66699 12 11 14h4z" />
    <glyph glyph-name="aacute" unicode="&#xe1;" horiz-adv-x="438" 
d="M81 178c-24 -28.667 -32.665 -57.001 -25.998 -85.001c1.33301 -6.66699 3.66602 -13 6.99902 -19c10 -19.333 27.333 -33.666 52 -42.999c34 -14 72.5 -15.333 115.5 -4s76.833 31.666 101.5 60.999c0.666992 1.33301 1.66699 2.33301 3 3v121
c-8.66699 8 -20.667 15.333 -36 22c-17.333 7.33301 -36 11 -56 11c-29.333 1.33301 -58.833 -4.16699 -88.5 -16.5s-53.834 -29.166 -72.501 -50.499zM209.002 421.999c23.333 -1.33301 44.3301 -5.66992 62.9971 -13.0029c24.667 -8.66699 44.834 -21.167 60.501 -37.5
s25.167 -34.166 28.5 -53.499v-2c0.666992 -0.666992 1 -2 1 -4v-260c0.666992 -8 4.33398 -14 11.001 -18c8 -6.66699 18.333 -10 31 -10h1c3.33301 0 6.5 -1.33301 9.5 -4s4.5 -5.66699 4.5 -9c0 -4 -1.5 -7.33301 -4.5 -10s-6.16699 -4 -9.5 -4h-1
c-18.667 0 -34.667 5 -48 15c-12 9.33301 -19 21 -21 35v3h-1v1l-2.5 -2.5c-1 -1 -1.83301 -1.5 -2.5 -1.5l-28 -20c-20.667 -12.667 -42 -21.667 -64 -27c-9.33301 -2 -20.666 -4 -33.999 -6c-8 -0.666992 -15.667 -1 -23 -1c-27.333 0 -53 4.66699 -77 14
c-41.333 16 -66.333 42.667 -75 80c-2 8.66699 -3 17 -3 25c0 28.667 11.667 56.334 35 83.001c21.333 25.333 48.666 44.833 81.999 58.5s67 19.834 101 18.501c24 -0.666992 45.667 -5 65 -13c8 -3.33301 16.333 -7.33301 25 -12h1v58c0 16 -6.33301 31.167 -19 45.5
s-30 25.5 -52 33.5c-35.333 12.667 -72 15 -110 7s-66 -23 -84 -45c-2.66699 -3.33301 -6.33398 -5 -11.001 -5c-4 0 -7.33301 1.16699 -10 3.5s-4 5.5 -4 9.5c0 3.33301 1 6.33301 3 9c14.667 18.667 34.334 33.167 59.001 43.5s51.334 15.833 80.001 16.5
c5.33301 0 13 -0.333008 23 -1zM153.999 453.995c0 4 1.33398 7.33398 4.00098 10.001l70 72l20 19l8 -7l1 -1c1.33301 -0.666992 2.66602 -1.66699 3.99902 -3v-2l1 -1c0.666992 -1.33301 1 -3 1 -5v-2c0 -0.666992 -0.333008 -1.33398 -1 -2.00098v-2l-2 -2v-1
c-0.666992 0 -1 -0.333008 -1 -1l-1 -1l-2 -2l-78 -78c-2.66699 -4 -6 -6 -10 -6c-7.33301 0 -12 3.66699 -14 11v4z" />
    <glyph glyph-name="acircumflex" unicode="&#xe2;" horiz-adv-x="441" 
d="M81 178c-24 -28.667 -32.665 -57.001 -25.998 -85.001c1.33301 -6.66699 3.66602 -13 6.99902 -19c10 -19.333 27.333 -33.666 52 -42.999c34 -14 72.5 -15.333 115.5 -4s76.833 31.666 101.5 60.999c0.666992 1.33301 1.66699 2.33301 3 3v121
c-8.66699 8 -20.667 15.333 -36 22c-17.333 7.33301 -36 11 -56 11c-29.333 1.33301 -58.833 -4.16699 -88.5 -16.5s-53.834 -29.166 -72.501 -50.499zM209.002 421.999c23.333 -1.33301 44.3301 -5.66992 62.9971 -13.0029c24.667 -8.66699 44.834 -21.167 60.501 -37.5
s25.167 -34.166 28.5 -53.499v-2c0.666992 -0.666992 1 -2 1 -4v-260c0.666992 -8 4.33398 -14 11.001 -18c8 -6.66699 18.333 -10 31 -10h1c3.33301 0 6.5 -1.33301 9.5 -4s4.5 -5.66699 4.5 -9c0 -4 -1.5 -7.33301 -4.5 -10s-6.16699 -4 -9.5 -4h-1
c-18.667 0 -34.667 5 -48 15c-12 9.33301 -19 21 -21 35v3h-1v1l-2.5 -2.5c-1 -1 -1.83301 -1.5 -2.5 -1.5l-28 -20c-20.667 -12.667 -42 -21.667 -64 -27c-9.33301 -2 -20.666 -4 -33.999 -6c-8 -0.666992 -15.667 -1 -23 -1c-27.333 0 -53 4.66699 -77 14
c-41.333 16 -66.333 42.667 -75 80c-2 8.66699 -3 17 -3 25c0 28.667 11.667 56.334 35 83.001c21.333 25.333 48.666 44.833 81.999 58.5s67 19.834 101 18.501c24 -0.666992 45.667 -5 65 -13c8 -3.33301 16.333 -7.33301 25 -12h1v58c0 16 -6.33301 31.167 -19 45.5
s-30 25.5 -52 33.5c-35.333 12.667 -72 15 -110 7s-66 -23 -84 -45c-2.66699 -3.33301 -6.33398 -5 -11.001 -5c-4 0 -7.33301 1.16699 -10 3.5s-4 5.5 -4 9.5c0 3.33301 1 6.33301 3 9c14.667 18.667 34.334 33.167 59.001 43.5s51.334 15.833 80.001 16.5
c5.33301 0 13 -0.333008 23 -1zM117.999 444.995c-7.33301 2 -11 6.66602 -11 13.999c0 4 2 7.33301 6 10l77 79l2 2l1 1c0.666992 0 1 0.333008 1 1h1l2 2h2c0.666992 0.666992 1.33398 1 2.00098 1h2c2 0 3.66699 -0.333008 5 -1l1 -1h2
c1.33301 -1.33301 2.33301 -2.66602 3 -3.99902l1 -1l1 -1l78 -78c3.33301 -2.66699 5 -6 5 -10s-1.5 -7.33301 -4.5 -10s-6.16699 -4 -9.5 -4h-3c-2.66699 0.666992 -5.33398 2 -8.00098 4l-71 71l-71 -71c-2.66699 -2.66699 -6 -4 -10 -4h-4z" />
    <glyph glyph-name="atilde" unicode="&#xe3;" horiz-adv-x="441" 
d="M81 178c-24 -28.667 -32.665 -57.001 -25.998 -85.001c1.33301 -6.66699 3.66602 -13 6.99902 -19c10 -19.333 27.333 -33.666 52 -42.999c34 -14 72.5 -15.333 115.5 -4s76.833 31.666 101.5 60.999c0.666992 1.33301 1.66699 2.33301 3 3v121
c-8.66699 8 -20.667 15.333 -36 22c-17.333 7.33301 -36 11 -56 11c-29.333 1.33301 -58.833 -4.16699 -88.5 -16.5s-53.834 -29.166 -72.501 -50.499zM209.002 421.999c23.333 -1.33301 44.3301 -5.66992 62.9971 -13.0029c24.667 -8.66699 44.834 -21.167 60.501 -37.5
s25.167 -34.166 28.5 -53.499v-2c0.666992 -0.666992 1 -2 1 -4v-260c0.666992 -8 4.33398 -14 11.001 -18c8 -6.66699 18.333 -10 31 -10h1c3.33301 0 6.5 -1.33301 9.5 -4s4.5 -5.66699 4.5 -9c0 -4 -1.5 -7.33301 -4.5 -10s-6.16699 -4 -9.5 -4h-1
c-18.667 0 -34.667 5 -48 15c-12 9.33301 -19 21 -21 35v3h-1v1l-2.5 -2.5c-1 -1 -1.83301 -1.5 -2.5 -1.5l-28 -20c-20.667 -12.667 -42 -21.667 -64 -27c-9.33301 -2 -20.666 -4 -33.999 -6c-8 -0.666992 -15.667 -1 -23 -1c-27.333 0 -53 4.66699 -77 14
c-41.333 16 -66.333 42.667 -75 80c-2 8.66699 -3 17 -3 25c0 28.667 11.667 56.334 35 83.001c21.333 25.333 48.666 44.833 81.999 58.5s67 19.834 101 18.501c24 -0.666992 45.667 -5 65 -13c8 -3.33301 16.333 -7.33301 25 -12h1v58c0 16 -6.33301 31.167 -19 45.5
s-30 25.5 -52 33.5c-35.333 12.667 -72 15 -110 7s-66 -23 -84 -45c-2.66699 -3.33301 -6.33398 -5 -11.001 -5c-4 0 -7.33301 1.16699 -10 3.5s-4 5.5 -4 9.5c0 3.33301 1 6.33301 3 9c14.667 18.667 34.334 33.167 59.001 43.5s51.334 15.833 80.001 16.5
c5.33301 0 13 -0.333008 23 -1zM163.999 542.995c8.66699 0 16.665 -2.00098 23.998 -6.00098c5.33301 -2.66699 10 -6.33398 14 -11.001c0.666992 -0.666992 2 -2.66699 4 -6c0.666992 -1.33301 1.66699 -2.66602 3 -3.99902v-2c0.666992 -1.33301 1 -2.33301 1 -3v-3
c0.666992 0 1 -0.333008 1 -1v-4h1c0.666992 -0.666992 2.33398 -1.66699 5.00098 -3c5.33301 -2.66699 11.333 -3.33398 18 -2.00098s12.167 4.5 16.5 9.5s6.5 9.5 6.5 13.5c-0.666992 0.666992 -1 1.5 -1 2.5s0.333008 1.83301 1 2.5c-0.666992 0 -1 0.166992 -1 0.5
s0.333008 0.833008 1 1.5c1.33301 5.33301 5 8.33301 11 9c0.666992 0.666992 1.66699 1 3 1c2 0 4 -0.666992 6 -2c2.66699 -1.33301 4.66699 -3.33301 6 -6l1 -1v-1c0 -0.666992 0.333008 -1 1 -1v-2c0.666992 -6 0 -12 -2 -18
c-1.33301 -4.66699 -2.66602 -7.66699 -3.99902 -9c-8 -14 -21 -23 -39 -27c-13.333 -3.33301 -25.666 -2 -36.999 4c-8.66699 4.66699 -14.667 11.334 -18 20.001v1l-1 1c-0.666992 0.666992 -1 1.33398 -1 2.00098c-0.666992 1.33301 -1 3 -1 5v1
c0 1.33301 -0.333008 2.33301 -1 3h-1c-0.666992 1.33301 -2.33398 2.66602 -5.00098 3.99902c-6 2.66699 -12 3.33398 -18 2.00098c-7.33301 -2 -12.833 -5.33301 -16.5 -10s-5.16699 -9 -4.5 -13v-6c-0.666992 -0.666992 -1 -1.33398 -1 -2.00098v-1l-2 -2
c0 -0.666992 -0.333008 -1 -1 -1c-1.33301 -2 -2.66602 -3.33301 -3.99902 -4c-2 -0.666992 -4 -1 -6 -1c-8 0 -12.667 4 -14 12c-2.66699 12 0.166016 23.333 8.49902 34s19.5 17.667 33.5 21c4 0.666992 7 1.33398 9 2.00098h4z" />
    <glyph glyph-name="adieresis" unicode="&#xe4;" horiz-adv-x="440" 
d="M81 178c-24 -28.667 -32.665 -57.001 -25.998 -85.001c1.33301 -6.66699 3.66602 -13 6.99902 -19c10 -19.333 27.333 -33.666 52 -42.999c34 -14 72.5 -15.333 115.5 -4s76.833 31.666 101.5 60.999c0.666992 1.33301 1.66699 2.33301 3 3v121
c-8.66699 8 -20.667 15.333 -36 22c-17.333 7.33301 -36 11 -56 11c-29.333 1.33301 -58.833 -4.16699 -88.5 -16.5s-53.834 -29.166 -72.501 -50.499zM209.002 421.999c23.333 -1.33301 44.3301 -5.66992 62.9971 -13.0029c24.667 -8.66699 44.834 -21.167 60.501 -37.5
s25.167 -34.166 28.5 -53.499v-2c0.666992 -0.666992 1 -2 1 -4v-260c0.666992 -8 4.33398 -14 11.001 -18c8 -6.66699 18.333 -10 31 -10h1c3.33301 0 6.5 -1.33301 9.5 -4s4.5 -5.66699 4.5 -9c0 -4 -1.5 -7.33301 -4.5 -10s-6.16699 -4 -9.5 -4h-1
c-18.667 0 -34.667 5 -48 15c-12 9.33301 -19 21 -21 35v3h-1v1l-2.5 -2.5c-1 -1 -1.83301 -1.5 -2.5 -1.5l-28 -20c-20.667 -12.667 -42 -21.667 -64 -27c-9.33301 -2 -20.666 -4 -33.999 -6c-8 -0.666992 -15.667 -1 -23 -1c-27.333 0 -53 4.66699 -77 14
c-41.333 16 -66.333 42.667 -75 80c-2 8.66699 -3 17 -3 25c0 28.667 11.667 56.334 35 83.001c21.333 25.333 48.666 44.833 81.999 58.5s67 19.834 101 18.501c24 -0.666992 45.667 -5 65 -13c8 -3.33301 16.333 -7.33301 25 -12h1v58c0 16 -6.33301 31.167 -19 45.5
s-30 25.5 -52 33.5c-35.333 12.667 -72 15 -110 7s-66 -23 -84 -45c-2.66699 -3.33301 -6.33398 -5 -11.001 -5c-4 0 -7.33301 1.16699 -10 3.5s-4 5.5 -4 9.5c0 3.33301 1 6.33301 3 9c14.667 18.667 34.334 33.167 59.001 43.5s51.334 15.833 80.001 16.5
c5.33301 0 13 -0.333008 23 -1zM113.999 543.995c11.333 0 20.833 -4 28.5 -12s11.5 -17.667 11.5 -29s-3.83301 -21 -11.5 -29s-17.167 -12 -28.5 -12s-20.833 4 -28.5 12s-11.5 17.667 -11.5 29s3.83301 21 11.5 29s17.167 12 28.5 12zM235.999 502.995
c0 10 2.99902 18.667 8.99902 26s13.667 12 23 14c2.66699 0.666992 5.33398 1 8.00098 1c11.333 0 20.833 -4 28.5 -12s11.5 -17.667 11.5 -29s-3.83301 -21 -11.5 -29s-17.167 -12 -28.5 -12s-20.833 4 -28.5 12s-11.5 17.667 -11.5 29z" />
    <glyph glyph-name="aring" unicode="&#xe5;" horiz-adv-x="433" 
d="M81 178c-24 -28.667 -32.665 -57.001 -25.998 -85.001c1.33301 -6.66699 3.66602 -13 6.99902 -19c10 -19.333 27.333 -33.666 52 -42.999c34 -14 72.5 -15.333 115.5 -4s76.833 31.666 101.5 60.999c0.666992 1.33301 1.66699 2.33301 3 3v121
c-8.66699 8 -20.667 15.333 -36 22c-17.333 7.33301 -36 11 -56 11c-29.333 1.33301 -58.833 -4.16699 -88.5 -16.5s-53.834 -29.166 -72.501 -50.499zM209.002 421.999c23.333 -1.33301 44.3301 -5.66992 62.9971 -13.0029c24.667 -8.66699 44.834 -21.167 60.501 -37.5
s25.167 -34.166 28.5 -53.499v-2c0.666992 -0.666992 1 -2 1 -4v-260c0.666992 -8 4.33398 -14 11.001 -18c8 -6.66699 18.333 -10 31 -10h1c3.33301 0 6.5 -1.33301 9.5 -4s4.5 -5.66699 4.5 -9c0 -4 -1.5 -7.33301 -4.5 -10s-6.16699 -4 -9.5 -4h-1
c-18.667 0 -34.667 5 -48 15c-12 9.33301 -19 21 -21 35v3h-1v1l-2.5 -2.5c-1 -1 -1.83301 -1.5 -2.5 -1.5l-28 -20c-20.667 -12.667 -42 -21.667 -64 -27c-9.33301 -2 -20.666 -4 -33.999 -6c-8 -0.666992 -15.667 -1 -23 -1c-27.333 0 -53 4.66699 -77 14
c-41.333 16 -66.333 42.667 -75 80c-2 8.66699 -3 17 -3 25c0 28.667 11.667 56.334 35 83.001c21.333 25.333 48.666 44.833 81.999 58.5s67 19.834 101 18.501c24 -0.666992 45.667 -5 65 -13c8 -3.33301 16.333 -7.33301 25 -12h1v58c0 16 -6.33301 31.167 -19 45.5
s-30 25.5 -52 33.5c-35.333 12.667 -72 15 -110 7s-66 -23 -84 -45c-2.66699 -3.33301 -6.33398 -5 -11.001 -5c-4 0 -7.33301 1.16699 -10 3.5s-4 5.5 -4 9.5c0 3.33301 1 6.33301 3 9c14.667 18.667 34.334 33.167 59.001 43.5s51.334 15.833 80.001 16.5
c5.33301 0 13 -0.333008 23 -1zM201.999 570.995c13.333 0 24.833 -5.33301 34.5 -16s14.5 -23.5 14.5 -38.5s-4.83301 -27.833 -14.5 -38.5s-21.167 -16 -34.5 -16s-24.833 5.33301 -34.5 16s-14.5 23.5 -14.5 38.5s4.83301 27.833 14.5 38.5s21.167 16 34.5 16z
M179.999 540.995c-6 -6.66699 -9 -14.834 -9 -24.501s3 -17.834 9 -24.501s13.167 -10 21.5 -10s15.5 3.33301 21.5 10s9 14.834 9 24.501s-3 17.834 -9 24.501s-13.167 10 -21.5 10s-15.5 -3.33301 -21.5 -10z" />
    <glyph glyph-name="ae" unicode="&#xe6;" horiz-adv-x="648" 
d="M451 392c-38.667 -4.66699 -70.333 -26.666 -95 -65.999c-17.333 -27.333 -27.666 -59.666 -30.999 -96.999c2 -2.66699 3 -5.33398 3 -8.00098h279c-2.66699 54 -20.334 98 -53.001 132c-26 27.333 -55.667 40.666 -89 39.999c-5.33301 0 -10 -0.333008 -14 -1z
M66.001 180.001c-22.667 -27.333 -30.999 -54.5 -24.999 -81.5s24.333 -46.833 55 -59.5c31.333 -12.667 66.5 -14 105.5 -4s70.5 28 94.5 54v97c-0.666992 7.33301 -1 12 -1 14c-1.33301 2 -2 4.16699 -2 6.5s0.666992 4.83301 2 7.5v4c-8.66699 6.66699 -17.667 12 -27 16
c-16 6 -33.333 9.33301 -52 10c-28 0.666992 -55.833 -4.83301 -83.5 -16.5s-49.834 -27.5 -66.501 -47.5zM575.002 372.001c38.667 -40.667 59 -92.6719 61 -156.005c0 -1.33301 -0.333008 -2.66602 -1 -3.99902v-2c0.666992 -1.33301 1 -2.33301 1 -3
c0 -4 -1.33301 -7.33301 -4 -10s-6 -4 -10 -4h-297c2.66699 -54.667 20 -98.667 52 -132c30.667 -31.333 64.667 -44.666 102 -39.999c38.667 5.33301 70.667 27.666 96 66.999c2.66699 4.66699 6.66699 7 12 7c4 0 7.33301 -1.33301 10 -4s4 -6 4 -10
c0 -3.33301 -1 -6 -3 -8c-29.333 -46.667 -67.333 -73 -114 -79c-6.66699 -0.666992 -13 -1 -19 -1c-40 0 -76 16.333 -108 49c-12 12.667 -22.667 27 -32 43c0 -2 -0.666992 -4 -2 -6c-0.666992 -0.666992 -1 -1.33398 -1 -2.00098l-2 -2
c0 -0.666992 -0.333008 -1.33398 -1 -2.00098l-2 -1c-0.666992 -0.666992 -1.33398 -1 -2.00098 -1c-28 -31.333 -63.667 -52.666 -107 -63.999c-18.667 -4.66699 -37 -7 -55 -7c-23.333 0 -45.666 4 -66.999 12c-40 16.667 -64 43.334 -72 80.001c-2 8 -3 16 -3 24
c0 28 11 55.333 33 82c20 24.667 45.667 43.667 77 57s63.333 19.333 96 18c22 -0.666992 42.667 -5 62 -13c4 -2 9.66699 -5 17 -9v68c-7.33301 26.667 -29.333 47 -66 61c-32.667 12 -66.667 14.333 -102 7s-61.333 -21.666 -78 -42.999c-2.66699 -5.33301 -7 -8 -13 -8
c-4 0 -7.33301 1.33301 -10 4s-4 6 -4 10s1.66699 7.66699 5 11c16 20.667 38 36.334 66 47.001c21.333 8 44 12 68 12c6.66699 0 13 -0.333008 19 -1c20 -1.33301 40 -5.66602 60 -12.999c36 -13.333 61 -34.333 75 -63l1 -1c4.66699 -2.66699 7 -6.66699 7 -12v-3
c0 0.666992 2.66699 5.33398 8 14.001c30 46.667 68.667 73 116 79c5.33301 0.666992 11 1 17 1c41.333 0 78 -16.333 110 -49z" />
    <glyph glyph-name="ccedilla" unicode="&#xe7;" horiz-adv-x="427" 
d="M316 15l0.00195312 -34.0029c10 5.33301 20.667 7.66602 32 6.99902c14.667 -1.33301 27 -7.66602 37 -18.999c8.66699 -10 13 -21.667 13 -35v-4c-1.33301 -15.333 -7.66602 -28 -18.999 -38c-10 -8.66699 -21.333 -13 -34 -13h-6c-2.66699 0 -5.66699 0.666992 -9 2
c-4.66699 2.66699 -7 6.66699 -7 12c0 4 1.5 7.33301 4.5 10s6.16699 4 9.5 4h5c7.33301 -0.666992 13.666 1.33301 18.999 6s8.33301 10.667 9 18c0 7.33301 -2.33301 13.833 -7 19.5s-10.667 8.83398 -18 9.50098s-13.666 -1.33301 -18.999 -6s-8.33301 -10.667 -9 -18
c0 -1.33301 -0.333008 -2.66602 -1 -3.99902v-3c0 -3.33301 -1.33301 -6.33301 -4 -9s-6 -4 -10 -4s-7.33301 1.33301 -10 4s-4 6 -4 10v74c-12.667 -3.33301 -26 -6 -40 -8c-57.333 -6 -108.5 9.33301 -153.5 46s-70.5 84.334 -76.5 143.001c-0.666992 8 -1 16 -1 24
c0 48.667 15.667 92.334 47 131.001c36 44.667 83.333 70 142 76c5.33301 0.666992 11.666 1 18.999 1h3c48.667 0 92 -15.667 130 -47c8 -6.66699 14.333 -12.334 19 -17.001c2.66699 -3.33301 4 -6.66602 4 -9.99902c0 -4.66699 -1.33301 -8.33398 -4 -11.001
s-6 -4 -10 -4c-4.66699 0 -8.33398 1.33301 -11.001 4c-1.33301 1.33301 -3 3.16602 -5 5.49902l-5.5 6.5c-1.66699 2 -3.5 3.66699 -5.5 5c-38.667 32 -82.834 45.333 -132.501 40s-90.334 -27.666 -122.001 -66.999s-45 -84.166 -40 -134.499s27 -91.5 66 -123.5
s83.333 -45.333 133 -40s90.5 27.666 122.5 66.999c2.66699 4 6.33398 6 11.001 6c4 0 7.5 -1.33301 10.5 -4s4.5 -6 4.5 -10s-1.33301 -7.33301 -4 -10c-20.667 -26 -45 -45.333 -73 -58z" />
    <glyph glyph-name="egrave" unicode="&#xe8;" horiz-adv-x="440" 
d="M78 318c-24 -29.333 -37.333 -63 -40 -101h361c-4 52 -26 94.333 -66 127c-34 28 -72.667 41.667 -116 41c-56.667 0 -103 -22.333 -139 -67zM351 366c23.333 -18.667 41.666 -41.5 54.999 -68.5s20.666 -55.833 21.999 -86.5c0 -1.33301 -0.333008 -2.66602 -1 -3.99902
v-2c0.666992 -0.666992 1 -1.33398 1 -2.00098c0 -4 -1.33301 -7.33301 -4 -10s-6 -4 -10 -4h-376c4 -52.667 26 -95.667 66 -129c39.333 -32 83.833 -45.5 133.5 -40.5s90.167 27.167 121.5 66.5c2.66699 3.33301 6.33398 5 11.001 5c4 0 7.33301 -1.33301 10 -4
s4 -6 4 -10c0 -2.66699 -1 -5.33398 -3 -8.00098c-36.667 -45.333 -83.667 -70.666 -141 -75.999c-8 -0.666992 -15.667 -1 -23 -1c-48 0 -91.333 15.667 -130 47c-24.667 20 -43.5 44.167 -56.5 72.5s-19.833 57.833 -20.5 88.5v7c0.666992 48.667 16 91.667 46 129
c36 44.667 83 70 141 76c4.66699 0 11.334 0.333008 20.001 1c51.333 0 96 -15.667 134 -47zM166 552c4 0 7.33398 -1.33398 10.001 -4.00098l71 -71l19 -20l-7 -8l-1 -1c-0.666992 -1.33301 -1.66699 -2.66602 -3 -3.99902h-2l-1 -1c-1.33301 -0.666992 -3 -1 -5 -1h-2
c-0.666992 0 -1.33398 0.333008 -2.00098 1h-2l-2 2h-1c0 0.666992 -0.333008 1 -1 1l-1 1l-2 2l-77 79c-4 2.66699 -6 6 -6 10c0 7.33301 3.66699 12 11 14h4z" />
    <glyph glyph-name="eacute" unicode="&#xe9;" horiz-adv-x="440" 
d="M78 318c-24 -29.333 -37.333 -63 -40 -101h361c-4 52 -26 94.333 -66 127c-34 28 -72.667 41.667 -116 41c-56.667 0 -103 -22.333 -139 -67zM351 366c23.333 -18.667 41.666 -41.5 54.999 -68.5s20.666 -55.833 21.999 -86.5c0 -1.33301 -0.333008 -2.66602 -1 -3.99902
v-2c0.666992 -0.666992 1 -1.33398 1 -2.00098c0 -4 -1.33301 -7.33301 -4 -10s-6 -4 -10 -4h-376c4 -52.667 26 -95.667 66 -129c39.333 -32 83.833 -45.5 133.5 -40.5s90.167 27.167 121.5 66.5c2.66699 3.33301 6.33398 5 11.001 5c4 0 7.33301 -1.33301 10 -4
s4 -6 4 -10c0 -2.66699 -1 -5.33398 -3 -8.00098c-36.667 -45.333 -83.667 -70.666 -141 -75.999c-8 -0.666992 -15.667 -1 -23 -1c-48 0 -91.333 15.667 -130 47c-24.667 20 -43.5 44.167 -56.5 72.5s-19.833 57.833 -20.5 88.5v7c0.666992 48.667 16 91.667 46 129
c36 44.667 83 70 141 76c4.66699 0 11.334 0.333008 20.001 1c51.333 0 96 -15.667 134 -47zM156 451c0 4 1.00195 7.66797 3.00195 11.001l67 75l19 20l9 -7l1 -1c1.33301 -0.666992 2.66602 -1.66699 3.99902 -3v-2h1c0.666992 -1.33301 1 -3 1 -5v-2
c0 -0.666992 -0.333008 -1.33398 -1 -2.00098v-1l1 -1c-0.666992 -1.33301 -1.33398 -2.33301 -2.00098 -3v-1c-0.666992 0 -1 -0.333008 -1 -1l-1 -1l-2 -2l-74 -81c-2.66699 -4 -6 -6.33301 -10 -7c-7.33301 0 -12.333 3.33301 -15 10v4z" />
    <glyph glyph-name="ecircumflex" unicode="&#xea;" horiz-adv-x="441" 
d="M78 318c-24 -29.333 -37.333 -63 -40 -101h361c-4 52 -26 94.333 -66 127c-34 28 -72.667 41.667 -116 41c-56.667 0 -103 -22.333 -139 -67zM351 366c23.333 -18.667 41.666 -41.5 54.999 -68.5s20.666 -55.833 21.999 -86.5c0 -1.33301 -0.333008 -2.66602 -1 -3.99902
v-2c0.666992 -0.666992 1 -1.33398 1 -2.00098c0 -4 -1.33301 -7.33301 -4 -10s-6 -4 -10 -4h-376c4 -52.667 26 -95.667 66 -129c39.333 -32 83.833 -45.5 133.5 -40.5s90.167 27.167 121.5 66.5c2.66699 3.33301 6.33398 5 11.001 5c4 0 7.33301 -1.33301 10 -4
s4 -6 4 -10c0 -2.66699 -1 -5.33398 -3 -8.00098c-36.667 -45.333 -83.667 -70.666 -141 -75.999c-8 -0.666992 -15.667 -1 -23 -1c-48 0 -91.333 15.667 -130 47c-24.667 20 -43.5 44.167 -56.5 72.5s-19.833 57.833 -20.5 88.5v7c0.666992 48.667 16 91.667 46 129
c36 44.667 83 70 141 76c4.66699 0 11.334 0.333008 20.001 1c51.333 0 96 -15.667 134 -47zM145 441c-7.33301 2 -11 6.66602 -11 13.999c0 4 2 7.33301 6 10l77 79l2 2l1 1c0.666992 0 1 0.333008 1 1h1l2 2h2c0.666992 0.666992 1.33398 1 2.00098 1h2
c2 0 3.66699 -0.333008 5 -1l1 -1h2c1.33301 -1.33301 2.33301 -2.66602 3 -3.99902l1 -1l1 -1l78 -78c3.33301 -2.66699 5 -6 5 -10s-1.5 -7.33301 -4.5 -10s-6.16699 -4 -9.5 -4h-3c-2.66699 0.666992 -5.33398 2 -8.00098 4l-71 71l-71 -71
c-2.66699 -2.66699 -6 -4 -10 -4h-4z" />
    <glyph glyph-name="edieresis" unicode="&#xeb;" horiz-adv-x="445" 
d="M78 318c-24 -29.333 -37.333 -63 -40 -101h361c-4 52 -26 94.333 -66 127c-34 28 -72.667 41.667 -116 41c-56.667 0 -103 -22.333 -139 -67zM351 366c23.333 -18.667 41.666 -41.5 54.999 -68.5s20.666 -55.833 21.999 -86.5c0 -1.33301 -0.333008 -2.66602 -1 -3.99902
v-2c0.666992 -0.666992 1 -1.33398 1 -2.00098c0 -4 -1.33301 -7.33301 -4 -10s-6 -4 -10 -4h-376c4 -52.667 26 -95.667 66 -129c39.333 -32 83.833 -45.5 133.5 -40.5s90.167 27.167 121.5 66.5c2.66699 3.33301 6.33398 5 11.001 5c4 0 7.33301 -1.33301 10 -4
s4 -6 4 -10c0 -2.66699 -1 -5.33398 -3 -8.00098c-36.667 -45.333 -83.667 -70.666 -141 -75.999c-8 -0.666992 -15.667 -1 -23 -1c-48 0 -91.333 15.667 -130 47c-24.667 20 -43.5 44.167 -56.5 72.5s-19.833 57.833 -20.5 88.5v7c0.666992 48.667 16 91.667 46 129
c36 44.667 83 70 141 76c4.66699 0 11.334 0.333008 20.001 1c51.333 0 96 -15.667 134 -47zM145 542c11.333 0 20.833 -4 28.5 -12s11.5 -17.667 11.5 -29s-3.83301 -21 -11.5 -29s-17.167 -12 -28.5 -12s-20.833 4 -28.5 12s-11.5 17.667 -11.5 29s3.83301 21 11.5 29
s17.167 12 28.5 12zM267 501c0 10 2.99902 18.667 8.99902 26s13.667 12 23 14c2.66699 0.666992 5.33398 1 8.00098 1c11.333 0 20.833 -4 28.5 -12s11.5 -17.667 11.5 -29s-3.83301 -21 -11.5 -29s-17.167 -12 -28.5 -12s-20.833 4 -28.5 12s-11.5 17.667 -11.5 29z" />
    <glyph glyph-name="igrave" unicode="&#xec;" horiz-adv-x="121" 
d="M54 424c4 0 7.33301 -1.33301 10 -4s4 -6 4 -10v-395c0 -4 -1.33301 -7.33301 -4 -10s-6 -4 -10 -4s-7.33301 1.33301 -10 4s-4 6 -4 10v395c0 7.33301 3.33301 12 10 14h4zM16 579c4 0 7.33398 -1.33398 10.001 -4.00098l71 -71l19 -20l-7 -8l-1 -1
c-0.666992 -1.33301 -1.66699 -2.66602 -3 -3.99902h-2l-1 -1c-1.33301 -0.666992 -3 -1 -5 -1h-2c-0.666992 0 -1.33398 0.333008 -2.00098 1h-2l-2 2h-1c0 0.666992 -0.333008 1 -1 1l-1 1l-2 2l-77 79c-4 2.66699 -6 6 -6 10c0 7.33301 3.66699 12 11 14h4z" />
    <glyph glyph-name="iacute" unicode="&#xed;" horiz-adv-x="125" 
d="M54 424c4 0 7.33301 -1.33301 10 -4s4 -6 4 -10v-395c0 -4 -1.33301 -7.33301 -4 -10s-6 -4 -10 -4s-7.33301 1.33301 -10 4s-4 6 -4 10v395c0 7.33301 3.33301 12 10 14h4zM4 481c0 4 1.33398 7.33398 4.00098 10.001l70 72l20 19l8 -7l1 -1
c1.33301 -0.666992 2.66602 -1.66699 3.99902 -3v-2l1 -1c0.666992 -1.33301 1 -3 1 -5v-2c0 -0.666992 -0.333008 -1.33398 -1 -2.00098v-2l-2 -2v-1c-0.666992 0 -1 -0.333008 -1 -1l-1 -1l-2 -2l-78 -78c-2.66699 -4 -6 -6 -10 -6c-7.33301 0 -12 3.66699 -14 11v4z" />
    <glyph glyph-name="icircumflex" unicode="&#xee;" horiz-adv-x="210" 
d="M100 424c4 0 7.33301 -1.33301 10 -4s4 -6 4 -10v-395c0 -4 -1.33301 -7.33301 -4 -10s-6 -4 -10 -4s-7.33301 1.33301 -10 4s-4 6 -4 10v395c0 7.33301 3.33301 12 10 14h4zM18 432c-7.33301 2 -11 6.66602 -11 13.999c0 4 2 7.33301 6 10l77 79l2 2l1 1
c0.666992 0 1 0.333008 1 1h1l2 2h2c0.666992 0.666992 1.33398 1 2.00098 1h2c2 0 3.66699 -0.333008 5 -1l1 -1h2c1.33301 -1.33301 2.33301 -2.66602 3 -3.99902l1 -1l1 -1l78 -78c3.33301 -2.66699 5 -6 5 -10s-1.5 -7.33301 -4.5 -10s-6.16699 -4 -9.5 -4h-3
c-2.66699 0.666992 -5.33398 2 -8.00098 4l-71 71l-71 -71c-2.66699 -2.66699 -6 -4 -10 -4h-4z" />
    <glyph glyph-name="idieresis" unicode="&#xef;" horiz-adv-x="257" 
d="M129 420c4 0 7.33301 -1.33301 10 -4s4 -6 4 -10v-395c0 -4 -1.33301 -7.33301 -4 -10s-6 -4 -10 -4s-7.33301 1.33301 -10 4s-4 6 -4 10v395c0 7.33301 3.33301 12 10 14h4zM8 494c0 11.333 3.83301 21 11.5 29s17.167 12 28.5 12s20.833 -4 28.5 -12
s11.5 -17.667 11.5 -29s-3.83301 -21 -11.5 -29s-17.167 -12 -28.5 -12s-20.833 4 -28.5 12s-11.5 17.667 -11.5 29zM250 494c0 -11.333 -3.83398 -21 -11.501 -29s-17.167 -12 -28.5 -12s-20.833 4 -28.5 12s-11.5 17.667 -11.5 29c0 10 3 18.667 9 26s13.667 12 23 14
c2.66699 0.666992 5.33398 1 8.00098 1c11.333 0 20.833 -4 28.5 -12s11.5 -17.667 11.5 -29z" />
    <glyph glyph-name="ntilde" unicode="&#xf1;" horiz-adv-x="396" 
d="M43 412c4 0 7.33789 -1.33203 10.0049 -3.99902s4 -6 4 -10v-71c15.333 25.333 35.166 45.5 59.499 60.5s51.166 22.833 80.499 23.5c44 1.33301 82.667 -14.167 116 -46.5s52.333 -72.5 57 -120.5v-1c0 -0.666992 0.166992 -1.5 0.5 -2.5s0.5 -1.83301 0.5 -2.5
c0 -2 -0.333008 -3.66699 -1 -5v-229c0 -4 -1.33301 -7.33301 -4 -10s-6 -4 -10 -4s-7.33301 1.33301 -10 4s-4 6 -4 10v240c-4.66699 40.667 -20.834 74.334 -48.501 101.001s-59.834 39.334 -96.501 38.001c-36.667 -0.666992 -68.334 -14.834 -95.001 -42.501
s-41.667 -61.834 -45 -102.501v-234c0 -4 -1.33301 -7.33301 -4 -10s-5.66699 -4 -9 -4c-4 0 -7.5 1.33301 -10.5 4s-4.5 6 -4.5 10v395c0 7.33301 3.66699 11.666 11 12.999h3zM161.005 530.001c8.66699 0 16.665 -2.00098 23.998 -6.00098
c5.33301 -2.66699 10 -6.33398 14 -11.001c0.666992 -0.666992 2 -2.66699 4 -6c0.666992 -1.33301 1.66699 -2.66602 3 -3.99902v-2c0.666992 -1.33301 1 -2.33301 1 -3v-3c0.666992 0 1 -0.333008 1 -1v-4h1c0.666992 -0.666992 2.33398 -1.66699 5.00098 -3
c5.33301 -2.66699 11.333 -3.33398 18 -2.00098s12.167 4.5 16.5 9.5s6.5 9.5 6.5 13.5c-0.666992 0.666992 -1 1.5 -1 2.5s0.333008 1.83301 1 2.5c-0.666992 0 -1 0.166992 -1 0.5s0.333008 0.833008 1 1.5c1.33301 5.33301 5 8.33301 11 9
c0.666992 0.666992 1.66699 1 3 1c2 0 4 -0.666992 6 -2c2.66699 -1.33301 4.66699 -3.33301 6 -6l1 -1v-1c0 -0.666992 0.333008 -1 1 -1v-2c0.666992 -6 0 -12 -2 -18c-1.33301 -4.66699 -2.66602 -7.66699 -3.99902 -9c-8 -14 -21 -23 -39 -27
c-13.333 -3.33301 -25.666 -2 -36.999 4c-8.66699 4.66699 -14.667 11.334 -18 20.001v1l-1 1c-0.666992 0.666992 -1 1.33398 -1 2.00098c-0.666992 1.33301 -1 3 -1 5v1c0 1.33301 -0.333008 2.33301 -1 3h-1c-0.666992 1.33301 -2.33398 2.66602 -5.00098 3.99902
c-6 2.66699 -12 3.33398 -18 2.00098c-7.33301 -2 -12.833 -5.33301 -16.5 -10s-5.16699 -9 -4.5 -13v-6c-0.666992 -0.666992 -1 -1.33398 -1 -2.00098v-1l-2 -2c0 -0.666992 -0.333008 -1 -1 -1c-1.33301 -2 -2.66602 -3.33301 -3.99902 -4c-2 -0.666992 -4 -1 -6 -1
c-8 0 -12.667 4 -14 12c-2.66699 12 0.166016 23.333 8.49902 34s19.5 17.667 33.5 21c4 0.666992 7 1.33398 9 2.00098h4z" />
    <glyph glyph-name="ograve" unicode="&#xf2;" horiz-adv-x="458" 
d="M442 204c0 -58.667 -20.334 -108.5 -61.001 -149.5s-89.667 -61.5 -147 -61.5c-58 0 -107.5 20.5 -148.5 61.5s-61.5 90.833 -61.5 149.5c0 58 20.5 107.667 61.5 149s90.333 62 148 62s106.834 -20.667 147.501 -62s61 -91 61 -149zM103.999 333
c-35.333 -35.333 -53 -78.334 -53 -129.001s17.833 -93.834 53.5 -129.501s78.667 -53.5 129 -53.5s93.166 17.833 128.499 53.5s53 78.834 53 129.501s-17.667 93.834 -53 129.501s-78.166 53.5 -128.499 53.5s-93.5 -18 -129.5 -54zM187.999 582.999
c4 0 7.33398 -1.33398 10.001 -4.00098l71 -71l19 -20l-7 -8l-1 -1c-0.666992 -1.33301 -1.66699 -2.66602 -3 -3.99902h-2l-1 -1c-1.33301 -0.666992 -3 -1 -5 -1h-2c-0.666992 0 -1.33398 0.333008 -2.00098 1h-2l-2 2h-1c0 0.666992 -0.333008 1 -1 1l-1 1l-2 2l-77 79
c-4 2.66699 -6 6 -6 10c0 7.33301 3.66699 12 11 14h4z" />
    <glyph glyph-name="glyph_76" unicode="&#xf3;" horiz-adv-x="458" 
d="M344 482c2 0 3.66699 -0.332031 5 -0.999023c2 -0.666992 4 -1.66699 6 -3c2 -2.66699 3 -5.66699 3 -9c0 -4.66699 -1.66699 -8.33398 -5 -11.001l-53 -55c40 -15.333 72.5 -40.833 97.5 -76.5s37.5 -75.5 37.5 -119.5c0 -58.667 -20.333 -108.5 -61 -149.5
s-90 -61.5 -148 -61.5s-107.333 20.5 -148 61.5s-61 90.833 -61 149.5c0 58 20.333 107.5 61 148.5s90 61.5 148 61.5c14 0 28 -1.33301 42 -4l65 65c2 2 4.33301 3.33301 7 4h4zM189 386.001c-6.66699 -1.33301 -12.333 -2.66895 -17 -4.00195
c-34.667 -11.333 -63.5 -31.166 -86.5 -59.499s-36.167 -60.833 -39.5 -97.5c-0.666992 -6 -1 -12 -1 -18c0 -38 10.167 -72.167 30.5 -102.5s46.833 -52.5 79.5 -66.5c5.33301 -2.66699 11 -4.66699 17 -6c16.667 -5.33301 34.667 -8 54 -8c6.66699 0 12.667 0.333008 18 1
c46 4.66699 84.667 24.334 116 59.001s47 75.667 47 123c0 57.333 -21.667 104 -65 140c-20.667 16.667 -42 28.334 -64 35.001l-42 -42c-1.33301 -1.33301 -3 -2.33301 -5 -3c0 -0.666992 -0.333008 -1 -1 -1c-1.33301 -0.666992 -2.83301 -1 -4.5 -1
s-3.16699 0.333008 -4.5 1c-0.666992 0 -1.33398 0.333008 -2.00098 1c-5.33301 2.66699 -8 7 -8 13c0 3.33301 1.66699 6.66602 5 9.99902l28 29h-18c-13.333 0 -25.666 -1 -36.999 -3z" />
    <glyph glyph-name="ocircumflex" unicode="&#xf4;" horiz-adv-x="454" 
d="M441 204c0 -58.667 -20.334 -108.5 -61.001 -149.5s-89.667 -61.5 -147 -61.5c-58 0 -107.5 20.5 -148.5 61.5s-61.5 90.833 -61.5 149.5c0 58 20.5 107.667 61.5 149s90.333 62 148 62s106.834 -20.667 147.501 -62s61 -91 61 -149zM102.999 333
c-35.333 -35.333 -53 -78.334 -53 -129.001s17.833 -93.834 53.5 -129.501s78.667 -53.5 129 -53.5s93.166 17.833 128.499 53.5s53 78.834 53 129.501s-17.667 93.834 -53 129.501s-78.166 53.5 -128.499 53.5s-93.5 -18 -129.5 -54zM151.999 431.999
c-7.33301 2 -11 6.66602 -11 13.999c0 4 2 7.33301 6 10l77 79l2 2l1 1c0.666992 0 1 0.333008 1 1h1l2 2h2c0.666992 0.666992 1.33398 1 2.00098 1h2c2 0 3.66699 -0.333008 5 -1l1 -1h2c1.33301 -1.33301 2.33301 -2.66602 3 -3.99902l1 -1l1 -1l78 -78
c3.33301 -2.66699 5 -6 5 -10s-1.5 -7.33301 -4.5 -10s-6.16699 -4 -9.5 -4h-3c-2.66699 0.666992 -5.33398 2 -8.00098 4l-71 71l-71 -71c-2.66699 -2.66699 -6 -4 -10 -4h-4z" />
    <glyph glyph-name="otilde" unicode="&#xf5;" horiz-adv-x="459" 
d="M441 204c0 -58.667 -20.334 -108.5 -61.001 -149.5s-89.667 -61.5 -147 -61.5c-58 0 -107.5 20.5 -148.5 61.5s-61.5 90.833 -61.5 149.5c0 58 20.5 107.667 61.5 149s90.333 62 148 62s106.834 -20.667 147.501 -62s61 -91 61 -149zM102.999 333
c-35.333 -35.333 -53 -78.334 -53 -129.001s17.833 -93.834 53.5 -129.501s78.667 -53.5 129 -53.5s93.166 17.833 128.499 53.5s53 78.834 53 129.501s-17.667 93.834 -53 129.501s-78.166 53.5 -128.499 53.5s-93.5 -18 -129.5 -54zM191.999 562.999
c8.66699 0 16.665 -2.00098 23.998 -6.00098c5.33301 -2.66699 10 -6.33398 14 -11.001c0.666992 -0.666992 2 -2.66699 4 -6c0.666992 -1.33301 1.66699 -2.66602 3 -3.99902v-2c0.666992 -1.33301 1 -2.33301 1 -3v-3c0.666992 0 1 -0.333008 1 -1v-4h1
c0.666992 -0.666992 2.33398 -1.66699 5.00098 -3c5.33301 -2.66699 11.333 -3.33398 18 -2.00098s12.167 4.5 16.5 9.5s6.5 9.5 6.5 13.5c-0.666992 0.666992 -1 1.5 -1 2.5s0.333008 1.83301 1 2.5c-0.666992 0 -1 0.166992 -1 0.5s0.333008 0.833008 1 1.5
c1.33301 5.33301 5 8.33301 11 9c0.666992 0.666992 1.66699 1 3 1c2 0 4 -0.666992 6 -2c2.66699 -1.33301 4.66699 -3.33301 6 -6l1 -1v-1c0 -0.666992 0.333008 -1 1 -1v-2c0.666992 -6 0 -12 -2 -18c-1.33301 -4.66699 -2.66602 -7.66699 -3.99902 -9
c-8 -14 -21 -23 -39 -27c-13.333 -3.33301 -25.666 -2 -36.999 4c-8.66699 4.66699 -14.667 11.334 -18 20.001v1l-1 1c-0.666992 0.666992 -1 1.33398 -1 2.00098c-0.666992 1.33301 -1 3 -1 5v1c0 1.33301 -0.333008 2.33301 -1 3h-1
c-0.666992 1.33301 -2.33398 2.66602 -5.00098 3.99902c-6 2.66699 -12 3.33398 -18 2.00098c-7.33301 -2 -12.833 -5.33301 -16.5 -10s-5.16699 -9 -4.5 -13v-6c-0.666992 -0.666992 -1 -1.33398 -1 -2.00098v-1l-2 -2c0 -0.666992 -0.333008 -1 -1 -1
c-1.33301 -2 -2.66602 -3.33301 -3.99902 -4c-2 -0.666992 -4 -1 -6 -1c-8 0 -12.667 4 -14 12c-2.66699 12 0.166016 23.333 8.49902 34s19.5 17.667 33.5 21c4 0.666992 7 1.33398 9 2.00098h4z" />
    <glyph glyph-name="odieresis" unicode="&#xf6;" horiz-adv-x="465" 
d="M441 204c0 -58.667 -20.334 -108.5 -61.001 -149.5s-89.667 -61.5 -147 -61.5c-58 0 -107.5 20.5 -148.5 61.5s-61.5 90.833 -61.5 149.5c0 58 20.5 107.667 61.5 149s90.333 62 148 62s106.834 -20.667 147.501 -62s61 -91 61 -149zM102.999 333
c-35.333 -35.333 -53 -78.334 -53 -129.001s17.833 -93.834 53.5 -129.501s78.667 -53.5 129 -53.5s93.166 17.833 128.499 53.5s53 78.834 53 129.501s-17.667 93.834 -53 129.501s-78.166 53.5 -128.499 53.5s-93.5 -18 -129.5 -54zM163.999 569.999
c11.333 0 20.833 -4 28.5 -12s11.5 -17.667 11.5 -29s-3.83301 -21 -11.5 -29s-17.167 -12 -28.5 -12s-20.833 4 -28.5 12s-11.5 17.667 -11.5 29s3.83301 21 11.5 29s17.167 12 28.5 12zM285.999 528.999c0 10 2.99902 18.667 8.99902 26s13.667 12 23 14
c2.66699 0.666992 5.33398 1 8.00098 1c11.333 0 20.833 -4 28.5 -12s11.5 -17.667 11.5 -29s-3.83301 -21 -11.5 -29s-17.167 -12 -28.5 -12s-20.833 4 -28.5 12s-11.5 17.667 -11.5 29z" />
    <glyph glyph-name="glyph_123" unicode="&#xf7;" horiz-adv-x="601" 
d="M307 567c13.333 0 24.666 -4.66699 33.999 -14s14 -20.666 14 -33.999s-4.66699 -24.666 -14 -33.999s-20.666 -14 -33.999 -14s-24.666 4.66699 -33.999 14s-14 20.666 -14 33.999s4.66699 24.666 14 33.999s20.666 14 33.999 14zM518 408
c3.33301 0 6.5 -1.33301 9.5 -4s4.5 -6 4.5 -10s-1.5 -7.33301 -4.5 -10s-6.16699 -4 -9.5 -4h-422c-3.33301 0 -6.5 1.33301 -9.5 4s-4.5 6 -4.5 10c0 3.33301 1.33301 6.5 4 9.5s6 4.5 10 4.5h422zM307 219c-13.333 0 -24.666 4.66699 -33.999 14s-14 20.666 -14 33.999
s4.66699 24.666 14 33.999s20.666 14 33.999 14s24.666 -4.66699 33.999 -14s14 -20.666 14 -33.999s-4.66699 -24.666 -14 -33.999s-20.666 -14 -33.999 -14z" />
    <glyph glyph-name="oslash" unicode="&#xf8;" horiz-adv-x="430" 
d="M410 419c2 0 3.83105 -0.500977 5.49805 -1.50098s3.16699 -2.16699 4.5 -3.5c2.66699 -2.66699 4 -6 4 -10s-1.66699 -7.33301 -5 -10l-49 -50c30.667 -33.333 48 -72.333 52 -117c0.666992 -6.66699 1 -13.667 1 -21c0 -34.667 -8 -67 -24 -97s-37.667 -54.333 -65 -73
c-28 -19.333 -59 -30.666 -93 -33.999c-6.66699 -0.666992 -13.667 -1 -21 -1c-51.333 0 -96.666 18 -135.999 54l-57 -57c-1.33301 -1.33301 -2.66602 -2.33301 -3.99902 -3c-2 -2 -4.33301 -3 -7 -3c-4 0 -7.5 1.5 -10.5 4.5s-4.5 6.5 -4.5 10.5
c0 4.66699 2.33301 8.66699 7 12l56 56c-31.333 38 -47 81.667 -47 131c0 56 19.833 104.167 59.5 144.5s87.5 60.5 143.5 60.5c42 0 80 -11.667 114 -35c0.666992 -0.666992 5.66699 -5 15 -13l50 51c1.33301 2 3.33301 3.33301 6 4h2c0.666992 0.666992 1.66699 1 3 1z
M45.998 223.999c-0.666992 -6 -1 -12 -1 -18c0 -41.333 13 -78.333 39 -111l46 47l200 202c-32 25.333 -68.667 38 -110 38c-44.667 0 -83.667 -15.167 -117 -45.5s-52.333 -67.833 -57 -112.5zM102.998 74.999c33.333 -30.667 72.333 -45.999 117 -45.999
c48.667 0 90 17.167 124 51.5s51 76.166 51 125.499c0 44.667 -15 84 -45 118z" />
    <glyph glyph-name="ugrave" unicode="&#xf9;" horiz-adv-x="396" 
d="M53 402l-0.00195312 -234.003c3.33301 -42.667 19 -78.167 47 -106.5s61 -42.166 99 -41.499c36.667 1.33301 68.334 16 95.001 44s41.667 62 45 102v17c-0.666992 0.666992 -1 1.33398 -1 2.00098s0.333008 1.33398 1 2.00098v214c0 7.33301 3.33301 12 10 14h4
c3.33301 0 6.5 -1.33301 9.5 -4s4.5 -6 4.5 -10v-395c0 -4 -1.5 -7.33301 -4.5 -10s-6.16699 -4 -9.5 -4c-4 0 -7.33301 1.33301 -10 4s-4 6 -4 10v71c-15.333 -25.333 -35.166 -45.5 -59.499 -60.5s-50.833 -22.833 -79.5 -23.5c-44.667 -0.666992 -83.667 15 -117 47
s-52.333 71.667 -57 119v2l-0.5 0.5l-0.5 0.5v239c0 7.33301 3.66699 12 11 14c1.33301 0.666992 2.33301 1 3 1c4 0 7.33301 -1.33301 10 -4s4 -6 4 -10zM163.998 582.997c4 0 7.33398 -1.33398 10.001 -4.00098l71 -71l19 -20l-7 -8l-1 -1
c-0.666992 -1.33301 -1.66699 -2.66602 -3 -3.99902h-2l-1 -1c-1.33301 -0.666992 -3 -1 -5 -1h-2c-0.666992 0 -1.33398 0.333008 -2.00098 1h-2l-2 2h-1c0 0.666992 -0.333008 1 -1 1l-1 1l-2 2l-77 79c-4 2.66699 -6 6 -6 10c0 7.33301 3.66699 12 11 14h4z" />
    <glyph glyph-name="uacute" unicode="&#xfa;" 
d="M53 402l-0.00195312 -234.003c3.33301 -42.667 19 -78.167 47 -106.5s61 -42.166 99 -41.499c36.667 1.33301 68.334 16 95.001 44s41.667 62 45 102v17c-0.666992 0.666992 -1 1.33398 -1 2.00098s0.333008 1.33398 1 2.00098v214c0 7.33301 3.33301 12 10 14h4
c3.33301 0 6.5 -1.33301 9.5 -4s4.5 -6 4.5 -10v-395c0 -4 -1.5 -7.33301 -4.5 -10s-6.16699 -4 -9.5 -4c-4 0 -7.33301 1.33301 -10 4s-4 6 -4 10v71c-15.333 -25.333 -35.166 -45.5 -59.499 -60.5s-50.833 -22.833 -79.5 -23.5c-44.667 -0.666992 -83.667 15 -117 47
s-52.333 71.667 -57 119v2l-0.5 0.5l-0.5 0.5v239c0 7.33301 3.66699 12 11 14c1.33301 0.666992 2.33301 1 3 1c4 0 7.33301 -1.33301 10 -4s4 -6 4 -10zM139.998 483.997c0 4 1.33398 7.33398 4.00098 10.001l72 70l20 19l8 -7l1 -1
c1.33301 -0.666992 2.66602 -1.66699 3.99902 -3v-2l1 -1c0.666992 -1.33301 1 -3 1 -5v-2c0 -0.666992 -0.333008 -1.33398 -1 -2.00098v-2l-2 -2v-1c-0.666992 0 -1 -0.333008 -1 -1l-1 -1l-2 -2l-80 -76c-2.66699 -4 -6 -6 -10 -6c-7.33301 0 -12 3.66699 -14 11v4z" />
    <glyph glyph-name="ucircumflex" unicode="&#xfb;" 
d="M53 402l-0.00195312 -234.003c3.33301 -42.667 19 -78.167 47 -106.5s61 -42.166 99 -41.499c36.667 1.33301 68.334 16 95.001 44s41.667 62 45 102v17c-0.666992 0.666992 -1 1.33398 -1 2.00098s0.333008 1.33398 1 2.00098v214c0 7.33301 3.33301 12 10 14h4
c3.33301 0 6.5 -1.33301 9.5 -4s4.5 -6 4.5 -10v-395c0 -4 -1.5 -7.33301 -4.5 -10s-6.16699 -4 -9.5 -4c-4 0 -7.33301 1.33301 -10 4s-4 6 -4 10v71c-15.333 -25.333 -35.166 -45.5 -59.499 -60.5s-50.833 -22.833 -79.5 -23.5c-44.667 -0.666992 -83.667 15 -117 47
s-52.333 71.667 -57 119v2l-0.5 0.5l-0.5 0.5v239c0 7.33301 3.66699 12 11 14c1.33301 0.666992 2.33301 1 3 1c4 0 7.33301 -1.33301 10 -4s4 -6 4 -10zM111.998 456.997c-7.33301 2 -11 6.66602 -11 13.999c0 4 2 7.33301 6 10l77 79l2 2l1 1c0.666992 0 1 0.333008 1 1
h1l2 2h2c0.666992 0.666992 1.33398 1 2.00098 1h2c2 0 3.66699 -0.333008 5 -1l1 -1h2c1.33301 -1.33301 2.33301 -2.66602 3 -3.99902l1 -1l1 -1l78 -78c3.33301 -2.66699 5 -6 5 -10s-1.5 -7.33301 -4.5 -10s-6.16699 -4 -9.5 -4h-3
c-2.66699 0.666992 -5.33398 2 -8.00098 4l-71 71l-71 -71c-2.66699 -2.66699 -6 -4 -10 -4h-4z" />
    <glyph glyph-name="udieresis" unicode="&#xfc;" horiz-adv-x="398" 
d="M110 551c11.333 0 20.833 -4 28.5 -12s11.5 -17.667 11.5 -29s-3.83301 -21 -11.5 -29s-17.167 -12 -28.5 -12s-20.833 4 -28.5 12s-11.5 17.667 -11.5 29s3.83301 21 11.5 29s17.167 12 28.5 12zM232 510c0 10 2.99902 18.667 8.99902 26s13.667 12 23 14
c2.66699 0.666992 5.33398 1 8.00098 1c11.333 0 20.833 -4 28.5 -12s11.5 -17.667 11.5 -29s-3.83301 -21 -11.5 -29s-17.167 -12 -28.5 -12s-20.833 4 -28.5 12s-11.5 17.667 -11.5 29zM52.999 402l-0.00195312 -234.003c3.33301 -42.667 19 -78.167 47 -106.5
s61 -42.166 99 -41.499c36.667 1.33301 68.334 16 95.001 44s41.667 62 45 102v17c-0.666992 0.666992 -1 1.33398 -1 2.00098s0.333008 1.33398 1 2.00098v214c0 7.33301 3.33301 12 10 14h4c3.33301 0 6.5 -1.33301 9.5 -4s4.5 -6 4.5 -10v-395
c0 -4 -1.5 -7.33301 -4.5 -10s-6.16699 -4 -9.5 -4c-4 0 -7.33301 1.33301 -10 4s-4 6 -4 10v71c-15.333 -25.333 -35.166 -45.5 -59.499 -60.5s-50.833 -22.833 -79.5 -23.5c-44.667 -0.666992 -83.667 15 -117 47s-52.333 71.667 -57 119v2l-0.5 0.5l-0.5 0.5v239
c0 7.33301 3.66699 12 11 14c1.33301 0.666992 2.33301 1 3 1c4 0 7.33301 -1.33301 10 -4s4 -6 4 -10z" />
    <glyph glyph-name="yacute" unicode="&#xfd;" horiz-adv-x="391" 
d="M37 407c6.66699 0 10.999 -2.66797 12.999 -8.00098l141 -364l146 364c2 4.66699 5.66699 7.33398 11 8.00098h2c4 0 7.33301 -1.33301 10 -4s4 -6 4 -10c0 -1.33301 -0.333008 -3 -1 -5l-274 -680c-1.33301 -8 -5.66602 -12 -12.999 -12c-4 0 -7.33301 1.5 -10 4.5
s-4 6.5 -4 10.5c0 2.66699 0.666992 5 2 7l113 280v1l-152 390c-0.666992 1.33301 -1 3 -1 5c0 6.66699 3 11 9 13h4zM152.999 566.999c4 0 7.33398 -1.33398 10.001 -4.00098l71 -71l19 -20l-7 -8l-1 -1c-0.666992 -1.33301 -1.66699 -2.66602 -3 -3.99902h-2l-1 -1
c-1.33301 -0.666992 -3 -1 -5 -1h-2c-0.666992 0 -1.33398 0.333008 -2.00098 1h-2l-2 2h-1c0 0.666992 -0.333008 1 -1 1l-1 1l-2 2l-77 79c-4 2.66699 -6 6 -6 10c0 7.33301 3.66699 12 11 14h4z" />
    <glyph glyph-name="ydieresis" unicode="&#xff;" horiz-adv-x="380" 
d="M37 407c6.66699 0 10.999 -2.66797 12.999 -8.00098l141 -364l146 364c2 4.66699 5.66699 7.33398 11 8.00098h2c4 0 7.33301 -1.33301 10 -4s4 -6 4 -10c0 -1.33301 -0.333008 -3 -1 -5l-274 -680c-1.33301 -8 -5.66602 -12 -12.999 -12c-4 0 -7.33301 1.5 -10 4.5
s-4 6.5 -4 10.5c0 2.66699 0.666992 5 2 7l113 280v1l-152 390c-0.666992 1.33301 -1 3 -1 5c0 6.66699 3 11 9 13h4zM109.999 550.999c11.333 0 20.833 -4 28.5 -12s11.5 -17.667 11.5 -29s-3.83301 -21 -11.5 -29s-17.167 -12 -28.5 -12s-20.833 4 -28.5 12
s-11.5 17.667 -11.5 29s3.83301 21 11.5 29s17.167 12 28.5 12zM231.999 509.999c0 10 2.99902 18.667 8.99902 26s13.667 12 23 14c2.66699 0.666992 5.33398 1 8.00098 1c11.333 0 20.833 -4 28.5 -12s11.5 -17.667 11.5 -29s-3.83301 -21 -11.5 -29
s-17.167 -12 -28.5 -12s-20.833 4 -28.5 12s-11.5 17.667 -11.5 29z" />
    <glyph glyph-name="Amacron" unicode="&#x100;" horiz-adv-x="618" 
d="M312 836l0.999023 -1c0.666992 0 1.33398 -0.333008 2.00098 -1h1v-1h1v-1h1l2 -4c0 -0.666992 0.166992 -1.16699 0.5 -1.5s0.5 -0.833008 0.5 -1.5v-2l280 -808v-5c0 -4 -1.33301 -7.33301 -4 -10s-6 -4 -10 -4c-6.66699 0 -11.334 3.33301 -14.001 10l-97 282h-338
l-97 -282c-2.66699 -6.66699 -7.33398 -10 -14.001 -10c-4 0 -7.33301 1.33301 -10 4s-4 6 -4 10v5l280 809v1c0 0.666992 0.166992 1.16699 0.5 1.5s0.5 0.833008 0.5 1.5v2c0.666992 0 1 0.333008 1 1v1c0.666992 0 1.33398 0.333008 2.00098 1s1.33398 1 2.00098 1
c0.666992 1.33301 1.66699 2 3 2h10zM148.999 321h316l-158 457zM391.999 916c2 0 3.5 -1.33301 4.5 -4s1.5 -6 1.5 -10s-0.5 -7.33301 -1.5 -10s-2.5 -4 -4.5 -4h-166c-2 0 -3.5 1.33301 -4.5 4s-1.5 6 -1.5 10c0 8 1.66699 12.667 5 14h167z" />
    <glyph glyph-name="amacron" unicode="&#x101;" horiz-adv-x="436" 
d="M81 178c-24 -28.667 -32.665 -57.001 -25.998 -85.001c1.33301 -6.66699 3.66602 -13 6.99902 -19c10 -19.333 27.333 -33.666 52 -42.999c34 -14 72.5 -15.333 115.5 -4s76.833 31.666 101.5 60.999c0.666992 1.33301 1.66699 2.33301 3 3v121
c-8.66699 8 -20.667 15.333 -36 22c-17.333 7.33301 -36 11 -56 11c-29.333 1.33301 -58.833 -4.16699 -88.5 -16.5s-53.834 -29.166 -72.501 -50.499zM209.002 421.999c23.333 -1.33301 44.3301 -5.66992 62.9971 -13.0029c24.667 -8.66699 44.834 -21.167 60.501 -37.5
s25.167 -34.166 28.5 -53.499v-2c0.666992 -0.666992 1 -2 1 -4v-260c0.666992 -8 4.33398 -14 11.001 -18c8 -6.66699 18.333 -10 31 -10h1c3.33301 0 6.5 -1.33301 9.5 -4s4.5 -5.66699 4.5 -9c0 -4 -1.5 -7.33301 -4.5 -10s-6.16699 -4 -9.5 -4h-1
c-18.667 0 -34.667 5 -48 15c-12 9.33301 -19 21 -21 35v3h-1v1l-2.5 -2.5c-1 -1 -1.83301 -1.5 -2.5 -1.5l-28 -20c-20.667 -12.667 -42 -21.667 -64 -27c-9.33301 -2 -20.666 -4 -33.999 -6c-8 -0.666992 -15.667 -1 -23 -1c-27.333 0 -53 4.66699 -77 14
c-41.333 16 -66.333 42.667 -75 80c-2 8.66699 -3 17 -3 25c0 28.667 11.667 56.334 35 83.001c21.333 25.333 48.666 44.833 81.999 58.5s67 19.834 101 18.501c24 -0.666992 45.667 -5 65 -13c8 -3.33301 16.333 -7.33301 25 -12h1v58c0 16 -6.33301 31.167 -19 45.5
s-30 25.5 -52 33.5c-35.333 12.667 -72 15 -110 7s-66 -23 -84 -45c-2.66699 -3.33301 -6.33398 -5 -11.001 -5c-4 0 -7.33301 1.16699 -10 3.5s-4 5.5 -4 9.5c0 3.33301 1 6.33301 3 9c14.667 18.667 34.334 33.167 59.001 43.5s51.334 15.833 80.001 16.5
c5.33301 0 13 -0.333008 23 -1zM285.999 510.995c2 0 3.5 -1.33301 4.5 -4s1.5 -6 1.5 -10s-0.5 -7.33301 -1.5 -10s-2.5 -4 -4.5 -4h-166c-2 0 -3.5 1.33301 -4.5 4s-1.5 6 -1.5 10c0 8 1.66699 12.667 5 14h167z" />
    <glyph glyph-name="Abreve" unicode="&#x102;" horiz-adv-x="625" 
d="M312 836l0.999023 -1c0.666992 0 1.33398 -0.333008 2.00098 -1h1v-1h1v-1h1l2 -4c0 -0.666992 0.166992 -1.16699 0.5 -1.5s0.5 -0.833008 0.5 -1.5v-2l280 -808v-5c0 -4 -1.33301 -7.33301 -4 -10s-6 -4 -10 -4c-6.66699 0 -11.334 3.33301 -14.001 10l-97 282h-338
l-97 -282c-2.66699 -6.66699 -7.33398 -10 -14.001 -10c-4 0 -7.33301 1.33301 -10 4s-4 6 -4 10v5l280 809v1c0 0.666992 0.166992 1.16699 0.5 1.5s0.5 0.833008 0.5 1.5v2c0.666992 0 1 0.333008 1 1v1c0.666992 0 1.33398 0.333008 2.00098 1s1.33398 1 2.00098 1
c0.666992 1.33301 1.66699 2 3 2h10zM148.999 321h316l-158 457zM363.999 961c2 0 3.66699 -0.332031 5 -0.999023s2.66602 -1.66699 3.99902 -3l1 -1c0 -0.666992 0.333008 -1 1 -1c0.666992 -0.666992 1 -1.33398 1 -2.00098l1 -1v-2
c0.666992 -0.666992 1 -1.33398 1 -2.00098v-2c0 -2 -0.666992 -4 -2 -6c-4.66699 -14 -11.667 -25.667 -21 -35c-4.66699 -4.66699 -8 -7.66699 -10 -9c-2.66699 -2.66699 -6 -5 -10 -7c-6.66699 -4 -14 -6.33301 -22 -7c-3.33301 -0.666992 -7 -1 -11 -1
c-16 0.666992 -30.5 6.83398 -43.5 18.501s-21.167 26.834 -24.5 45.501v3c0 4.66699 2.33301 8.33398 7 11.001v1c2.66699 1.33301 5 2 7 2h1c1.33301 0 3 -0.666992 5 -2c1.33301 -0.666992 2.33301 -1.33398 3 -2.00098s1.33398 -1 2.00098 -1c2 -2 3 -4.33301 3 -7
c4.66699 -26.667 18.334 -40.334 41.001 -41.001c4 0 8.66699 1 14 3c12.667 3.33301 22 12.333 28 27c2 2.66699 3.66699 6 5 10c0 4 1.33301 7 4 9c1.33301 0.666992 2.33301 1 3 1l1 1c1.33301 0 2.66602 0.333008 3.99902 1h2z" />
    <glyph glyph-name="abreve" unicode="&#x103;" horiz-adv-x="443" 
d="M81 178c-24 -28.667 -32.665 -57.001 -25.998 -85.001c1.33301 -6.66699 3.66602 -13 6.99902 -19c10 -19.333 27.333 -33.666 52 -42.999c34 -14 72.5 -15.333 115.5 -4s76.833 31.666 101.5 60.999c0.666992 1.33301 1.66699 2.33301 3 3v121
c-8.66699 8 -20.667 15.333 -36 22c-17.333 7.33301 -36 11 -56 11c-29.333 1.33301 -58.833 -4.16699 -88.5 -16.5s-53.834 -29.166 -72.501 -50.499zM209.002 421.999c23.333 -1.33301 44.3301 -5.66992 62.9971 -13.0029c24.667 -8.66699 44.834 -21.167 60.501 -37.5
s25.167 -34.166 28.5 -53.499v-2c0.666992 -0.666992 1 -2 1 -4v-260c0.666992 -8 4.33398 -14 11.001 -18c8 -6.66699 18.333 -10 31 -10h1c3.33301 0 6.5 -1.33301 9.5 -4s4.5 -5.66699 4.5 -9c0 -4 -1.5 -7.33301 -4.5 -10s-6.16699 -4 -9.5 -4h-1
c-18.667 0 -34.667 5 -48 15c-12 9.33301 -19 21 -21 35v3h-1v1l-2.5 -2.5c-1 -1 -1.83301 -1.5 -2.5 -1.5l-28 -20c-20.667 -12.667 -42 -21.667 -64 -27c-9.33301 -2 -20.666 -4 -33.999 -6c-8 -0.666992 -15.667 -1 -23 -1c-27.333 0 -53 4.66699 -77 14
c-41.333 16 -66.333 42.667 -75 80c-2 8.66699 -3 17 -3 25c0 28.667 11.667 56.334 35 83.001c21.333 25.333 48.666 44.833 81.999 58.5s67 19.834 101 18.501c24 -0.666992 45.667 -5 65 -13c8 -3.33301 16.333 -7.33301 25 -12h1v58c0 16 -6.33301 31.167 -19 45.5
s-30 25.5 -52 33.5c-35.333 12.667 -72 15 -110 7s-66 -23 -84 -45c-2.66699 -3.33301 -6.33398 -5 -11.001 -5c-4 0 -7.33301 1.16699 -10 3.5s-4 5.5 -4 9.5c0 3.33301 1 6.33301 3 9c14.667 18.667 34.334 33.167 59.001 43.5s51.334 15.833 80.001 16.5
c5.33301 0 13 -0.333008 23 -1zM274.999 535.995c2 0 3.66699 -0.332031 5 -0.999023s2.66602 -1.66699 3.99902 -3l1 -1c0 -0.666992 0.333008 -1 1 -1c0.666992 -0.666992 1 -1.33398 1 -2.00098l1 -1v-2c0.666992 -0.666992 1 -1.33398 1 -2.00098v-2
c0 -2 -0.666992 -4 -2 -6c-4.66699 -14 -11.667 -25.667 -21 -35c-4.66699 -4.66699 -8 -7.66699 -10 -9c-2.66699 -2.66699 -6 -5 -10 -7c-6.66699 -4 -14 -6.33301 -22 -7c-3.33301 -0.666992 -7 -1 -11 -1c-16 0.666992 -30.5 6.83398 -43.5 18.501
s-21.167 26.834 -24.5 45.501v3c0 4.66699 2.33301 8.33398 7 11.001v1c2.66699 1.33301 5 2 7 2h1c1.33301 0 3 -0.666992 5 -2c1.33301 -0.666992 2.33301 -1.33398 3 -2.00098s1.33398 -1 2.00098 -1c2 -2 3 -4.33301 3 -7
c4.66699 -26.667 18.334 -40.334 41.001 -41.001c4 0 8.66699 1 14 3c12.667 3.33301 22 12.333 28 27c2 2.66699 3.66699 6 5 10c0 4 1.33301 7 4 9c1.33301 0.666992 2.33301 1 3 1l1 1c1.33301 0 2.66602 0.333008 3.99902 1h2z" />
    <glyph glyph-name="glyph_63" unicode="&#x104;" horiz-adv-x="688" 
d="M312 838v-0.998047h3v-1l2 -2h1v-1c0.666992 0 1.33398 -0.333008 2.00098 -1v-1c0 -0.666992 0.333008 -1.33398 1 -2.00098v-1c0 -0.666992 0.333008 -1.33398 1 -2.00098v-1l275 -799l55 55c2 2 4.33301 3.33301 7 4c1.33301 0.666992 2.66602 1 3.99902 1
c3.33301 0 6.5 -1.5 9.5 -4.5s4.5 -6.16699 4.5 -9.5c0 -4 -1.66699 -7.33301 -5 -10l-140 -140c-2.66699 -4 -6.33398 -6 -11.001 -6c-3.33301 0 -6.5 1.33301 -9.5 4s-4.5 6 -4.5 10c0 4.66699 1.66699 8.33398 5 11.001l63 63v1c0 0.666992 -0.333008 1 -1 1l-98 286
h-337l-98 -286c-2 -6 -6.66699 -9 -14 -9c-3.33301 0 -6.5 1.33301 -9.5 4s-4.5 6 -4.5 10c0 1.33301 0.333008 3 1 5l280 809v5c2 3.33301 4.33301 5.66602 7 6.99902c0.666992 0 1.33398 0.333008 2.00098 1h9zM148 320.002h319l-159 461z" />
    <glyph glyph-name="glyph_64" unicode="&#x105;" horiz-adv-x="446" 
d="M201 423c21.333 -1.33301 42.001 -5.66699 62.001 -13c24.667 -8.66699 44.834 -21.167 60.501 -37.5s25.167 -34.5 28.5 -54.5c0.666992 -2 1 -3.66699 1 -5v-262c0.666992 -5.33301 4.66699 -10.666 12 -15.999l1.5 -0.5c1 -0.333008 1.5 -0.833008 1.5 -1.5l35 35
c2 2 4.33301 3.66699 7 5h4c2 0 4 -0.333008 6 -1l4 -4c2.66699 -2.66699 4 -5.66699 4 -9c0 -4 -1.66699 -7.33301 -5 -10l-24 -25c2 0 4 -0.666992 6 -2c0 -0.666992 0.333008 -1.33398 1 -2.00098c2.66699 -2.66699 4 -5.66699 4 -9c0 -1.33301 -0.333008 -2.33301 -1 -3
c0 -0.666992 -0.333008 -1.33398 -1 -2.00098l-2 -4c-0.666992 -0.666992 -1.66699 -1.33398 -3 -2.00098l-1 -1c-0.666992 0 -1.33398 -0.333008 -2.00098 -1c-1.33301 -0.666992 -2.66602 -1 -3.99902 -1h-1c-5.33301 0 -12 1 -20 3l-69 -70l-2 -2
c-0.666992 0 -1.33398 -0.333008 -2.00098 -1h-1c-2 -0.666992 -3.66699 -1 -5 -1c-4 0 -7.5 1.33301 -10.5 4s-4.5 6 -4.5 10s1.66699 7.33301 5 10l61 62c-12 9.33301 -19 21.333 -21 36v2l-1 1c-30.667 -27.333 -67.334 -45.166 -110.001 -53.499s-82.667 -5.5 -120 8.5
c-42 16.667 -67.333 44 -76 82c-2 8 -3 16.333 -3 25c0 28 11.667 55.667 35 83c22 25.333 49.5 45 82.5 59s66.5 20.333 100.5 19c24 -0.666992 46 -5 66 -13c10 -4 18 -8 24 -12l1 -1v66c-2 14 -9.33301 27.333 -22 40s-29.334 22.667 -50.001 30
c-26 9.33301 -53.333 13 -82 11s-54 -8.66699 -76 -20c-5.33301 -3.33301 -11.666 -8 -18.999 -14c-6.66699 -5.33301 -12 -10 -16 -14c-0.666992 -2 -1.66699 -3.33301 -3 -4c-2.66699 -2 -5.66699 -3 -9 -3s-6.5 1.5 -9.5 4.5s-4.5 6.33301 -4.5 10
s1.33301 6.83398 4 9.50098c14.667 18.667 34.5 33.167 59.5 43.5s51.5 15.833 79.5 16.5c5.33301 0 13.333 -0.333008 24 -1zM145.001 227.999c-9.33301 -3.33301 -18.668 -8 -28.001 -14c-18 -10 -33 -22 -45 -36c-4.66699 -6 -9.66699 -13.333 -15 -22
c-12 -22 -15.667 -42.667 -11 -62c6.66699 -28 26.667 -48.667 60 -62c34 -13.333 72.5 -14.5 115.5 -3.5s76.833 30.833 101.5 59.5c0.666992 1.33301 1.33398 2.33301 2.00098 3v121c-10 9.33301 -22 17 -36 23c-16 6 -34.667 9.33301 -56 10
c-30 0.666992 -59.333 -5 -88 -17z" />
    <glyph glyph-name="glyph_67" unicode="&#x106;" horiz-adv-x="835" 
d="M563 932c4 0 7.33398 -1.33691 10.001 -4.00391s4 -6 4 -10s-1.33301 -7.33301 -4 -10l-51 -51c64.667 -7.33301 125 -28.666 181 -63.999c5.33301 -2.66699 8 -7 8 -13c0 -3.33301 -1.5 -6.5 -4.5 -9.5s-6.16699 -4.5 -9.5 -4.5s-6.33301 1 -9 3
c-58 37.333 -122 58 -192 62l-63 -63c-2.66699 -3.33301 -6.33398 -5 -11.001 -5c-4 0 -7.33301 1.33301 -10 4s-4 6 -4 10s1.66699 7.33301 5 10l44 45c-66 -2 -128.167 -19.333 -186.5 -52s-105.833 -78 -142.5 -136c-39.333 -62 -60.333 -129 -63 -201
s12.5 -140 45.5 -204s80.5 -115.667 142.5 -155c80.667 -51.333 168.167 -71.666 262.5 -60.999s175.166 49.667 242.499 117c2.66699 2.66699 6 4 10 4s7.5 -1.33301 10.5 -4s4.5 -6 4.5 -10s-1.66699 -7.33301 -5 -10c-71.333 -72 -157.666 -113.333 -258.999 -124
c-17.333 -2 -34.333 -3 -51 -3c-82.667 0 -159.334 22.333 -230.001 67c-66.667 42.667 -117.667 98.334 -153 167.001c-32.667 62.667 -49 129 -49 199c0 6 0.333008 12 1 18c2.66699 76.667 25.334 148.334 68.001 215.001c39.333 62 90.5 110.5 153.5 145.5
s129.833 53.5 200.5 55.5c9.33301 0.666992 18 0.666992 26 0l68 67c1.33301 2 3 3.66699 5 5h5z" />
    <glyph glyph-name="glyph_68" unicode="&#x107;" horiz-adv-x="419" 
d="M334 475l0.996094 -1.00098c0.666992 0.666992 1.33398 1 2.00098 1c2 0 4 -0.333008 6 -1c2 -1.33301 3.66699 -2.66602 5 -3.99902c2 -2.66699 3 -5.66699 3 -9c0 -4.66699 -1.66699 -8.33398 -5 -11.001l-47 -48c20.667 -8 39.667 -19 57 -33
c8 -6.66699 14.333 -12.667 19 -18c3.33301 -2.66699 5 -6.33398 5 -11.001c0 -2.66699 -0.666992 -5 -2 -7s-2.66602 -3.66699 -3.99902 -5c-2 -1.33301 -4.33301 -2 -7 -2c-1.33301 0 -2.66602 0.333008 -3.99902 1h-3c-2 1.33301 -3.66699 3 -5 5
c-3.33301 3.33301 -9 8.33301 -17 15c-18 14.667 -38.333 25.667 -61 33l-48 -48c-0.666992 -1.33301 -1.66699 -2.66602 -3 -3.99902c-2.66699 -0.666992 -5 -1 -7 -1c-6 0 -10.333 2.66699 -13 8h-1c-0.666992 2 -1 4 -1 6s0.333008 4 1 6c0.666992 0 1 0.333008 1 1l4 4
l34 34c-27.333 3.33301 -54 0.5 -80 -8.5s-48.667 -23.167 -68 -42.5l-12 -14c-32 -39.333 -45.333 -84.166 -40 -134.499s27.333 -91.5 66 -123.5s83 -45.333 133 -40c11.333 1.33301 22.666 3.66602 33.999 6.99902c10.667 3.33301 21.334 7.66602 32.001 12.999
c4.66699 2.66699 9.66699 6 15 10c4.66699 2.66699 9.33398 6 14.001 10c10.667 8.66699 19.667 17.334 27 26.001v1c2.66699 3.33301 6 5 10 5c3.33301 0 6 -0.666992 8 -2l3 -3c2.66699 -2.66699 4 -5.66699 4 -9c0 -1.33301 -0.333008 -2.66602 -1 -3.99902
c0 -0.666992 -0.333008 -1.33398 -1 -2.00098c0 -0.666992 -0.333008 -1.66699 -1 -3c-32 -38.667 -72.667 -63 -122 -73c-10 -2.66699 -16.333 -4 -19 -4c-8 -0.666992 -16 -1 -24 -1c-48 0 -91.333 15.667 -130 47c-44.667 37.333 -70 85 -76 143
c-0.666992 8 -1 15.667 -1 23c0 48.667 15.667 92.334 47 131.001c36.667 45.333 83.667 71 141 77c22 2 43.667 0.666992 65 -4l58 59c2 2 4.33301 3.33301 7 4z" />
    <glyph glyph-name="Ccircumflex" unicode="&#x108;" horiz-adv-x="783" 
d="M679 795c4 -3.33301 5.99902 -7.66992 5.99902 -13.0029c0 -4 -1.33301 -7.33301 -4 -10s-6 -4 -10 -4c-3.33301 0 -6 0.666992 -8 2c-62 39.333 -129 60.5 -201 63.5s-140 -12 -204 -45s-115.667 -80.5 -155 -142.5s-60.5 -129.167 -63.5 -201.5
s12.167 -140.5 45.5 -204.5s81 -115.667 143 -155c80.667 -51.333 168.167 -71.666 262.5 -60.999s175.166 49.667 242.499 117c2.66699 2 5.66699 3 9 3s6.5 -1.33301 9.5 -4s4.5 -6 4.5 -10c0 -3.33301 -1 -6 -3 -8c-72 -72 -158.333 -113.667 -259 -125
c-18 -1.33301 -35.333 -2 -52 -2c-81.333 0 -157.666 22 -228.999 66c-66 42 -116.667 97.333 -152 166c-32.667 63.333 -49 130.333 -49 201c0 5.33301 0.333008 11.333 1 18c2.66699 76.667 25 148.334 67 215.001c39.333 62 90.333 110.5 153 145.5
s129.667 53.5 201 55.5c88.667 2.66699 170.334 -19.666 245.001 -66.999zM315.999 894.996c-7.33301 2 -11 6.66602 -11 13.999c0 4 2 7.33301 6 10l77 79l2 2l1 1c0.666992 0 1 0.333008 1 1h1l2 2h2c0.666992 0.666992 1.33398 1 2.00098 1h2c2 0 3.66699 -0.333008 5 -1
l1 -1h2c1.33301 -1.33301 2.33301 -2.66602 3 -3.99902l1 -1l1 -1l78 -78c3.33301 -2.66699 5 -6 5 -10s-1.5 -7.33301 -4.5 -10s-6.16699 -4 -9.5 -4h-3c-2.66699 0.666992 -5.33398 2 -8.00098 4l-71 71l-71 -71c-2.66699 -2.66699 -6 -4 -10 -4h-4z" />
    <glyph glyph-name="ccircumflex" unicode="&#x109;" horiz-adv-x="419" 
d="M358 370c8 -6.66699 14.3359 -12.335 19.0029 -17.002c2.66699 -3.33301 4 -6.66602 4 -9.99902c0 -4.66699 -1.33301 -8.33398 -4 -11.001s-6 -4 -10 -4c-4.66699 0 -8.33398 1.33301 -11.001 4c-1.33301 1.33301 -3 3.16602 -5 5.49902l-5.5 6.5
c-1.66699 2 -3.5 3.66699 -5.5 5c-38.667 32 -82.834 45.333 -132.501 40s-90.334 -27.666 -122.001 -66.999s-45 -84.166 -40 -134.499s27 -91.5 66 -123.5s83.333 -45.333 133 -40s90.5 27.666 122.5 66.999c2.66699 4 6.33398 6 11.001 6c4 0 7.5 -1.33301 10.5 -4
s4.5 -6 4.5 -10s-1.33301 -7.33301 -4 -10c-36.667 -45.333 -83.667 -71 -141 -77c-8 -0.666992 -16 -1 -24 -1c-47.333 0 -90.333 15.667 -129 47c-45.333 36.667 -71 84.334 -77 143.001c-0.666992 8 -1 16 -1 24c0 48.667 15.667 92.334 47 131.001
c36 44.667 83.333 70 142 76c5.33301 0.666992 11.666 1 18.999 1c50 0.666992 94.333 -15 133 -47zM147.003 444.999c-7.33301 2 -11 6.66602 -11 13.999c0 4 2 7.33301 6 10l77 79l2 2l1 1c0.666992 0 1 0.333008 1 1h1l2 2h2c0.666992 0.666992 1.33398 1 2.00098 1h2
c2 0 3.66699 -0.333008 5 -1l1 -1h2c1.33301 -1.33301 2.33301 -2.66602 3 -3.99902l1 -1l1 -1l78 -78c3.33301 -2.66699 5 -6 5 -10s-1.5 -7.33301 -4.5 -10s-6.16699 -4 -9.5 -4h-3c-2.66699 0.666992 -5.33398 2 -8.00098 4l-71 71l-71 -71
c-2.66699 -2.66699 -6 -4 -10 -4h-4z" />
    <glyph glyph-name="Cdotaccent" unicode="&#x10a;" horiz-adv-x="772" 
d="M679 795c4 -3.33301 5.99902 -7.66992 5.99902 -13.0029c0 -4 -1.33301 -7.33301 -4 -10s-6 -4 -10 -4c-3.33301 0 -6 0.666992 -8 2c-62 39.333 -129 60.5 -201 63.5s-140 -12 -204 -45s-115.667 -80.5 -155 -142.5s-60.5 -129.167 -63.5 -201.5
s12.167 -140.5 45.5 -204.5s81 -115.667 143 -155c80.667 -51.333 168.167 -71.666 262.5 -60.999s175.166 49.667 242.499 117c2.66699 2 5.66699 3 9 3s6.5 -1.33301 9.5 -4s4.5 -6 4.5 -10c0 -3.33301 -1 -6 -3 -8c-72 -72 -158.333 -113.667 -259 -125
c-18 -1.33301 -35.333 -2 -52 -2c-81.333 0 -157.666 22 -228.999 66c-66 42 -116.667 97.333 -152 166c-32.667 63.333 -49 130.333 -49 201c0 5.33301 0.333008 11.333 1 18c2.66699 76.667 25 148.334 67 215.001c39.333 62 90.333 110.5 153 145.5
s129.667 53.5 201 55.5c88.667 2.66699 170.334 -19.666 245.001 -66.999zM388.999 944.996c0 10 2.99902 18.667 8.99902 26s13.667 12 23 14c2.66699 0.666992 5.33398 1 8.00098 1c11.333 0 20.833 -4 28.5 -12s11.5 -17.667 11.5 -29s-3.83301 -21 -11.5 -29
s-17.167 -12 -28.5 -12s-20.833 4 -28.5 12s-11.5 17.667 -11.5 29z" />
    <glyph glyph-name="cdotaccent" unicode="&#x10b;" horiz-adv-x="418" 
d="M358 370c8 -6.66699 14.3359 -12.335 19.0029 -17.002c2.66699 -3.33301 4 -6.66602 4 -9.99902c0 -4.66699 -1.33301 -8.33398 -4 -11.001s-6 -4 -10 -4c-4.66699 0 -8.33398 1.33301 -11.001 4c-1.33301 1.33301 -3 3.16602 -5 5.49902l-5.5 6.5
c-1.66699 2 -3.5 3.66699 -5.5 5c-38.667 32 -82.834 45.333 -132.501 40s-90.334 -27.666 -122.001 -66.999s-45 -84.166 -40 -134.499s27 -91.5 66 -123.5s83.333 -45.333 133 -40s90.5 27.666 122.5 66.999c2.66699 4 6.33398 6 11.001 6c4 0 7.5 -1.33301 10.5 -4
s4.5 -6 4.5 -10s-1.33301 -7.33301 -4 -10c-36.667 -45.333 -83.667 -71 -141 -77c-8 -0.666992 -16 -1 -24 -1c-47.333 0 -90.333 15.667 -129 47c-45.333 36.667 -71 84.334 -77 143.001c-0.666992 8 -1 16 -1 24c0 48.667 15.667 92.334 47 131.001
c36 44.667 83.333 70 142 76c5.33301 0.666992 11.666 1 18.999 1c50 0.666992 94.333 -15 133 -47zM190.003 495.999c0 10 2.99902 18.667 8.99902 26s13.667 12 23 14c2.66699 0.666992 5.33398 1 8.00098 1c11.333 0 20.833 -4 28.5 -12s11.5 -17.667 11.5 -29
s-3.83301 -21 -11.5 -29s-17.167 -12 -28.5 -12s-20.833 4 -28.5 12s-11.5 17.667 -11.5 29z" />
    <glyph glyph-name="Ccaron" unicode="&#x10c;" horiz-adv-x="778" 
d="M679 795c4 -3.33301 5.99902 -7.66992 5.99902 -13.0029c0 -4 -1.33301 -7.33301 -4 -10s-6 -4 -10 -4c-3.33301 0 -6 0.666992 -8 2c-62 39.333 -129 60.5 -201 63.5s-140 -12 -204 -45s-115.667 -80.5 -155 -142.5s-60.5 -129.167 -63.5 -201.5
s12.167 -140.5 45.5 -204.5s81 -115.667 143 -155c80.667 -51.333 168.167 -71.666 262.5 -60.999s175.166 49.667 242.499 117c2.66699 2 5.66699 3 9 3s6.5 -1.33301 9.5 -4s4.5 -6 4.5 -10c0 -3.33301 -1 -6 -3 -8c-72 -72 -158.333 -113.667 -259 -125
c-18 -1.33301 -35.333 -2 -52 -2c-81.333 0 -157.666 22 -228.999 66c-66 42 -116.667 97.333 -152 166c-32.667 63.333 -49 130.333 -49 201c0 5.33301 0.333008 11.333 1 18c2.66699 76.667 25 148.334 67 215.001c39.333 62 90.333 110.5 153 145.5
s129.667 53.5 201 55.5c88.667 2.66699 170.334 -19.666 245.001 -66.999zM524.999 1009c7.33301 -2 11 -6.66602 11 -13.999c0 -4 -2 -7.33301 -6 -10l-77 -80l-2 -2l-1 -1c-0.666992 0 -1 -0.333008 -1 -1h-1l-2 -2h-2c-0.666992 -0.666992 -1.33398 -1 -2.00098 -1h-2
c-2 0 -3.66699 0.333008 -5 1l-1 1h-2c-1.33301 1.33301 -2.33301 2.66602 -3 3.99902l-1 1l-1 1l-78 77c-3.33301 2.66699 -5 6 -5 10s1.5 7.33301 4.5 10s6.16699 4 9.5 4h3c2.66699 -0.666992 5.33398 -1.66699 8.00098 -3l71 -71l71 71c2.66699 3.33301 6 5 10 5h4z" />
    <glyph glyph-name="ccaron" unicode="&#x10d;" horiz-adv-x="409" 
d="M358 370c8 -6.66699 14.3359 -12.335 19.0029 -17.002c2.66699 -3.33301 4 -6.66602 4 -9.99902c0 -4.66699 -1.33301 -8.33398 -4 -11.001s-6 -4 -10 -4c-4.66699 0 -8.33398 1.33301 -11.001 4c-1.33301 1.33301 -3 3.16602 -5 5.49902l-5.5 6.5
c-1.66699 2 -3.5 3.66699 -5.5 5c-38.667 32 -82.834 45.333 -132.501 40s-90.334 -27.666 -122.001 -66.999s-45 -84.166 -40 -134.499s27 -91.5 66 -123.5s83.333 -45.333 133 -40s90.5 27.666 122.5 66.999c2.66699 4 6.33398 6 11.001 6c4 0 7.5 -1.33301 10.5 -4
s4.5 -6 4.5 -10s-1.33301 -7.33301 -4 -10c-36.667 -45.333 -83.667 -71 -141 -77c-8 -0.666992 -16 -1 -24 -1c-47.333 0 -90.333 15.667 -129 47c-45.333 36.667 -71 84.334 -77 143.001c-0.666992 8 -1 16 -1 24c0 48.667 15.667 92.334 47 131.001
c36 44.667 83.333 70 142 76c5.33301 0.666992 11.666 1 18.999 1c50 0.666992 94.333 -15 133 -47zM317.003 554.999c7.33301 -2 11 -6.66602 11 -13.999c0 -4 -2 -7.33301 -6 -10l-77 -79l-2 -2l-1 -1c-0.666992 0 -1 -0.333008 -1 -1h-1l-2 -2h-2
c-0.666992 -0.666992 -1.33398 -1 -2.00098 -1h-2c-2 0 -3.66699 0.333008 -5 1l-1 1h-2c-1.33301 1.33301 -2.33301 2.66602 -3 3.99902l-1 1l-1 1l-78 78c-3.33301 2.66699 -5 6 -5 10s1.5 7.33301 4.5 10s6.16699 4 9.5 4h3c2.66699 -0.666992 5.33398 -2 8.00098 -4
l71 -71l71 71c2.66699 2.66699 6 4 10 4h4z" />
    <glyph glyph-name="Dcaron" unicode="&#x10e;" horiz-adv-x="700" 
d="M352 1007c7.33301 -2 11 -6.66602 11 -13.999c0 -4 -2 -7.33301 -6 -10l-77 -80l-2 -2l-1 -1c-0.666992 0 -1 -0.333008 -1 -1h-1l-2 -2h-2c-0.666992 -0.666992 -1.33398 -1 -2.00098 -1h-2c-2 0 -3.66699 0.333008 -5 1l-1 1h-2
c-1.33301 1.33301 -2.33301 2.66602 -3 3.99902l-1 1l-1 1l-78 77c-3.33301 2.66699 -5 6 -5 10s1.5 7.33301 4.5 10s6.16699 4 9.5 4h3c2.66699 -0.666992 5.33398 -1.66699 8.00098 -3l71 -71l71 71c2.66699 3.33301 6 5 10 5h4zM269 869.001l1 -1.00391h2
c74.667 -2 143.5 -22.667 206.5 -62s112.5 -92.166 148.5 -158.499s54 -138.166 54 -215.499c-0.666992 -77.333 -19.334 -148.666 -56.001 -213.999s-86.5 -117.5 -149.5 -156.5s-131.833 -59.167 -206.5 -60.5h-232v1h-3v1h-1c-4 2.66699 -6 6.66699 -6 12
c0 2 0.666992 4 2 6v827c-1.33301 2 -2 4 -2 6c0 6.66699 3.33301 11.334 10 14.001c0.666992 0 1.33398 0.333008 2.00098 1h230zM57 28.9971l212.001 0.00195312c70 1.33301 134.333 20.166 193 56.499s105 85.166 139 146.499s51.333 128 52 200
c0 72.667 -17 140.167 -51 202.5s-80.333 111.833 -139 148.5s-123.334 56 -194.001 58h-212v-812z" />
    <glyph glyph-name="dcaron" unicode="&#x10f;" horiz-adv-x="461" 
d="M69 306c-27.333 -40.667 -36.502 -85.5 -27.502 -134.5s32.833 -87.5 71.5 -115.5c28.667 -20 60.334 -30.5 95.001 -31.5s66.334 8.83301 95.001 29.5v301c-28 19.333 -58.667 29 -92 29c-28 0.666992 -54.667 -5.83301 -80 -19.5s-46 -33.167 -62 -58.5zM316.998 752
c4 0 7.33301 -1.33203 10 -3.99902s4 -6.33398 4 -11.001v-737c0 -4 -1.33301 -7.5 -4 -10.5s-6 -4.5 -10 -4.5s-7.33301 1.5 -10 4.5s-4 6.5 -4 10.5v19c-32 -17.333 -66.667 -25 -104 -23s-71.333 14 -102 36c-45.333 32.667 -73 77.334 -83 134.001
c-2.66699 14 -4 27.333 -4 40c0 41.333 12 80.333 36 117c31.333 47.333 74 76.333 128 87c45.333 9.33301 88.333 2.66602 129 -20.001v347c0 8 3.33301 13 10 15h4zM364.998 652.001c-3.33301 0 -6.49902 1.33105 -9.49902 3.99805s-4.5 6 -4.5 10
c0 2.66699 1 5.33398 3 8.00098l40 63c-8 2.66699 -14.833 7.5 -20.5 14.5s-8.5 14.833 -8.5 23.5c0 11.333 4.16699 21 12.5 29s18.166 12 29.499 12c10.667 0 20 -4 28 -12s12 -17.667 12 -29c0 -12 -4.66699 -22 -14 -30l-56 -86
c-2 -3.33301 -4.66699 -5.66602 -8 -6.99902h-4z" />
    <glyph glyph-name="Dcroat" unicode="&#x110;" horiz-adv-x="736" 
d="M50 442v403.996c-1.33301 2 -2 4 -2 6c0 6.66699 3.33301 11.334 10 14.001c0.666992 0 1.33398 0.333008 2.00098 1h230l1 -1h2c74.667 -2 143.5 -22.667 206.5 -62s112.5 -92.166 148.5 -158.499s54 -138.166 54 -215.499
c-0.666992 -77.333 -19.334 -148.666 -56.001 -213.999s-86.5 -117.5 -149.5 -156.5s-131.833 -59.167 -206.5 -60.5h-232v1h-3v1h-1c-4 2.66699 -6 6.66699 -6 12c0 2 0.666992 4 2 6v395h-44c-2 0 -3.83301 1.33301 -5.5 4s-2.5 6 -2.5 10c0 8 2.66699 12.667 8 14h44z
M78 413.996l0.000976562 -386.998h212c70 1.33301 134.333 20.166 193 56.499s105 85.166 139 146.499s51.333 128 52 200c0 72.667 -17 140.167 -51 202.5s-80.333 111.833 -139 148.5s-123.334 56 -194.001 58h-212v-397h274c4 0 7.33301 -1.33301 10 -4s4 -6 4 -10
s-1.33301 -7.33301 -4 -10s-6 -4 -10 -4h-274z" />
    <glyph glyph-name="dcroat" unicode="&#x111;" 
d="M69 305c-27.333 -40.667 -36.502 -85.5 -27.502 -134.5s32.833 -87.5 71.5 -115.5c28.667 -20 60.334 -30.5 95.001 -31.5s66.334 8.83301 95.001 29.5v301c-28 19.333 -58.667 29 -92 29c-28 0.666992 -54.667 -5.83301 -80 -19.5s-46 -33.167 -62 -58.5zM302.998 530
l-179.999 0.000976562c-2.66699 0 -4.83398 1.33301 -6.50098 4s-2.5 6 -2.5 10c0 8 2.66699 12.667 8 14h181v178c0 8 3.33301 13 10 15h4c4 0 7.33301 -1.33301 10 -4s4 -6.33398 4 -11.001v-178h62c2.66699 0 4.83398 -1.33301 6.50098 -4s2.5 -6 2.5 -10
s-0.833008 -7.33301 -2.5 -10s-3.83398 -4 -6.50098 -4h-62v-531c0 -4 -1.33301 -7.5 -4 -10.5s-6 -4.5 -10 -4.5s-7.33301 1.5 -10 4.5s-4 6.5 -4 10.5v19c-32 -17.333 -66.667 -25 -104 -23s-71.333 14 -102 36c-45.333 32.667 -73 77.334 -83 134.001
c-2.66699 14 -4 27.333 -4 40c0 41.333 12 80.333 36 117c31.333 47.333 74 76.333 128 87c45.333 9.33301 88.333 2.66602 129 -20.001v141z" />
    <glyph glyph-name="Emacron" unicode="&#x112;" horiz-adv-x="374" 
d="M327 864c4 0 7.33398 -1.33496 10.001 -4.00195s4 -6 4 -10s-1.33301 -7.33301 -4 -10s-6 -4 -10 -4h-268v-392h268c4 0 7.33301 -1.33301 10 -4s4 -6 4 -10s-1.33301 -7.33301 -4 -10s-6 -4 -10 -4h-268v-392h268c4 0 7.33301 -1.33301 10 -4s4 -6 4 -10
s-1.33301 -7.33301 -4 -10s-6 -4 -10 -4h-286c-0.666992 0.666992 -1.66699 1.33398 -3 2.00098s-2.33301 1.33398 -3 2.00098c0 0.666992 -0.333008 1 -1 1v1c-0.666992 0.666992 -1.33398 1.66699 -2.00098 3s-1 3 -1 5v841c0 6 2.66699 10.333 8 13h288zM285.001 912.998
c2 0 3.5 -1.33301 4.5 -4s1.5 -6 1.5 -10s-0.5 -7.33301 -1.5 -10s-2.5 -4 -4.5 -4h-166c-2 0 -3.5 1.33301 -4.5 4s-1.5 6 -1.5 10c0 8 1.66699 12.667 5 14h167z" />
    <glyph glyph-name="emacron" unicode="&#x113;" horiz-adv-x="445" 
d="M78 318c-24 -29.333 -37.333 -63 -40 -101h361c-4 52 -26 94.333 -66 127c-34 28 -72.667 41.667 -116 41c-56.667 0 -103 -22.333 -139 -67zM351 366c23.333 -18.667 41.666 -41.5 54.999 -68.5s20.666 -55.833 21.999 -86.5c0 -1.33301 -0.333008 -2.66602 -1 -3.99902
v-2c0.666992 -0.666992 1 -1.33398 1 -2.00098c0 -4 -1.33301 -7.33301 -4 -10s-6 -4 -10 -4h-376c4 -52.667 26 -95.667 66 -129c39.333 -32 83.833 -45.5 133.5 -40.5s90.167 27.167 121.5 66.5c2.66699 3.33301 6.33398 5 11.001 5c4 0 7.33301 -1.33301 10 -4
s4 -6 4 -10c0 -2.66699 -1 -5.33398 -3 -8.00098c-36.667 -45.333 -83.667 -70.666 -141 -75.999c-8 -0.666992 -15.667 -1 -23 -1c-48 0 -91.333 15.667 -130 47c-24.667 20 -43.5 44.167 -56.5 72.5s-19.833 57.833 -20.5 88.5v7c0.666992 48.667 16 91.667 46 129
c36 44.667 83 70 141 76c4.66699 0 11.334 0.333008 20.001 1c51.333 0 96 -15.667 134 -47zM306 511c2 0 3.5 -1.33301 4.5 -4s1.5 -6 1.5 -10s-0.5 -7.33301 -1.5 -10s-2.5 -4 -4.5 -4h-166c-2 0 -3.5 1.33301 -4.5 4s-1.5 6 -1.5 10c0 8 1.66699 12.667 5 14h167z" />
    <glyph glyph-name="Ebreve" unicode="&#x114;" horiz-adv-x="376" 
d="M327 864c4 0 7.33398 -1.33496 10.001 -4.00195s4 -6 4 -10s-1.33301 -7.33301 -4 -10s-6 -4 -10 -4h-268v-392h268c4 0 7.33301 -1.33301 10 -4s4 -6 4 -10s-1.33301 -7.33301 -4 -10s-6 -4 -10 -4h-268v-392h268c4 0 7.33301 -1.33301 10 -4s4 -6 4 -10
s-1.33301 -7.33301 -4 -10s-6 -4 -10 -4h-286c-0.666992 0.666992 -1.66699 1.33398 -3 2.00098s-2.33301 1.33398 -3 2.00098c0 0.666992 -0.333008 1 -1 1v1c-0.666992 0.666992 -1.33398 1.66699 -2.00098 3s-1 3 -1 5v841c0 6 2.66699 10.333 8 13h288zM249.001 980.998
c2 0 3.66699 -0.332031 5 -0.999023s2.66602 -1.66699 3.99902 -3l1 -1c0 -0.666992 0.333008 -1 1 -1c0.666992 -0.666992 1 -1.33398 1 -2.00098l1 -1v-2c0.666992 -0.666992 1 -1.33398 1 -2.00098v-2c0 -2 -0.666992 -4 -2 -6c-4.66699 -14 -11.667 -25.667 -21 -35
c-4.66699 -4.66699 -8 -7.66699 -10 -9c-2.66699 -2.66699 -6 -5 -10 -7c-6.66699 -4 -14 -6.33301 -22 -7c-3.33301 -0.666992 -7 -1 -11 -1c-16 0.666992 -30.5 6.83398 -43.5 18.501s-21.167 26.834 -24.5 45.501v3c0 4.66699 2.33301 8.33398 7 11.001v1
c2.66699 1.33301 5 2 7 2h1c1.33301 0 3 -0.666992 5 -2c1.33301 -0.666992 2.33301 -1.33398 3 -2.00098s1.33398 -1 2.00098 -1c2 -2 3 -4.33301 3 -7c4.66699 -26.667 18.334 -40.334 41.001 -41.001c4 0 8.66699 1 14 3c12.667 3.33301 22 12.333 28 27
c2 2.66699 3.66699 6 5 10c0 4 1.33301 7 4 9c1.33301 0.666992 2.33301 1 3 1l1 1c1.33301 0 2.66602 0.333008 3.99902 1h2z" />
    <glyph glyph-name="ebreve" unicode="&#x115;" horiz-adv-x="441" 
d="M78 318c-24 -29.333 -37.333 -63 -40 -101h361c-4 52 -26 94.333 -66 127c-34 28 -72.667 41.667 -116 41c-56.667 0 -103 -22.333 -139 -67zM351 366c23.333 -18.667 41.666 -41.5 54.999 -68.5s20.666 -55.833 21.999 -86.5c0 -1.33301 -0.333008 -2.66602 -1 -3.99902
v-2c0.666992 -0.666992 1 -1.33398 1 -2.00098c0 -4 -1.33301 -7.33301 -4 -10s-6 -4 -10 -4h-376c4 -52.667 26 -95.667 66 -129c39.333 -32 83.833 -45.5 133.5 -40.5s90.167 27.167 121.5 66.5c2.66699 3.33301 6.33398 5 11.001 5c4 0 7.33301 -1.33301 10 -4
s4 -6 4 -10c0 -2.66699 -1 -5.33398 -3 -8.00098c-36.667 -45.333 -83.667 -70.666 -141 -75.999c-8 -0.666992 -15.667 -1 -23 -1c-48 0 -91.333 15.667 -130 47c-24.667 20 -43.5 44.167 -56.5 72.5s-19.833 57.833 -20.5 88.5v7c0.666992 48.667 16 91.667 46 129
c36 44.667 83 70 141 76c4.66699 0 11.334 0.333008 20.001 1c51.333 0 96 -15.667 134 -47zM286 528c2 0 3.66699 -0.332031 5 -0.999023s2.66602 -1.66699 3.99902 -3l1 -1c0 -0.666992 0.333008 -1 1 -1c0.666992 -0.666992 1 -1.33398 1 -2.00098l1 -1v-2
c0.666992 -0.666992 1 -1.33398 1 -2.00098v-2c0 -2 -0.666992 -4 -2 -6c-4.66699 -14 -11.667 -25.667 -21 -35c-4.66699 -4.66699 -8 -7.66699 -10 -9c-2.66699 -2.66699 -6 -5 -10 -7c-6.66699 -4 -14 -6.33301 -22 -7c-3.33301 -0.666992 -7 -1 -11 -1
c-16 0.666992 -30.5 6.83398 -43.5 18.501s-21.167 26.834 -24.5 45.501v3c0 4.66699 2.33301 8.33398 7 11.001v1c2.66699 1.33301 5 2 7 2h1c1.33301 0 3 -0.666992 5 -2c1.33301 -0.666992 2.33301 -1.33398 3 -2.00098s1.33398 -1 2.00098 -1c2 -2 3 -4.33301 3 -7
c4.66699 -26.667 18.334 -40.334 41.001 -41.001c4 0 8.66699 1 14 3c12.667 3.33301 22 12.333 28 27c2 2.66699 3.66699 6 5 10c0 4 1.33301 7 4 9c1.33301 0.666992 2.33301 1 3 1l1 1c1.33301 0 2.66602 0.333008 3.99902 1h2z" />
    <glyph glyph-name="Edotaccent" unicode="&#x116;" horiz-adv-x="364" 
d="M327 864c4 0 7.33398 -1.33496 10.001 -4.00195s4 -6 4 -10s-1.33301 -7.33301 -4 -10s-6 -4 -10 -4h-268v-392h268c4 0 7.33301 -1.33301 10 -4s4 -6 4 -10s-1.33301 -7.33301 -4 -10s-6 -4 -10 -4h-268v-392h268c4 0 7.33301 -1.33301 10 -4s4 -6 4 -10
s-1.33301 -7.33301 -4 -10s-6 -4 -10 -4h-286c-0.666992 0.666992 -1.66699 1.33398 -3 2.00098s-2.33301 1.33398 -3 2.00098c0 0.666992 -0.333008 1 -1 1v1c-0.666992 0.666992 -1.33398 1.66699 -2.00098 3s-1 3 -1 5v841c0 6 2.66699 10.333 8 13h288zM157.001 945.998
c0 10 2.99902 18.667 8.99902 26s13.667 12 23 14c2.66699 0.666992 5.33398 1 8.00098 1c11.333 0 20.833 -4 28.5 -12s11.5 -17.667 11.5 -29s-3.83301 -21 -11.5 -29s-17.167 -12 -28.5 -12s-20.833 4 -28.5 12s-11.5 17.667 -11.5 29z" />
    <glyph glyph-name="edotaccent" unicode="&#x117;" horiz-adv-x="440" 
d="M78 318c-24 -29.333 -37.333 -63 -40 -101h361c-4 52 -26 94.333 -66 127c-34 28 -72.667 41.667 -116 41c-56.667 0 -103 -22.333 -139 -67zM351 366c23.333 -18.667 41.666 -41.5 54.999 -68.5s20.666 -55.833 21.999 -86.5c0 -1.33301 -0.333008 -2.66602 -1 -3.99902
v-2c0.666992 -0.666992 1 -1.33398 1 -2.00098c0 -4 -1.33301 -7.33301 -4 -10s-6 -4 -10 -4h-376c4 -52.667 26 -95.667 66 -129c39.333 -32 83.833 -45.5 133.5 -40.5s90.167 27.167 121.5 66.5c2.66699 3.33301 6.33398 5 11.001 5c4 0 7.33301 -1.33301 10 -4
s4 -6 4 -10c0 -2.66699 -1 -5.33398 -3 -8.00098c-36.667 -45.333 -83.667 -70.666 -141 -75.999c-8 -0.666992 -15.667 -1 -23 -1c-48 0 -91.333 15.667 -130 47c-24.667 20 -43.5 44.167 -56.5 72.5s-19.833 57.833 -20.5 88.5v7c0.666992 48.667 16 91.667 46 129
c36 44.667 83 70 141 76c4.66699 0 11.334 0.333008 20.001 1c51.333 0 96 -15.667 134 -47zM174 499c0 10 2.99902 18.667 8.99902 26s13.667 12 23 14c2.66699 0.666992 5.33398 1 8.00098 1c11.333 0 20.833 -4 28.5 -12s11.5 -17.667 11.5 -29s-3.83301 -21 -11.5 -29
s-17.167 -12 -28.5 -12s-20.833 4 -28.5 12s-11.5 17.667 -11.5 29z" />
    </font>
</defs>
</svg>
